<?xml version="1.0" encoding="utf-8"?><svg width="395" height="330" viewBox="0 0 395 330" xmlns="http://www.w3.org/2000/svg" xmlns:xlink="http://www.w3.org/1999/xlink"><svg width="120" height="40" fill="none" viewBox="0 0 120 40" id="svg--App_Store_Badge" x="160" y="40" xmlns="http://www.w3.org/2000/svg"><path d="M110.444 0H9.561c-.367 0-.73 0-1.097.002-.307.002-.612.008-.922.013-.673.008-1.345.067-2.01.177a6.697 6.697 0 0 0-1.906.627 6.455 6.455 0 0 0-2.804 2.8 6.588 6.588 0 0 0-.627 1.903 12.958 12.958 0 0 0-.18 2.002c-.01.306-.01.614-.015.92V31.56c.005.31.006.61.015.921.008.671.068 1.34.18 2.002.11.663.322 1.306.627 1.905A6.208 6.208 0 0 0 2.003 38a6.291 6.291 0 0 0 1.623 1.179c.6.304 1.243.517 1.907.63.664.11 1.336.168 2.01.177.31.007.614.011.92.011.367.002.73.002 1.098.002h100.883c.36 0 .727 0 1.087-.002.306 0 .619-.004.924-.01a13.352 13.352 0 0 0 2.006-.178 6.836 6.836 0 0 0 1.914-.63A6.296 6.296 0 0 0 117.996 38a6.368 6.368 0 0 0 1.185-1.614c.303-.6.512-1.242.621-1.905.112-.661.174-1.33.186-2.002.004-.31.004-.61.004-.921.008-.364.008-.725.008-1.094V9.536c0-.366 0-.73-.008-1.092 0-.306 0-.614-.004-.92a13.437 13.437 0 0 0-.186-2.002 6.59 6.59 0 0 0-.621-1.904 6.474 6.474 0 0 0-2.806-2.8 6.798 6.798 0 0 0-1.914-.627c-.663-.11-1.333-.169-2.006-.176-.305-.005-.618-.011-.924-.013-.36-.002-.727-.002-1.087-.002z" fill="#fff"/><path fill-rule="evenodd" clip-rule="evenodd" d="M110.88 1.702H9.561c-.368 0-.726 0-1.087.002a70.816 70.816 0 0 0-.905.013h-.007c-.584.007-1.168.058-1.745.153-.49.083-.965.24-1.41.464-.438.224-.84.516-1.189.864l-.005.005a4.557 4.557 0 0 0-.86 1.18l-.001.003A4.895 4.895 0 0 0 1.886 5.8v.003c-.097.575-.15 1.157-.157 1.74v.032c-.006.193-.008.376-.01.575l-.005.308v23.087l.004.305c.003.2.005.383.01.58l.001.015v.015c.007.584.06 1.166.157 1.741v.004c.082.492.24.97.466 1.414v.001c.221.435.51.83.858 1.172l.006.006.007.007c.345.348.744.637 1.181.858h.002c.445.226.92.384 1.412.47.578.093 1.162.145 1.747.152h.015c.3.007.591.01.884.01h.01c.36.003.719.003 1.087.003h100.883c.361 0 .723 0 1.077-.002h.01c.291 0 .592-.004.886-.01h.017a11.63 11.63 0 0 0 1.74-.154 5.117 5.117 0 0 0 1.424-.47c.436-.22.834-.51 1.178-.856l.005-.005.005-.005c.348-.345.641-.743.866-1.18.223-.443.378-.917.458-1.407l.001-.008c.098-.577.152-1.16.163-1.746.004-.297.004-.586.004-.896v-.037c.008-.342.008-.685.008-1.057V9.536c0-.37 0-.714-.008-1.055v-.037c0-.307 0-.603-.004-.896a11.736 11.736 0 0 0-.163-1.745l-.001-.007a4.895 4.895 0 0 0-.458-1.41 4.77 4.77 0 0 0-2.057-2.052 5.083 5.083 0 0 0-1.42-.464 11.399 11.399 0 0 0-1.739-.153h-.008l-.173-.003c-.251-.004-.495-.008-.734-.01l-.641-.002zM110.444 0a490.786 490.786 0 0 1 1.087.002 64.096 64.096 0 0 1 .755.01c.057 0 .113.002.169.003.673.007 1.343.066 2.006.176a6.798 6.798 0 0 1 1.914.627 6.474 6.474 0 0 1 2.806 2.8c.303.6.512 1.241.621 1.904.112.661.174 1.33.186 2.002.004.306.004.614.004.92.008.363.008.726.008 1.092v20.929c0 .369 0 .73-.008 1.094 0 .31 0 .61-.004.921-.012.672-.074 1.34-.186 2.002a6.595 6.595 0 0 1-.621 1.905A6.368 6.368 0 0 1 117.996 38a6.296 6.296 0 0 1-1.621 1.179 6.836 6.836 0 0 1-1.914.63c-.663.11-1.333.169-2.006.177-.305.007-.618.011-.924.011-.36.002-.727.002-1.087.002H9.561c-.367 0-.73 0-1.097-.002-.307 0-.612-.004-.922-.01a13.518 13.518 0 0 1-2.01-.178 6.734 6.734 0 0 1-1.906-.63A6.291 6.291 0 0 1 2.003 38a6.208 6.208 0 0 1-1.181-1.614 6.575 6.575 0 0 1-.627-1.905 12.957 12.957 0 0 1-.18-2.002c-.006-.212-.009-.42-.011-.629L0 31.56V8.444l.004-.295c.002-.208.005-.417.011-.625.008-.671.068-1.34.18-2.002.11-.663.322-1.305.627-1.904a6.455 6.455 0 0 1 2.805-2.8A6.697 6.697 0 0 1 5.532.193c.664-.11 1.336-.17 2.01-.177l.192-.003c.244-.004.485-.008.729-.01C8.83 0 9.194 0 9.56 0h100.883z" fill="#E1E2E1"/><path d="M24.838 20.3a4.938 4.938 0 0 1 2.364-4.151 5.075 5.075 0 0 0-4.003-2.158c-1.684-.176-3.316 1.005-4.174 1.005-.875 0-2.196-.987-3.619-.958a5.341 5.341 0 0 0-4.486 2.728c-1.939 3.348-.492 8.269 1.366 10.976.929 1.325 2.015 2.805 3.437 2.753 1.39-.058 1.91-.885 3.59-.885 1.663 0 2.15.885 3.6.851 1.493-.024 2.433-1.33 3.33-2.669a10.947 10.947 0 0 0 1.523-3.092 4.792 4.792 0 0 1-2.128-1.76 4.772 4.772 0 0 1-.8-2.64zM22.1 12.211a4.863 4.863 0 0 0 1.117-3.49A4.976 4.976 0 0 0 20 10.38a4.633 4.633 0 0 0-1.147 3.361 4.12 4.12 0 0 0 3.246-1.53zM42.42 27.99h-4.746l-1.14 3.357h-2.01L39.02 18.93h2.089l4.496 12.418H43.56l-1.14-3.356zm-4.254-1.548h3.762l-1.854-5.447h-.052l-1.856 5.447zM55.314 26.82c0 2.814-1.51 4.622-3.788 4.622a3.085 3.085 0 0 1-2.857-1.584h-.043v4.484h-1.864V22.293h1.804V23.8h.034a3.216 3.216 0 0 1 2.891-1.6c2.305 0 3.823 1.816 3.823 4.622zm-1.915 0c0-1.832-.95-3.037-2.4-3.037-1.423 0-2.381 1.23-2.381 3.038 0 1.824.958 3.046 2.382 3.046 1.449 0 2.399-1.197 2.399-3.046zM65.307 26.82c0 2.814-1.51 4.622-3.789 4.622a3.085 3.085 0 0 1-2.856-1.584h-.043v4.484h-1.864V22.293h1.804V23.8h.034a3.216 3.216 0 0 1 2.891-1.6c2.304 0 3.823 1.816 3.823 4.622zm-1.915 0c0-1.832-.95-3.037-2.4-3.037-1.423 0-2.381 1.23-2.381 3.038 0 1.824.958 3.046 2.381 3.046 1.45 0 2.4-1.197 2.4-3.046zM71.912 27.887c.138 1.232 1.337 2.04 2.977 2.04 1.57 0 2.7-.808 2.7-1.919 0-.963-.681-1.54-2.295-1.936l-1.614-.388c-2.286-.55-3.348-1.617-3.348-3.347 0-2.143 1.872-3.615 4.531-3.615 2.632 0 4.436 1.472 4.496 3.615h-1.881c-.113-1.24-1.14-1.988-2.641-1.988-1.502 0-2.529.757-2.529 1.859 0 .878.656 1.394 2.261 1.79l1.372.336c2.555.602 3.617 1.626 3.617 3.442 0 2.323-1.856 3.778-4.807 3.778-2.762 0-4.627-1.42-4.747-3.667h1.908zM83.58 20.151v2.143h1.727v1.471H83.58v4.991c0 .776.346 1.137 1.105 1.137.205-.003.41-.018.613-.043v1.463a5.133 5.133 0 0 1-1.035.086c-1.839 0-2.555-.689-2.555-2.444v-5.19h-1.32v-1.471h1.32V20.15h1.872zM86.306 26.82c0-2.848 1.683-4.638 4.306-4.638 2.633 0 4.307 1.79 4.307 4.639 0 2.856-1.665 4.638-4.307 4.638-2.64 0-4.306-1.782-4.306-4.638zm6.714 0c0-1.953-.898-3.107-2.408-3.107-1.51 0-2.407 1.162-2.407 3.108 0 1.962.897 3.106 2.407 3.106s2.408-1.144 2.408-3.106zM96.456 22.293h1.778v1.541h.043c.12-.48.403-.906.8-1.204a2.17 2.17 0 0 1 1.384-.431c.214-.001.428.022.638.069v1.738a2.612 2.612 0 0 0-.837-.112 1.883 1.883 0 0 0-1.86 1.286 1.868 1.868 0 0 0-.082.797v5.37h-1.864v-9.054zM109.69 28.688c-.25 1.643-1.855 2.771-3.908 2.771-2.642 0-4.281-1.764-4.281-4.595 0-2.84 1.648-4.682 4.202-4.682 2.512 0 4.092 1.72 4.092 4.466v.637h-6.413v.112a2.352 2.352 0 0 0 1.463 2.391c.31.127.644.186.98.173a2.059 2.059 0 0 0 2.096-1.273h1.77zm-6.299-2.702h4.54a2.172 2.172 0 0 0-1.35-2.135 2.189 2.189 0 0 0-.878-.163 2.304 2.304 0 0 0-2.137 1.416c-.116.28-.176.58-.175.882zM38.407 13.767c1.394 0 2.415-.827 2.557-2.053h-1.063c-.146.673-.728 1.097-1.494 1.097-1.03 0-1.67-.84-1.67-2.194 0-1.35.64-2.19 1.666-2.19.762 0 1.344.465 1.494 1.184h1.063c-.125-1.25-1.184-2.14-2.557-2.14-1.712 0-2.77 1.2-2.77 3.15 0 1.94 1.062 3.146 2.774 3.146zM44.032 13.708c1.369 0 2.202-.889 2.202-2.364 0-1.471-.837-2.365-2.202-2.365-1.36 0-2.201.898-2.201 2.365 0 1.475.828 2.364 2.201 2.364zm0-.864c-.724 0-1.138-.548-1.138-1.5 0-.948.414-1.5 1.138-1.5.72 0 1.134.552 1.134 1.5 0 .952-.41 1.5-1.134 1.5zM47.28 13.617h1.038v-2.763c0-.557.38-.977.896-.977.51 0 .828.303.828.802v2.938h1.009v-2.83c0-.52.356-.91.896-.91.556 0 .837.29.837.877v2.863h1.033v-3.125c0-.943-.552-1.513-1.469-1.513-.636 0-1.163.329-1.39.827h-.07c-.193-.51-.632-.827-1.264-.827-.607 0-1.076.308-1.273.827h-.07v-.735H47.28v4.546zM55.06 13.617h1.034V9.071H55.06v4.546zm.515-5.286c.381 0 .64-.24.64-.57 0-.327-.259-.568-.64-.568-.377 0-.64.24-.64.569 0 .328.263.57.64.57zM57.383 13.617h1.038V10.97c0-.67.39-1.093 1.009-1.093.632 0 .925.35.925 1.043v2.697h1.038v-2.942c0-1.085-.557-1.696-1.578-1.696-.682 0-1.143.312-1.36.82h-.072V9.07h-1v4.546zM64.59 12.711c-.724 0-1.134-.548-1.134-1.417 0-.868.41-1.421 1.134-1.421.72 0 1.16.553 1.16 1.421 0 .869-.436 1.417-1.16 1.417zm0 2.635c1.335 0 2.18-.661 2.18-1.712V9.07h-1v.727h-.07c-.252-.494-.796-.802-1.42-.802-1.167 0-1.891.906-1.891 2.298 0 1.367.72 2.257 1.875 2.257.636 0 1.134-.266 1.398-.753h.07v.86c0 .57-.414.902-1.125.902-.57 0-.938-.2-1.005-.51H62.56c.084.78.854 1.296 2.03 1.296zM70.228 10.372c0 .685.414 1.088 1.293 1.288l.812.187c.435.095.632.257.632.515 0 .337-.364.565-.887.565-.52 0-.841-.2-.942-.536h-1.025c.08.827.799 1.317 1.942 1.317 1.142 0 1.95-.581 1.95-1.454 0-.67-.406-1.043-1.28-1.238l-.808-.183c-.46-.104-.678-.262-.678-.52 0-.328.355-.552.828-.552.486 0 .791.203.867.523h.975c-.076-.827-.758-1.305-1.846-1.305-1.08 0-1.833.57-1.833 1.393zM77.029 13.708c1.368 0 2.201-.889 2.201-2.364 0-1.471-.837-2.365-2.201-2.365-1.36 0-2.202.898-2.202 2.365 0 1.475.83 2.364 2.202 2.364zm0-.864c-.724 0-1.139-.548-1.139-1.5 0-.948.415-1.5 1.139-1.5.72 0 1.134.552 1.134 1.5 0 .952-.41 1.5-1.134 1.5zM82.252 13.708c1.369 0 2.202-.889 2.202-2.364 0-1.471-.837-2.365-2.202-2.365-1.36 0-2.201.898-2.201 2.365 0 1.475.828 2.364 2.201 2.364zm0-.864c-.724 0-1.138-.548-1.138-1.5 0-.948.414-1.5 1.138-1.5.72 0 1.134.552 1.134 1.5 0 .952-.41 1.5-1.134 1.5zM85.5 13.617h1.038V10.97c0-.67.389-1.093 1.009-1.093.631 0 .924.35.924 1.043v2.697h1.038v-2.942c0-1.085-.556-1.696-1.577-1.696-.683 0-1.143.312-1.36.82H86.5V9.07h-1v4.546zM95 13.708c1.369 0 2.202-.889 2.202-2.364 0-1.471-.837-2.365-2.202-2.365-1.36 0-2.201.898-2.201 2.365 0 1.475.829 2.364 2.201 2.364zm0-.864c-.724 0-1.138-.548-1.138-1.5 0-.948.414-1.5 1.138-1.5.72 0 1.135.552 1.135 1.5 0 .952-.41 1.5-1.135 1.5zM98.248 13.617h1.038V10.97c0-.67.39-1.093 1.009-1.093.632 0 .925.35.925 1.043v2.697h1.038v-2.942c0-1.085-.557-1.696-1.578-1.696-.682 0-1.143.312-1.36.82h-.071V9.07h-1v4.546z" fill="#7B7F7E"/></svg><svg width="140" height="47" fill="none" viewBox="0 0 140 47" id="svg--app-store-m" y="87" xmlns="http://www.w3.org/2000/svg"><path d="M128.851 0H11.155c-.429 0-.853 0-1.28.003-.359.002-.714.009-1.076.014-.785.01-1.57.08-2.344.208A7.533 7.533 0 0 0 .959 4.251a7.78 7.78 0 0 0-.732 2.237c-.13.777-.2 1.564-.21 2.352-.01.36-.011.722-.017 1.082v27.16c.006.364.007.718.018 1.083.009.788.08 1.574.21 2.352.128.779.375 1.533.73 2.237.355.703.82 1.344 1.379 1.897a7.34 7.34 0 0 0 1.894 1.385c.7.358 1.45.608 2.224.741.775.128 1.559.198 2.344.208.362.008.717.013 1.075.013.428.002.852.002 1.281.002h117.696c.421 0 .848 0 1.268-.002.357 0 .723-.005 1.079-.013.784-.01 1.566-.08 2.34-.208a7.923 7.923 0 0 0 2.232-.74 7.318 7.318 0 0 0 1.892-1.386 7.518 7.518 0 0 0 1.383-1.897c.353-.704.597-1.459.724-2.237a15.85 15.85 0 0 0 .217-2.352c.005-.365.005-.719.005-1.084.009-.427.009-.851.009-1.285v-24.59c0-.431 0-.858-.009-1.284 0-.36 0-.722-.005-1.082a15.853 15.853 0 0 0-.217-2.352 7.792 7.792 0 0 0-.724-2.237 7.577 7.577 0 0 0-3.275-3.29 7.89 7.89 0 0 0-2.232-.736 15.205 15.205 0 0 0-2.34-.208c-.356-.005-.722-.012-1.079-.015-.42-.002-.847-.002-1.268-.002z" fill="#fff"/><path fill-rule="evenodd" clip-rule="evenodd" d="M129.36 2H11.155c-.43 0-.848 0-1.269.002a82.096 82.096 0 0 0-1.055.015h-.008c-.682.008-1.363.069-2.036.18a5.533 5.533 0 0 0-3.032 1.56l-.006.006A5.353 5.353 0 0 0 2.745 5.15l-.001.003A5.78 5.78 0 0 0 2.2 6.815v.003a13.33 13.33 0 0 0-.182 2.046v.018l-.001.018c-.007.227-.01.442-.012.676L2 9.938v27.128l.005.358c.002.235.005.45.012.681v.036c.009.686.07 1.37.183 2.045v.005c.096.578.28 1.139.543 1.661l.001.002c.258.51.596.975 1 1.377l.009.007.007.008a5.34 5.34 0 0 0 1.378 1.008l.002.001c.52.265 1.075.45 1.648.55.674.111 1.355.171 2.038.18H8.844c.349.008.69.013 1.03.013h.011c.422.002.84.002 1.27.002h117.696c.422 0 .843 0 1.257-.002h.011c.34 0 .691-.005 1.034-.012h.02a13.46 13.46 0 0 0 2.03-.18 5.931 5.931 0 0 0 1.661-.553c.509-.26.973-.6 1.375-1.007l.005-.005.006-.006a5.504 5.504 0 0 0 1.011-1.385c.26-.521.44-1.079.534-1.655l.002-.01c.113-.677.177-1.363.19-2.05.004-.349.004-.689.004-1.054v-.042c.009-.402.009-.805.009-1.243v-24.59c0-.435 0-.84-.009-1.24v-.044c0-.36 0-.708-.004-1.053a14.092 14.092 0 0 0-.19-2.05l-.002-.009a5.777 5.777 0 0 0-.535-1.656 5.577 5.577 0 0 0-2.399-2.411 5.897 5.897 0 0 0-1.657-.546 13.209 13.209 0 0 0-2.028-.18h-.01l-.202-.003c-.293-.005-.577-.01-.856-.012L129.36 2zm-.509-2h.51a74.22 74.22 0 0 1 1.49.011l.15.003.197.003c.784.009 1.566.078 2.34.208a7.89 7.89 0 0 1 2.232.737 7.577 7.577 0 0 1 3.275 3.29c.353.704.597 1.458.724 2.236.131.777.203 1.564.217 2.352.005.36.005.722.005 1.082.009.426.009.853.009 1.283v24.591c0 .434 0 .858-.009 1.285 0 .365 0 .719-.005 1.084a15.85 15.85 0 0 1-.217 2.352 7.798 7.798 0 0 1-.724 2.237 7.518 7.518 0 0 1-1.383 1.897 7.318 7.318 0 0 1-1.892 1.385 7.923 7.923 0 0 1-2.232.741c-.774.129-1.556.198-2.34.208a48.45 48.45 0 0 1-1.079.013c-.42.002-.847.002-1.268.002H11.155c-.429 0-.853 0-1.28-.002-.359 0-.714-.005-1.076-.013-.785-.01-1.57-.08-2.344-.208a7.813 7.813 0 0 1-2.224-.74 7.34 7.34 0 0 1-1.894-1.386 7.294 7.294 0 0 1-1.378-1.897 7.763 7.763 0 0 1-.732-2.237 15.33 15.33 0 0 1-.21-2.352c-.007-.25-.01-.494-.012-.74A89.057 89.057 0 0 0 0 37.081V9.922a85 85 0 0 0 .005-.347c.002-.245.005-.49.013-.735.009-.788.08-1.575.21-2.352a7.78 7.78 0 0 1 .73-2.237A7.533 7.533 0 0 1 6.455.225 15.396 15.396 0 0 1 8.8.017l.225-.003c.284-.005.566-.01.85-.011C10.302 0 10.726 0 11.155 0h117.696z" fill="#E1E2E1"/><path d="M28.978 23.853c.013-.98.272-1.942.754-2.795a5.803 5.803 0 0 1 2.003-2.083 5.935 5.935 0 0 0-2.036-1.822 5.906 5.906 0 0 0-2.633-.713c-1.965-.208-3.87 1.18-4.87 1.18-1.021 0-2.563-1.16-4.222-1.126a6.2 6.2 0 0 0-3.037.91A6.234 6.234 0 0 0 12.74 19.7c-2.263 3.934-.575 9.716 1.592 12.897 1.085 1.557 2.352 3.296 4.01 3.235 1.623-.068 2.23-1.04 4.188-1.04 1.94 0 2.51 1.04 4.201 1 1.742-.028 2.839-1.564 3.885-3.136a12.903 12.903 0 0 0 1.776-3.633 5.6 5.6 0 0 1-2.482-2.069 5.637 5.637 0 0 1-.933-3.1zM25.782 14.348a5.742 5.742 0 0 0 1.304-4.102c-1.45.154-2.79.85-3.752 1.95a5.453 5.453 0 0 0-1.339 3.95 4.778 4.778 0 0 0 3.787-1.798zM49.491 32.89h-5.538l-1.33 3.943h-2.345l5.245-14.591h2.437l5.246 14.591H50.82l-1.329-3.944zm-4.964-1.82h4.39l-2.164-6.401h-.06l-2.166 6.4zM64.534 31.515c0 3.305-1.762 5.43-4.42 5.43a3.579 3.579 0 0 1-1.934-.45 3.6 3.6 0 0 1-1.4-1.412h-.05v5.27h-2.174V26.194h2.104v1.77h.04c.34-.591.834-1.078 1.428-1.409a3.744 3.744 0 0 1 1.945-.472c2.688 0 4.46 2.134 4.46 5.43zm-2.235 0c0-2.154-1.108-3.57-2.8-3.57-1.66 0-2.778 1.446-2.778 3.57 0 2.143 1.117 3.579 2.779 3.579 1.69 0 2.799-1.406 2.799-3.58zM76.192 31.515c0 3.305-1.762 5.43-4.42 5.43a3.579 3.579 0 0 1-1.933-.45 3.6 3.6 0 0 1-1.4-1.412h-.05v5.27h-2.175V26.194h2.105v1.77h.04a3.744 3.744 0 0 1 3.373-1.88c2.688-.001 4.46 2.133 4.46 5.43zm-2.235 0c0-2.154-1.108-3.57-2.8-3.57-1.66 0-2.778 1.446-2.778 3.57 0 2.143 1.118 3.579 2.779 3.579 1.69 0 2.8-1.406 2.8-3.58zM83.897 32.768c.161 1.447 1.56 2.397 3.473 2.397 1.833 0 3.151-.95 3.151-2.255 0-1.133-.795-1.81-2.678-2.276l-1.883-.455c-2.667-.647-3.906-1.9-3.906-3.934 0-2.517 2.185-4.246 5.287-4.246 3.07 0 5.174 1.729 5.245 4.246H90.39c-.131-1.456-1.33-2.335-3.081-2.335-1.752 0-2.95.89-2.95 2.184 0 1.032.765 1.639 2.638 2.103l1.6.395c2.981.708 4.22 1.91 4.22 4.045 0 2.73-2.165 4.44-5.609 4.44-3.222 0-5.397-1.67-5.538-4.31h2.226zM97.51 23.677v2.518h2.014v1.73H97.51v5.864c0 .91.404 1.335 1.289 1.335.24-.004.478-.02.715-.05v1.719a5.95 5.95 0 0 1-1.207.1c-2.145 0-2.981-.808-2.981-2.871v-6.098h-1.54v-1.73h1.54v-2.517h2.184zM100.691 31.514c0-3.347 1.963-5.45 5.024-5.45 3.07 0 5.024 2.103 5.024 5.45 0 3.357-1.943 5.45-5.024 5.45-3.08 0-5.024-2.093-5.024-5.45zm7.833 0c0-2.296-1.048-3.65-2.81-3.65-1.761 0-2.808 1.365-2.808 3.65 0 2.306 1.047 3.65 2.809 3.65 1.761 0 2.81-1.344 2.81-3.65zM112.532 26.195h2.074v1.81h.05c.14-.565.47-1.065.934-1.415a2.519 2.519 0 0 1 1.614-.506c.25-.001.5.026.745.081v2.043a3.027 3.027 0 0 0-.977-.132 2.183 2.183 0 0 0-1.694.7 2.202 2.202 0 0 0-.572 1.747v6.31h-2.174V26.195zM127.973 33.708c-.293 1.932-2.165 3.257-4.561 3.257-3.081 0-4.994-2.074-4.994-5.4 0-3.337 1.923-5.501 4.903-5.501 2.93 0 4.773 2.022 4.773 5.247v.748h-7.481v.132a2.782 2.782 0 0 0 .747 2.153 2.758 2.758 0 0 0 2.102.86 2.388 2.388 0 0 0 1.47-.34c.441-.27.783-.675.976-1.156h2.065zm-7.35-3.175h5.296a2.568 2.568 0 0 0-.712-1.92 2.547 2.547 0 0 0-1.886-.78 2.671 2.671 0 0 0-1.91.786 2.694 2.694 0 0 0-.788 1.914zM44.809 16.176c1.626 0 2.817-.972 2.983-2.412h-1.24c-.171.79-.85 1.289-1.743 1.289-1.202 0-1.949-.987-1.949-2.578 0-1.587.747-2.574 1.944-2.574.888 0 1.567.547 1.743 1.392h1.24c-.146-1.47-1.382-2.515-2.983-2.515-1.997 0-3.233 1.411-3.233 3.701 0 2.28 1.24 3.697 3.238 3.697zM51.371 16.107c1.597 0 2.568-1.045 2.568-2.778 0-1.728-.976-2.778-2.568-2.778-1.587 0-2.568 1.054-2.568 2.778 0 1.733.967 2.778 2.568 2.778zm0-1.015c-.845 0-1.328-.645-1.328-1.763 0-1.113.483-1.763 1.328-1.763.84 0 1.323.65 1.323 1.763 0 1.118-.478 1.763-1.323 1.763zM55.16 16h1.211v-3.247c0-.654.444-1.148 1.045-1.148.596 0 .967.357.967.943V16h1.177v-3.325c0-.61.415-1.07 1.044-1.07.65 0 .977.342.977 1.03V16h1.206v-3.672c0-1.108-.644-1.777-1.714-1.777-.742 0-1.357.386-1.62.971h-.084c-.224-.6-.737-.971-1.474-.971-.708 0-1.255.361-1.485.971h-.083v-.864H55.16V16zM64.237 16h1.206v-5.342h-1.206V16zm.6-6.21c.445 0 .748-.284.748-.67 0-.386-.303-.669-.747-.669-.44 0-.747.283-.747.67 0 .385.307.668.747.668zM66.947 16h1.211v-3.11c0-.786.454-1.285 1.177-1.285.737 0 1.08.41 1.08 1.226V16h1.21v-3.457c0-1.274-.65-1.992-1.84-1.992-.797 0-1.334.366-1.588.962h-.083v-.855h-1.167V16zM75.356 14.936c-.845 0-1.324-.645-1.324-1.665 0-1.021.479-1.67 1.324-1.67.84 0 1.352.649 1.352 1.67 0 1.02-.508 1.665-1.352 1.665zm0 3.095c1.557 0 2.543-.776 2.543-2.011v-5.362h-1.167v.855h-.083c-.292-.581-.927-.943-1.655-.943-1.362 0-2.207 1.065-2.207 2.7 0 1.607.84 2.652 2.188 2.652.742 0 1.323-.313 1.63-.884h.084v1.01c0 .67-.484 1.06-1.314 1.06-.664 0-1.094-.234-1.172-.6h-1.216c.098.918.996 1.523 2.369 1.523zM81.933 12.187c0 .805.483 1.279 1.508 1.513l.948.22c.508.112.737.303.737.605 0 .396-.425.664-1.035.664-.606 0-.982-.234-1.099-.63h-1.196c.093.972.932 1.548 2.265 1.548 1.333 0 2.276-.683 2.276-1.709 0-.786-.474-1.225-1.494-1.455l-.943-.214c-.537-.123-.79-.308-.79-.61 0-.387.414-.65.966-.65.567 0 .923.239 1.01.615h1.139c-.088-.972-.884-1.533-2.154-1.533-1.26 0-2.138.669-2.138 1.636zM89.867 16.107c1.597 0 2.569-1.045 2.569-2.778 0-1.728-.977-2.778-2.569-2.778-1.587 0-2.568 1.054-2.568 2.778 0 1.733.967 2.778 2.568 2.778zm0-1.015c-.845 0-1.328-.645-1.328-1.763 0-1.113.483-1.763 1.328-1.763.84 0 1.323.65 1.323 1.763 0 1.118-.478 1.763-1.323 1.763zM95.96 16.107c1.598 0 2.57-1.045 2.57-2.778 0-1.728-.977-2.778-2.57-2.778-1.586 0-2.567 1.054-2.567 2.778 0 1.733.966 2.778 2.568 2.778zm0-1.015c-.844 0-1.327-.645-1.327-1.763 0-1.113.483-1.763 1.328-1.763.84 0 1.323.65 1.323 1.763 0 1.118-.478 1.763-1.323 1.763zM99.75 16h1.21v-3.11c0-.786.455-1.285 1.178-1.285.737 0 1.079.41 1.079 1.226V16h1.21v-3.457c0-1.274-.649-1.992-1.84-1.992-.796 0-1.333.366-1.587.962h-.083v-.855H99.75V16zM110.834 16.107c1.597 0 2.568-1.045 2.568-2.778 0-1.728-.976-2.778-2.568-2.778-1.587 0-2.568 1.054-2.568 2.778 0 1.733.966 2.778 2.568 2.778zm0-1.015c-.845 0-1.328-.645-1.328-1.763 0-1.113.483-1.763 1.328-1.763.84 0 1.323.65 1.323 1.763 0 1.118-.478 1.763-1.323 1.763zM114.623 16h1.211v-3.11c0-.786.454-1.285 1.177-1.285.737 0 1.079.41 1.079 1.226V16h1.21v-3.457c0-1.274-.649-1.992-1.84-1.992-.796 0-1.333.366-1.587.962h-.083v-.855h-1.167V16z" fill="#7B7F7E"/></svg><svg width="20" height="20" fill="none" viewBox="0 0 20 20" id="svg--arrow" x="180" y="80" xmlns="http://www.w3.org/2000/svg"><rect width="13" height="2" rx="1" transform="translate(3 9)" fill="#313131"/><path d="M15 10l-4-4M15 10l-4 4" stroke="#313131" stroke-width="2" stroke-linecap="round"/></svg><svg width="20" height="20" fill="none" viewBox="0 0 20 20" id="svg--close" x="160" y="80" xmlns="http://www.w3.org/2000/svg"><path fill="#000" d="M3 2l14.142 14.142-1.414 1.414L1.586 3.414z"/><path fill="#000" d="M2 16L16.142 1.858l1.414 1.414L3.414 17.414z"/></svg><svg width="100" height="100" fill="none" viewBox="0 0 100 100" id="svg--comunity" y="134" xmlns="http://www.w3.org/2000/svg"><g clip-path="url(#eclip0)"><path fill-rule="evenodd" clip-rule="evenodd" d="M17.503 62c0-6.229 3.47-11.955 9.254-16.162C32.54 41.632 40.58 39 49.503 39c8.925 0 16.963 2.632 22.747 6.838 5.784 4.207 9.253 9.933 9.253 16.162 0 .335-.01.668-.03 1h2.004c.017-.331.026-.665.026-1 0-7.026-3.917-13.3-10.077-17.78S58.804 37 49.503 37c-9.3 0-17.762 2.74-23.922 7.22C19.42 48.7 15.503 54.975 15.503 62c0 .674.036 1.34.107 2h2.013c-.08-.66-.12-1.327-.12-2zm3.903 11h-2.453c1.693 2.542 3.948 4.83 6.628 6.78C31.74 84.26 40.202 87 49.503 87s17.763-2.74 23.923-7.22c3.027-2.202 5.512-4.836 7.257-7.78h-2.366c-1.537 2.28-3.59 4.36-6.067 6.162C66.466 82.368 58.428 85 49.503 85c-8.924 0-16.963-2.632-22.746-6.838-2.11-1.535-3.913-3.272-5.35-5.162z" fill="#064DD6"/><path d="M49.503 30c5.523 0 10-4.477 10-10s-4.477-10-10-10c-5.522 0-10 4.477-10 10s4.478 10 10 10z" fill="#fff" stroke="#064DD6" stroke-width="4"/><path fill-rule="evenodd" clip-rule="evenodd" d="M50.005 49c5.362 0 9.726-.749 13.092-2.217a4 4 0 0 0 2.322-4.459l-1.16-5.737a3 3 0 0 0-3.454-2.361c-2.983.518-6.58.774-10.8.774-4.495 0-8.422-.29-11.79-.877a3 3 0 0 0-3.454 2.361l-1.173 5.802a4 4 0 0 0 2.37 4.48C39.474 48.244 44.159 49 50.005 49z" fill="#fff" stroke="#064DD6" stroke-width="4"/><path d="M81.33 65.992c5.5.482 10.351-3.588 10.833-9.09.481-5.502-3.589-10.352-9.09-10.834-5.503-.481-10.353 3.589-10.834 9.09-.482 5.503 3.588 10.353 9.09 10.834z" fill="#fff" stroke="#064DD6" stroke-width="4"/><path fill-rule="evenodd" clip-rule="evenodd" d="M80.26 84.968c5.341.467 9.755.101 13.236-1.068a4 4 0 0 0 2.701-4.24l-.655-5.816a3 3 0 0 0-3.235-2.653c-3.017.256-6.622.198-10.827-.17-4.477-.392-8.365-1.024-11.668-1.901a3 3 0 0 0-3.647 2.05l-1.675 5.678a4 4 0 0 0 1.971 4.67c3.374 1.78 7.976 2.94 13.799 3.45z" fill="#fff" stroke="#064DD6" stroke-width="4"/><path d="M17.678 65.993c5.502-.482 9.571-5.332 9.09-10.834-.481-5.502-5.332-9.572-10.833-9.09-5.502.481-9.572 5.331-9.09 10.833.48 5.502 5.33 9.572 10.833 9.09z" fill="#fff" stroke="#064DD6" stroke-width="4"/><path fill-rule="evenodd" clip-rule="evenodd" d="M19.746 84.88c5.341-.467 9.624-1.594 12.85-3.35a4 4 0 0 0 1.924-4.644l-1.656-5.614a3 3 0 0 0-3.647-2.051c-2.926.776-6.487 1.345-10.69 1.712-4.478.392-8.417.445-11.822.155A3 3 0 0 0 3.47 73.74l-.663 5.881a4 4 0 0 0 2.752 4.257c3.631 1.166 8.365 1.51 14.188 1.001z" fill="#fff" stroke="#064DD6" stroke-width="4"/></g><defs><clipPath id="eclip0"><path fill="#fff" d="M0 0h100v100H0z"/></clipPath></defs></svg><svg width="24" height="24" fill="none" viewBox="0 0 24 24" id="svg--facebook-logo" x="353" y="172" xmlns="http://www.w3.org/2000/svg"><path d="M20.897 2H3.103C2.494 2 2 2.494 2 3.103v17.794C2 21.507 2.494 22 3.103 22h9.579v-7.745h-2.608v-3.018h2.608V9.009c0-2.582 1.578-3.987 3.882-3.987 1.104 0 2.053.08 2.33.117v2.7h-1.6c-1.25 0-1.494.601-1.494 1.476v1.926h2.987l-.388 3.025H15.8V22h5.096c.61 0 1.104-.493 1.104-1.103V3.103C22 2.494 21.507 2 20.897 2z" fill="#fff"/></svg><svg width="24" height="24" fill="none" viewBox="0 0 24 24" id="svg--github-logo" x="319" y="196" xmlns="http://www.w3.org/2000/svg"><path d="M12 2C6.475 2 2 6.478 2 12a9.998 9.998 0 0 0 6.838 9.488c.5.094.683-.215.683-.481 0-.238-.009-.867-.013-1.7-2.781.603-3.368-1.342-3.368-1.342-.455-1.154-1.112-1.463-1.112-1.463-.906-.62.07-.607.07-.607 1.004.07 1.531 1.03 1.531 1.03.892 1.53 2.341 1.087 2.913.832.09-.647.347-1.088.633-1.338-2.22-.25-4.555-1.11-4.555-4.942 0-1.091.388-1.983 1.03-2.683-.113-.252-.45-1.269.087-2.647 0 0 .837-.268 2.75 1.025.8-.222 1.65-.332 2.5-.337.85.005 1.7.115 2.5.337 1.9-1.293 2.737-1.025 2.737-1.025.538 1.378.2 2.395.1 2.647.638.7 1.025 1.592 1.025 2.683 0 3.842-2.337 4.688-4.562 4.934.35.3.675.913.675 1.85 0 1.338-.013 2.413-.013 2.738 0 .263.175.575.688.475A9.966 9.966 0 0 0 22 12c0-5.523-4.478-10-10-10z" fill="#fff"/></svg><svg width="135" height="40" fill="none" viewBox="0 0 135 40" id="svg--google-play-badge-2" x="160" xmlns="http://www.w3.org/2000/svg"><path fill-rule="evenodd" clip-rule="evenodd" d="M130 40H5c-2.75 0-5-2.25-5-5V5c0-2.75 2.25-5 5-5h125c2.75 0 5 2.25 5 5v30c0 2.75-2.25 5-5 5z" fill="#fff"/><path fill-rule="evenodd" clip-rule="evenodd" d="M5 38.298h125A3.313 3.313 0 0 0 133.298 35V5A3.313 3.313 0 0 0 130 1.702H5A3.313 3.313 0 0 0 1.702 5v30A3.313 3.313 0 0 0 5 38.298zM5 40h125c2.75 0 5-2.25 5-5V5c0-2.75-2.25-5-5-5H5C2.25 0 0 2.25 0 5v30c0 2.75 2.25 5 5 5z" fill="#E1E2E1"/><path d="M44.092 12.916c1.384 0 2.398-.827 2.54-2.053h-1.056c-.146.673-.723 1.097-1.484 1.097-1.022 0-1.658-.84-1.658-2.194 0-1.35.636-2.19 1.654-2.19.757 0 1.334.465 1.484 1.184h1.055c-.124-1.25-1.176-2.14-2.539-2.14-1.7 0-2.75 1.2-2.75 3.15 0 1.94 1.055 3.146 2.754 3.146zM50.413 6.62c-1.741 0-2.842 1.21-2.842 3.146s1.08 3.15 2.842 3.15c1.75 0 2.83-1.218 2.83-3.15 0-1.937-1.089-3.146-2.83-3.146zm0 .951c1.064 0 1.733.852 1.733 2.195 0 1.338-.665 2.198-1.733 2.198-1.085 0-1.745-.86-1.745-2.198 0-1.343.677-2.195 1.745-2.195zM60.665 12.766V6.769H59.41l-1.804 4.368h-.075l-1.803-4.368h-1.255v5.997h.997V8.548h.059l1.658 3.985h.764l1.658-3.985h.058v4.218h.998zM63.216 12.766V6.769h-1.072v5.997h1.072zM65.73 12.766v-4.08h.071l2.942 4.08h.927V6.769h-1.03v4.077h-.071L65.627 6.77h-.931v5.997h1.034zM76.34 10.364v-.752h-2.49v.84h1.443l-.005.124c-.016.827-.64 1.384-1.554 1.384-1.068 0-1.737-.84-1.737-2.203 0-1.346.657-2.181 1.704-2.181.769 0 1.305.378 1.52 1.06h1.069c-.191-1.227-1.205-2.016-2.59-2.016-1.707 0-2.8 1.226-2.8 3.146 0 1.944 1.08 3.15 2.817 3.15 1.6 0 2.623-.994 2.623-2.552zM79.581 11.137c.054 1.089.964 1.779 2.34 1.779 1.454 0 2.356-.728 2.356-1.895 0-.915-.511-1.422-1.729-1.696l-.69-.158c-.744-.17-1.047-.407-1.047-.81 0-.511.457-.844 1.147-.844.657 0 1.122.333 1.197.86h1.026c-.05-1.03-.96-1.753-2.219-1.753-1.342 0-2.231.723-2.231 1.812 0 .893.51 1.433 1.6 1.679l.777.178c.768.179 1.097.432 1.097.865 0 .502-.511.864-1.218.864-.76 0-1.292-.345-1.359-.881h-1.047zM88.07 6.62c-1.74 0-2.841 1.21-2.841 3.146s1.08 3.15 2.842 3.15c1.75 0 2.83-1.218 2.83-3.15 0-1.937-1.089-3.146-2.83-3.146zm0 .951c1.065 0 1.734.852 1.734 2.195 0 1.338-.665 2.198-1.733 2.198-1.085 0-1.745-.86-1.745-2.198 0-1.343.677-2.195 1.745-2.195zM94.72 6.62c-1.741 0-2.843 1.21-2.843 3.146s1.08 3.15 2.843 3.15c1.75 0 2.83-1.218 2.83-3.15 0-1.937-1.089-3.146-2.83-3.146zm0 .951c1.064 0 1.733.852 1.733 2.195 0 1.338-.665 2.198-1.733 2.198-1.085 0-1.745-.86-1.745-2.198 0-1.343.677-2.195 1.745-2.195zM99.815 12.766v-4.08h.07l2.942 4.08h.927V6.769h-1.03v4.077h-.071L99.71 6.77h-.931v5.997h1.035zM110.096 6.62c-1.742 0-2.843 1.21-2.843 3.146s1.08 3.15 2.843 3.15c1.749 0 2.83-1.218 2.83-3.15 0-1.937-1.09-3.146-2.83-3.146zm0 .951c1.063 0 1.732.852 1.732 2.195 0 1.338-.664 2.198-1.732 2.198-1.085 0-1.746-.86-1.746-2.198 0-1.343.678-2.195 1.746-2.195zM115.19 12.766v-4.08h.07l2.943 4.08h.927V6.769h-1.03v4.077h-.071l-2.943-4.077h-.93v5.997h1.034z" fill="#7B7F7E"/><path fill-rule="evenodd" clip-rule="evenodd" d="M106.936 31.702h1.866v-12.5h-1.866v12.5zm16.807-7.998l-2.139 5.42h-.064l-2.22-5.42h-2.01l3.329 7.575-1.898 4.214h1.947l5.13-11.789h-2.075zm-10.582 6.578c-.612 0-1.464-.305-1.464-1.06 0-.966 1.062-1.336 1.978-1.336.821 0 1.206.177 1.705.418a2.262 2.262 0 0 1-2.219 1.978zm.225-6.85c-1.351 0-2.75.594-3.329 1.913l1.656.691c.354-.69 1.013-.917 1.705-.917.965 0 1.946.58 1.962 1.61v.127c-.338-.193-1.061-.482-1.946-.482-1.785 0-3.603.981-3.603 2.814 0 1.673 1.464 2.751 3.104 2.751 1.255 0 1.946-.563 2.381-1.223h.064v.965h1.801V26.89c0-2.22-1.656-3.458-3.795-3.458zm-11.532 1.794H99.2v-4.285h2.654c1.395 0 2.187 1.155 2.187 2.142 0 .97-.792 2.143-2.187 2.143zm-.048-6.025h-4.471v12.501H99.2v-4.736h2.606c2.068 0 4.101-1.498 4.101-3.883s-2.033-3.882-4.101-3.882zM77.425 30.284c-1.289 0-2.368-1.079-2.368-2.56 0-1.499 1.079-2.595 2.368-2.595 1.273 0 2.271 1.096 2.271 2.594 0 1.482-.998 2.561-2.271 2.561zm2.142-5.88h-.064c-.419-.499-1.224-.95-2.239-.95-2.127 0-4.076 1.868-4.076 4.27 0 2.383 1.949 4.236 4.076 4.236 1.015 0 1.82-.45 2.239-.967h.064v.612c0 1.628-.869 2.498-2.271 2.498-1.144 0-1.853-.822-2.143-1.515l-1.627.677c.467 1.128 1.708 2.513 3.77 2.513 2.191 0 4.044-1.289 4.044-4.43v-7.637h-1.773v.693zm3.062 7.298h1.869V19.2h-1.869v12.502zm4.623-4.124c-.048-1.643 1.273-2.48 2.223-2.48.742 0 1.37.37 1.579.901l-3.802 1.58zm5.8-1.418c-.354-.95-1.434-2.706-3.641-2.706-2.191 0-4.011 1.723-4.011 4.253 0 2.384 1.804 4.253 4.22 4.253 1.95 0 3.078-1.192 3.545-1.885l-1.45-.967c-.483.71-1.144 1.176-2.095 1.176-.95 0-1.627-.435-2.062-1.288l5.687-2.352-.193-.484zm-45.308-1.4v1.803h4.317c-.129 1.015-.467 1.756-.982 2.272-.629.628-1.612 1.32-3.335 1.32-2.658 0-4.737-2.142-4.737-4.8 0-2.659 2.079-4.8 4.737-4.8 1.434 0 2.481.563 3.254 1.288l1.273-1.273c-1.08-1.03-2.513-1.82-4.527-1.82-3.641 0-6.702 2.964-6.702 6.605 0 3.641 3.061 6.605 6.702 6.605 1.965 0 3.447-.644 4.607-1.853 1.192-1.192 1.563-2.867 1.563-4.22 0-.42-.032-.806-.097-1.128h-6.073zm11.079 5.524c-1.289 0-2.401-1.063-2.401-2.577 0-1.53 1.112-2.578 2.401-2.578 1.288 0 2.4 1.047 2.4 2.578 0 1.514-1.112 2.577-2.4 2.577zm0-6.83c-2.353 0-4.27 1.788-4.27 4.253 0 2.448 1.917 4.253 4.27 4.253 2.352 0 4.269-1.805 4.269-4.253 0-2.465-1.917-4.253-4.269-4.253zm9.313 6.83c-1.289 0-2.401-1.063-2.401-2.577 0-1.53 1.112-2.578 2.401-2.578 1.289 0 2.4 1.047 2.4 2.578 0 1.514-1.111 2.577-2.4 2.577zm0-6.83c-2.352 0-4.269 1.788-4.269 4.253 0 2.448 1.917 4.253 4.269 4.253 2.352 0 4.269-1.805 4.269-4.253 0-2.465-1.917-4.253-4.269-4.253zM10.435 7.547c-.291.308-.462.785-.462 1.404v22.098c0 .619.17 1.096.462 1.404l.074.072 12.379-12.379v-.292L10.508 7.475l-.073.072z" fill="#7B7F7E"/><mask id="ha" maskUnits="userSpaceOnUse" x="22" y="15" width="12" height="10"><path d="M4.125 8.547L0 4.419v-.292L4.127 0l4.982 2.83c1.396.794 1.396 2.092 0 2.885L4.22 8.493l-.095.054z" transform="translate(22.888 15.727)" fill="#7B7F7E" fill-opacity=".6"/></mask><g mask="url(#ha)"><path fill-rule="evenodd" clip-rule="evenodd" d="M27.013 24.274l-4.125-4.128v-.292l4.127-4.127 4.982 2.83c1.396.794 1.396 2.092 0 2.885l-4.89 2.778-.094.054z" fill="#7B7F7E" fill-opacity=".6"/></g><mask id="hb" maskUnits="userSpaceOnUse" x="10" y="20" width="18" height="13"><path d="M16.673 4.22L12.453 0 0 12.453c.461.487 1.221.547 2.077.061L16.673 4.22z" transform="translate(10.435 20)" fill="#7B7F7E" fill-opacity=".7"/></mask><g mask="url(#hb)"><path fill-rule="evenodd" clip-rule="evenodd" d="M27.108 24.22L22.888 20 10.435 32.453c.46.487 1.22.547 2.077.061l14.596-8.294z" fill="#7B7F7E" fill-opacity=".7"/></g><mask id="hc" maskUnits="userSpaceOnUse" x="10" y="7" width="18" height="14"><path d="M16.673 8.63L2.077.336C1.221-.15.461-.09 0 .396L12.453 12.85l4.22-4.22z" transform="translate(10.435 7.15)" fill="#7B7F7E" fill-opacity=".8"/></mask><g mask="url(#hc)"><path fill-rule="evenodd" clip-rule="evenodd" d="M27.108 15.78L12.512 7.486c-.856-.486-1.616-.426-2.077.061L22.888 20l4.22-4.22z" fill="#7B7F7E" fill-opacity=".8"/></g></svg><svg width="159" height="47" fill="none" viewBox="0 0 159 47" id="svg--google-play-m" y="40" xmlns="http://www.w3.org/2000/svg"><path fill-rule="evenodd" clip-rule="evenodd" d="M152.75 47H5.875C2.644 47 0 44.356 0 41.125V5.875C0 2.644 2.644 0 5.875 0H152.75c3.231 0 5.875 2.644 5.875 5.875v35.25c0 3.231-2.644 5.875-5.875 5.875z" fill="#fff"/><path fill-rule="evenodd" clip-rule="evenodd" d="M5.875 45H152.75a3.892 3.892 0 0 0 3.875-3.875V5.875A3.892 3.892 0 0 0 152.75 2H5.875A3.892 3.892 0 0 0 2 5.875v35.25A3.892 3.892 0 0 0 5.875 45zm0 2H152.75c3.231 0 5.875-2.644 5.875-5.875V5.875c0-3.231-2.644-5.875-5.875-5.875H5.875C2.644 0 0 2.644 0 5.875v35.25C0 44.356 2.644 47 5.875 47z" fill="#E1E2E1"/><path d="M51.809 15.176c1.626 0 2.817-.972 2.983-2.412h-1.24c-.171.79-.85 1.289-1.743 1.289-1.202 0-1.949-.987-1.949-2.578 0-1.587.747-2.574 1.944-2.574.888 0 1.567.547 1.743 1.392h1.24c-.146-1.47-1.382-2.515-2.983-2.515-1.997 0-3.233 1.411-3.233 3.701 0 2.28 1.24 3.697 3.238 3.697zM59.235 7.778c-2.046 0-3.34 1.421-3.34 3.697 0 2.275 1.27 3.7 3.34 3.7 2.056 0 3.326-1.43 3.326-3.7 0-2.276-1.28-3.697-3.326-3.697zm0 1.118c1.25 0 2.037 1.001 2.037 2.579 0 1.572-.782 2.583-2.037 2.583-1.274 0-2.05-1.011-2.05-2.583 0-1.578.795-2.579 2.05-2.579zM71.281 15V7.954h-1.474l-2.12 5.132H67.6l-2.12-5.132h-1.474V15h1.172v-4.956h.068l1.948 4.683h.899l1.948-4.683h.068V15h1.172zM74.28 15V7.954h-1.26V15h1.26zM77.233 15v-4.795h.083L80.773 15h1.09V7.954H80.65v4.79h-.083l-3.457-4.79h-1.093V15h1.215zM89.7 12.178v-.884h-2.926v.986h1.695l-.005.147c-.02.971-.752 1.626-1.826 1.626-1.255 0-2.041-.987-2.041-2.588 0-1.582.771-2.564 2.002-2.564.903 0 1.533.445 1.787 1.245h1.255c-.225-1.44-1.416-2.368-3.042-2.368-2.007 0-3.291 1.44-3.291 3.697 0 2.285 1.27 3.7 3.31 3.7 1.88 0 3.081-1.166 3.081-2.997zM93.508 13.086c.063 1.28 1.133 2.09 2.749 2.09 1.709 0 2.768-.855 2.768-2.227 0-1.074-.6-1.67-2.03-1.992l-.811-.186c-.874-.2-1.23-.478-1.23-.952 0-.6.536-.99 1.347-.99.771 0 1.318.39 1.406 1.01h1.206c-.059-1.211-1.128-2.06-2.607-2.06-1.578 0-2.622.849-2.622 2.128 0 1.05.6 1.685 1.88 1.973l.913.21c.903.21 1.289.508 1.289 1.015 0 .591-.6 1.016-1.431 1.016-.894 0-1.519-.405-1.597-1.035h-1.23zM103.483 7.778c-2.046 0-3.34 1.421-3.34 3.697 0 2.275 1.27 3.7 3.34 3.7 2.056 0 3.326-1.43 3.326-3.7 0-2.276-1.28-3.697-3.326-3.697zm0 1.118c1.25 0 2.036 1.001 2.036 2.579 0 1.572-.78 2.583-2.036 2.583-1.274 0-2.05-1.011-2.05-2.583 0-1.578.795-2.579 2.05-2.579zM111.296 7.778c-2.046 0-3.34 1.421-3.34 3.697 0 2.275 1.27 3.7 3.34 3.7 2.056 0 3.325-1.43 3.325-3.7 0-2.276-1.28-3.697-3.325-3.697zm0 1.118c1.25 0 2.036 1.001 2.036 2.579 0 1.572-.781 2.583-2.036 2.583-1.275 0-2.05-1.011-2.05-2.583 0-1.578.795-2.579 2.05-2.579zM117.282 15v-4.795h.083L120.822 15h1.09V7.954H120.7v4.79h-.083l-3.457-4.79h-1.094V15h1.216zM129.362 7.778c-2.046 0-3.34 1.421-3.34 3.697 0 2.275 1.27 3.7 3.34 3.7 2.056 0 3.326-1.43 3.326-3.7 0-2.276-1.28-3.697-3.326-3.697zm0 1.118c1.25 0 2.036 1.001 2.036 2.579 0 1.572-.78 2.583-2.036 2.583-1.274 0-2.05-1.011-2.05-2.583 0-1.578.795-2.579 2.05-2.579zM135.349 15v-4.795h.083L138.889 15h1.089V7.954h-1.211v4.79h-.083l-3.457-4.79h-1.094V15h1.216z" fill="#7B7F7E"/><path fill-rule="evenodd" clip-rule="evenodd" d="M125.65 37.25h2.192V22.561h-2.192v14.69zm19.748-9.398l-2.513 6.369h-.076l-2.608-6.369h-2.362l3.912 8.901-2.23 4.951h2.288l6.027-13.852h-2.438zm-12.434 7.73c-.719 0-1.72-.359-1.72-1.247 0-1.134 1.248-1.569 2.324-1.569.965 0 1.417.208 2.003.491a2.658 2.658 0 0 1-2.607 2.325zm.265-8.05c-1.588 0-3.232.699-3.912 2.249l1.946.812c.416-.812 1.19-1.078 2.003-1.078 1.134 0 2.287.68 2.306 1.89v.151c-.398-.227-1.247-.566-2.287-.566-2.097 0-4.233 1.152-4.233 3.306 0 1.966 1.72 3.233 3.647 3.233 1.474 0 2.286-.662 2.797-1.438h.076v1.134h2.116v-5.63c0-2.609-1.946-4.063-4.46-4.063zm-13.55 2.109h-3.119v-5.035h3.118c1.64 0 2.57 1.357 2.57 2.517 0 1.138-.93 2.518-2.57 2.518zm-.057-7.08h-5.253v14.69h2.191v-5.566h3.062c2.43 0 4.819-1.76 4.819-4.562 0-2.803-2.389-4.562-4.819-4.562zM90.974 35.584c-1.514 0-2.782-1.268-2.782-3.01 0-1.76 1.268-3.047 2.782-3.047 1.496 0 2.669 1.288 2.669 3.048 0 1.741-1.173 3.009-2.669 3.009zm2.517-6.91h-.075c-.492-.585-1.438-1.115-2.63-1.115-2.5 0-4.79 2.195-4.79 5.016 0 2.8 2.29 4.978 4.79 4.978 1.192 0 2.138-.53 2.63-1.136h.075v.72c0 1.912-1.02 2.934-2.668 2.934-1.344 0-2.177-.966-2.518-1.78l-1.912.796c.549 1.325 2.007 2.952 4.43 2.952 2.574 0 4.752-1.514 4.752-5.205v-8.973H93.49v.814zm3.598 8.576h2.196V22.56H97.09v14.69zm5.432-4.846c-.056-1.93 1.496-2.915 2.612-2.915.872 0 1.61.435 1.856 1.06l-4.468 1.855zm6.815-1.666c-.416-1.116-1.685-3.18-4.278-3.18-2.574 0-4.713 2.025-4.713 4.998 0 2.801 2.12 4.997 4.959 4.997 2.29 0 3.616-1.4 4.165-2.215l-1.704-1.136c-.567.833-1.344 1.382-2.461 1.382-1.117 0-1.912-.511-2.423-1.514l6.682-2.763-.227-.569zM56.1 29.092v2.12h5.073c-.152 1.192-.549 2.063-1.154 2.67-.74.737-1.894 1.55-3.919 1.55-3.123 0-5.566-2.517-5.566-5.64 0-3.124 2.443-5.64 5.566-5.64 1.685 0 2.915.662 3.824 1.514l1.495-1.496c-1.268-1.211-2.952-2.14-5.319-2.14-4.278 0-7.875 3.484-7.875 7.762s3.597 7.761 7.875 7.761c2.31 0 4.05-.757 5.414-2.177 1.4-1.4 1.836-3.369 1.836-4.96 0-.492-.038-.946-.114-1.324h-7.136zm13.018 6.492c-1.514 0-2.821-1.25-2.821-3.028 0-1.799 1.306-3.03 2.821-3.03 1.514 0 2.82 1.231 2.82 3.03 0 1.779-1.306 3.028-2.82 3.028zm0-8.025c-2.765 0-5.017 2.1-5.017 4.997 0 2.876 2.252 4.997 5.017 4.997 2.764 0 5.016-2.12 5.016-4.997 0-2.896-2.252-4.997-5.016-4.997zm10.943 8.025c-1.515 0-2.821-1.25-2.821-3.028 0-1.799 1.306-3.03 2.82-3.03 1.515 0 2.82 1.231 2.82 3.03 0 1.779-1.305 3.028-2.82 3.028zm0-8.025c-2.764 0-5.016 2.1-5.016 4.997 0 2.876 2.252 4.997 5.016 4.997 2.763 0 5.016-2.12 5.016-4.997 0-2.896-2.252-4.997-5.016-4.997zM12.261 8.868c-.342.362-.543.922-.543 1.65v25.964c0 .728.201 1.288.543 1.65l.087.085L26.893 23.67v-.343L12.348 8.783l-.087.085z" fill="#7B7F7E"/><mask id="ia" maskUnits="userSpaceOnUse" x="26" y="18" width="13" height="11"><path d="M4.847 10.043L0 5.193v-.344L4.85 0l5.853 3.325c1.64.933 1.64 2.458 0 3.39L4.96 9.98l-.112.064z" transform="translate(26.893 18.48)" fill="#7B7F7E" fill-opacity=".6"/></mask><g mask="url(#ia)"><path fill-rule="evenodd" clip-rule="evenodd" d="M31.74 28.522l-4.847-4.85v-.344l4.85-4.849 5.853 3.325c1.64.933 1.64 2.459 0 3.39l-5.744 3.264-.112.064z" fill="#7B7F7E" fill-opacity=".6"/></g><mask id="ib" maskUnits="userSpaceOnUse" x="12" y="23" width="20" height="16"><path d="M19.59 4.958L14.633 0 0 14.632c.542.572 1.435.643 2.44.072l17.15-9.745z" transform="translate(12.261 23.5)" fill="#7B7F7E" fill-opacity=".7"/></mask><g mask="url(#ib)"><path fill-rule="evenodd" clip-rule="evenodd" d="M31.852 28.459L26.893 23.5 12.261 38.132c.542.573 1.435.643 2.44.072l17.15-9.745z" fill="#7B7F7E" fill-opacity=".7"/></g><mask id="ic" maskUnits="userSpaceOnUse" x="12" y="8" width="20" height="16"><path d="M19.59 10.14L2.44.395C1.435-.177.542-.106 0 .466l14.632 14.632 4.959-4.958z" transform="translate(12.261 8.402)" fill="#7B7F7E" fill-opacity=".8"/></mask><g mask="url(#ic)"><path fill-rule="evenodd" clip-rule="evenodd" d="M31.852 18.542l-17.15-9.746c-1.006-.57-1.9-.5-2.44.072L26.892 23.5l4.959-4.958z" fill="#7B7F7E" fill-opacity=".8"/></g></svg><svg width="24" height="24" fill="none" viewBox="0 0 24 24" id="svg--instagram-logo" x="295" y="196" xmlns="http://www.w3.org/2000/svg"><path d="M12 2c-2.717 0-3.056.013-4.122.06-1.066.05-1.79.218-2.428.465a4.897 4.897 0 0 0-1.772 1.153A4.88 4.88 0 0 0 2.525 5.45c-.248.638-.416 1.362-.465 2.428C2.01 8.944 2 9.283 2 12c0 2.717.012 3.056.06 4.123.05 1.064.217 1.79.465 2.427a4.905 4.905 0 0 0 1.153 1.772 4.89 4.89 0 0 0 1.772 1.153c.638.247 1.363.416 2.427.465 1.067.05 1.406.06 4.123.06 2.717 0 3.056-.012 4.123-.06 1.064-.05 1.79-.218 2.427-.465a4.915 4.915 0 0 0 1.772-1.153c.555-.556.899-1.113 1.153-1.772.247-.637.416-1.363.465-2.427.05-1.067.06-1.406.06-4.123 0-2.717-.012-3.056-.06-4.122-.05-1.065-.218-1.791-.465-2.428a4.908 4.908 0 0 0-1.153-1.772 4.873 4.873 0 0 0-1.772-1.153c-.637-.247-1.363-.416-2.427-.465C15.056 2.01 14.717 2 12 2zm0 1.8c2.67 0 2.988.013 4.042.06.975.045 1.504.207 1.855.345.469.18.8.397 1.152.747.35.35.566.682.747 1.15.137.352.3.881.344 1.856.047 1.055.058 1.372.058 4.042s-.012 2.988-.061 4.042c-.051.975-.214 1.504-.351 1.855-.187.469-.4.8-.75 1.152a3.12 3.12 0 0 1-1.15.747c-.35.137-.887.3-1.862.344-1.062.047-1.374.058-4.049.058-2.676 0-2.988-.012-4.05-.061-.975-.051-1.513-.214-1.862-.351-.475-.187-.8-.4-1.15-.75a3.037 3.037 0 0 1-.75-1.15c-.137-.35-.299-.887-.35-1.862-.037-1.05-.05-1.374-.05-4.037s.013-2.988.05-4.05c.051-.975.213-1.512.35-1.862.175-.475.4-.8.75-1.15.35-.35.675-.575 1.15-.75.35-.138.875-.3 1.85-.35 1.063-.038 1.375-.05 4.05-.05L12 3.8zm0 3.065a5.135 5.135 0 1 0 0 10.27 5.135 5.135 0 0 0 0-10.27zm0 8.468A3.332 3.332 0 1 1 15.333 12 3.332 3.332 0 0 1 12 15.333zm6.538-8.67a1.2 1.2 0 0 1-2.4 0 1.2 1.2 0 0 1 2.4 0z" fill="#fff"/></svg><svg width="24" height="24" fill="none" viewBox="0 0 24 24" id="svg--linkedin-logo" x="343" y="196" xmlns="http://www.w3.org/2000/svg"><path d="M19.04 19.043h-2.962v-4.64c0-1.107-.023-2.531-1.544-2.531-1.544 0-1.78 1.204-1.78 2.449v4.722H9.793V9.5h2.845v1.3h.038c.397-.75 1.364-1.54 2.808-1.54 3.001 0 3.556 1.974 3.556 4.545v5.238zM6.447 8.194c-.954 0-1.72-.772-1.72-1.72a1.72 1.72 0 1 1 1.72 1.72zm1.484 10.85h-2.97V9.5h2.97v9.543zM20.521 2H3.476C2.66 2 2 2.645 2 3.44v17.12c0 .796.66 1.44 1.476 1.44h17.042c.815 0 1.482-.644 1.482-1.44V3.44C22 2.646 21.333 2 20.518 2h.003z" fill="#fff"/></svg><svg width="160" height="40" viewBox="0 0 160 40" fill="none" id="svg--logo-myetherwallet"  xmlns="http://www.w3.org/2000/svg"><path d="M20 40C8.9543 40 0 31.0457 0 20C0 8.9543 8.9543 0 20 0C31.0457 0 40 8.9543 40 20C40 31.0457 31.0457 40 20 40ZM21.4625 26.475C20.9832 26.5879 20.4924 26.6446 20 26.6438C16.5125 26.6438 13.5437 23.9875 13.3313 20.0438C13.3819 19.2907 13.5012 18.5439 13.6875 17.8125L8.275 15.5125C7.71044 17.0541 7.42269 18.6833 7.425 20.325C7.425 27.0875 13.2188 32.5687 19.9812 32.5687C21.5374 32.5714 23.0796 32.2766 24.525 31.7L21.4625 26.475ZM20 7.43125C18.2422 7.42874 16.5046 7.8061 14.9062 8.5375L17.9437 13.7C18.6053 13.4721 19.3003 13.356 20 13.3563C23.0875 13.3563 26.3625 15.9438 26.675 19.1313L17.8937 19.1688L31.5875 25C32.2712 23.3542 32.5951 21.5812 32.5375 19.8C32.5375 13.0125 26.7625 7.43125 20 7.43125Z" fill="white"/><path d="M58.8524 24.6923V17.6478L56.0567 22.8956H54.9013L52.1056 17.6478V24.6923H50V14.0495H52.2606L55.4665 20.1073L58.7024 14.0495H60.948V24.6923H58.8524ZM63.3536 26.219C63.5177 26.2672 63.6848 26.3049 63.8538 26.332C63.9893 26.355 64.1264 26.3682 64.2639 26.3712C64.3896 26.3727 64.5141 26.3476 64.629 26.2976C64.7521 26.2385 64.8572 26.1488 64.9341 26.0374C65.0454 25.8764 65.1377 25.7035 65.2092 25.522C65.2992 25.3027 65.3959 25.0278 65.4992 24.6972L62.3384 16.8427H64.4439L66.5995 22.9447L68.5251 16.828H70.4506L67.0897 26.2436C66.9031 26.7826 66.5543 27.2533 66.0894 27.5936C65.5874 27.9555 64.9765 28.1421 64.3539 28.1238C64.1864 28.1231 64.0192 28.1099 63.8538 28.0845C63.6754 28.0567 63.4997 28.014 63.3286 27.9569V26.219H63.3536ZM79.443 22.876V24.6874H71.916V14.0495H79.308V15.8609H74.0215V18.4234H78.5878V20.1023H74.0215V22.876H79.443ZM85.6297 24.2849C85.3037 24.4233 84.9697 24.543 84.6294 24.6432C84.2243 24.7648 83.8028 24.826 83.3791 24.8249C83.1088 24.8271 82.8395 24.7925 82.5789 24.7218C82.3384 24.6559 82.1151 24.5404 81.9237 24.3831C81.729 24.2198 81.575 24.0149 81.4736 23.7841C81.3531 23.5015 81.2952 23.197 81.3035 22.8907V18.3793H80.2483V16.8378H81.3035V14.29H83.3591V16.8378H85.0396V18.3793H83.3591V22.2182C83.334 22.439 83.4154 22.6587 83.5792 22.8122C83.7336 22.9288 83.9245 22.9895 84.1193 22.984C84.3321 22.9846 84.5435 22.9497 84.7445 22.8809C84.9479 22.8122 85.1146 22.7516 85.2446 22.6992L85.6297 24.2849ZM94.2871 24.6923H92.2415V20.2742C92.2795 19.7924 92.1566 19.3116 91.8914 18.9045C91.6517 18.6056 91.2781 18.4406 90.8912 18.4627C90.6919 18.4654 90.495 18.5054 90.311 18.5805C90.1015 18.6644 89.9059 18.7786 89.7308 18.9193C89.543 19.0701 89.375 19.2432 89.2307 19.4347C89.0794 19.6323 88.9658 19.8552 88.8956 20.0925V24.6776H86.8601V13.75H88.9056V18.2909C89.1856 17.7957 89.6015 17.3876 90.1059 17.1127C90.6172 16.8362 91.1927 16.6942 91.7764 16.7004C92.2136 16.6826 92.6485 16.772 93.0417 16.9605C93.3552 17.1223 93.6192 17.3629 93.8069 17.6576C93.9941 17.9592 94.1229 18.292 94.187 18.6394C94.2582 19.015 94.2933 19.3963 94.2921 19.7783V24.6874L94.2871 24.6923ZM99.9386 24.8396C99.3422 24.8474 98.7503 24.7372 98.1981 24.5156C97.2013 24.1172 96.4148 23.3345 96.0225 22.3507C95.8226 21.8588 95.7208 21.3339 95.7225 20.8043C95.7189 20.2644 95.8173 19.7284 96.0125 19.2236C96.2037 18.7381 96.4929 18.2956 96.8628 17.9227C97.2407 17.5488 97.6915 17.2533 98.1881 17.0538C98.7477 16.8275 99.3485 16.7156 99.9536 16.7249C100.554 16.7145 101.15 16.8265 101.704 17.0538C102.198 17.2594 102.645 17.5598 103.019 17.9374C103.381 18.3081 103.662 18.7474 103.845 19.2285C104.032 19.7165 104.127 20.2339 104.125 20.7553V21.1283C104.121 21.2292 104.108 21.3295 104.085 21.4278H97.8931C97.9173 21.7143 97.9953 21.9939 98.1231 22.2525C98.3594 22.7086 98.7635 23.0596 99.2534 23.2343C99.4982 23.3236 99.7575 23.3686 100.019 23.3669C100.423 23.3675 100.821 23.266 101.174 23.0723C101.505 22.909 101.768 22.636 101.914 22.3016L103.67 22.7925C103.357 23.4087 102.867 23.9209 102.259 24.2652C101.555 24.6646 100.752 24.8635 99.9386 24.8396ZM102.014 20.1023C101.99 19.5667 101.757 19.0606 101.364 18.6885C100.565 17.9637 99.3324 17.9637 98.5332 18.6885C98.3459 18.864 98.1932 19.0721 98.0831 19.3022C97.9637 19.552 97.8941 19.8219 97.8781 20.0974H102.034L102.014 20.1023ZM110.291 18.5756C109.717 18.5758 109.149 18.6963 108.626 18.9291C108.161 19.1299 107.786 19.4891 107.571 19.9403V24.6923H105.525V16.8378H107.406V18.5265C107.541 18.2651 107.709 18.0211 107.906 17.8C108.093 17.5899 108.302 17.4006 108.531 17.2354C108.74 17.0834 108.969 16.9596 109.211 16.8673C109.423 16.7855 109.649 16.7423 109.876 16.7396H110.126C110.18 16.7346 110.233 16.7346 110.286 16.7396V18.5756H110.291ZM115.528 14.0789H117.468L118.689 17.6036L119.909 14.0789H121.87L120.019 18.9193L121.369 22.3212L124.44 14.0445H126.731L122.32 24.6874H120.569L118.689 20.2202L116.808 24.6874H115.038L110.657 14.0445H112.917L116.003 22.3212L117.368 18.9193L115.528 14.0789ZM129.242 24.8396C128.871 24.8429 128.503 24.7797 128.156 24.6531C127.834 24.536 127.538 24.3575 127.286 24.1278C127.043 23.906 126.848 23.639 126.711 23.3423C126.572 23.033 126.502 22.6984 126.506 22.3605C126.502 22.0036 126.588 21.6513 126.756 21.3345C126.925 21.0193 127.164 20.7457 127.456 20.5343C127.783 20.2953 128.151 20.1142 128.541 19.9993C128.988 19.8706 129.451 19.8077 129.917 19.8127C130.267 19.8118 130.617 19.8413 130.962 19.9011C131.274 19.9528 131.579 20.0384 131.872 20.1563V19.7145C131.901 19.2708 131.738 18.8358 131.422 18.5167C131.049 18.2135 130.57 18.0639 130.087 18.0994C129.66 18.1001 129.236 18.1766 128.837 18.3253C128.394 18.4936 127.974 18.7145 127.586 18.9831L126.961 17.7067C127.946 17.059 129.106 16.7169 130.292 16.7249C131.255 16.6646 132.206 16.9567 132.963 17.5447C133.628 18.1681 133.978 19.049 133.918 19.9502V22.4047C133.903 22.5637 133.944 22.7229 134.033 22.8563C134.13 22.9568 134.267 23.0121 134.408 23.0085V24.7169C134.112 24.7804 133.811 24.815 133.508 24.82C133.188 24.8406 132.871 24.7502 132.613 24.5647C132.403 24.3946 132.265 24.1555 132.222 23.8921L132.177 23.4356C131.836 23.8833 131.39 24.2437 130.877 24.4861C130.366 24.7242 129.807 24.8451 129.242 24.8396ZM129.822 23.3669C130.164 23.3699 130.504 23.3082 130.822 23.1852C131.102 23.0834 131.351 22.9147 131.547 22.6943C131.746 22.5684 131.87 22.3565 131.882 22.1249V21.2412C131.624 21.1479 131.358 21.0756 131.087 21.0252C130.815 20.9713 130.539 20.9434 130.262 20.9418C129.801 20.922 129.346 21.0458 128.962 21.2952C128.65 21.4891 128.461 21.8264 128.461 22.1887C128.454 22.5162 128.599 22.8292 128.857 23.038C129.126 23.2615 129.469 23.3802 129.822 23.3718V23.3669ZM135.963 13.75H138.009V22.174C137.993 22.4166 138.07 22.6562 138.224 22.8465C138.381 23.0122 138.604 23.1004 138.834 23.0871C138.971 23.0853 139.108 23.0655 139.239 23.0282C139.383 22.9888 139.524 22.9379 139.659 22.876L139.935 24.4174C139.629 24.5571 139.306 24.6577 138.974 24.7169C138.645 24.7825 138.31 24.817 137.974 24.82C137.427 24.8598 136.887 24.683 136.474 24.3291C136.103 23.9437 135.913 23.4243 135.948 22.8956V13.75H135.963ZM140.955 13.75H143V22.174C142.985 22.4166 143.061 22.6562 143.215 22.8465C143.372 23.0122 143.596 23.1004 143.826 23.0871C143.963 23.0853 144.099 23.0655 144.231 23.0282C144.375 22.9888 144.515 22.9379 144.651 22.876L144.926 24.4174C144.62 24.5571 144.297 24.6577 143.966 24.7169C143.636 24.7825 143.301 24.817 142.965 24.82C142.418 24.8598 141.878 24.683 141.465 24.3291C141.094 23.9437 140.904 23.4243 140.94 22.8956V13.75H140.955ZM149.677 24.8396C149.081 24.8474 148.489 24.7372 147.937 24.5156C146.94 24.1172 146.153 23.3345 145.761 22.3507C145.561 21.8588 145.459 21.3339 145.461 20.8043C145.457 20.2644 145.556 19.7284 145.751 19.2236C145.939 18.7372 146.224 18.293 146.591 17.9178C146.973 17.5445 147.427 17.2507 147.927 17.0538C148.486 16.8275 149.087 16.7156 149.692 16.7249C150.293 16.7145 150.889 16.8265 151.443 17.0538C151.937 17.2594 152.384 17.5598 152.758 17.9374C153.12 18.3081 153.401 18.7474 153.583 19.2285C153.773 19.7094 153.873 20.2199 153.878 20.7356V21.1087C153.875 21.2096 153.862 21.3099 153.838 21.4082H147.632C147.656 21.6946 147.734 21.9742 147.862 22.2329C148.098 22.689 148.502 23.04 148.992 23.2147C149.237 23.304 149.496 23.3489 149.757 23.3472C150.162 23.3478 150.559 23.2464 150.913 23.0527C151.244 22.8893 151.506 22.6164 151.653 22.282L153.408 22.7729C153.096 23.3891 152.605 23.9013 151.998 24.2456C151.296 24.6518 150.492 24.8576 149.677 24.8396ZM151.753 20.1023C151.726 19.5629 151.488 19.0545 151.088 18.6836C150.288 17.9588 149.056 17.9588 148.257 18.6836C148.069 18.8591 147.917 19.0672 147.807 19.2973C147.687 19.5471 147.618 19.817 147.602 20.0925H151.758L151.753 20.1023ZM160 24.2849C159.674 24.4233 159.34 24.543 159 24.6432C158.595 24.7648 158.173 24.826 157.749 24.8249C157.479 24.8271 157.21 24.7925 156.949 24.7218C156.709 24.6559 156.485 24.5404 156.294 24.3831C156.099 24.2198 155.945 24.0149 155.844 23.7841C155.723 23.5015 155.665 23.197 155.674 22.8907V18.3793H154.619V16.8378H155.674V14.29H157.719V16.8378H159.38V18.3793H157.699V22.2182C157.674 22.439 157.756 22.6587 157.919 22.8122C158.074 22.9288 158.265 22.9895 158.46 22.984C158.672 22.9846 158.884 22.9497 159.085 22.8809C159.288 22.8122 159.455 22.7516 159.585 22.6992L160 24.2849Z" fill="white"/></svg><svg width="24" height="24" fill="none" viewBox="0 0 24 24" id="svg--medium-logo" x="353" y="124" xmlns="http://www.w3.org/2000/svg"><path d="M4.372 7.24a.774.774 0 0 0-.253-.654l-1.866-2.25V4H8.05l4.482 9.83L16.472 4H22v.336l-1.598 1.53a.468.468 0 0 0-.177.449v11.25c-.028.17.04.342.177.447l1.559 1.531v.336h-7.842v-.336l1.614-1.568c.159-.158.159-.205.159-.448V8.434L11.4 19.841h-.606L5.565 8.434v7.645c-.043.322.063.645.29.878l2.1 2.55v.335H2v-.336l2.1-2.55c.225-.232.325-.559.272-.877V7.24z" fill="#fff"/></svg><svg width="20" height="20" fill="none" viewBox="0 0 20 20" id="svg--menu" x="367" y="196" xmlns="http://www.w3.org/2000/svg"><path fill="#000" d="M0 5h20v2H0zM4 13h16v2H4z"/></svg><svg width="100" height="100" fill="none" viewBox="0 0 100 100" id="svg--nodatacollection" x="100" y="134" xmlns="http://www.w3.org/2000/svg"><circle cx="48" cy="48" r="46" transform="translate(2 2)" stroke="#064DD6" stroke-width="4"/><rect x="1" y="1" width="38" height="55" rx="1" transform="rotate(10 -96.444 211.45)" stroke="#064DD6" stroke-width="2"/><rect x="1" y="1" width="38" height="55" rx="1" transform="translate(30 23)" fill="#fff" stroke="#064DD6" stroke-width="2"/><rect x="1" y="1" width="38" height="55" rx="1" transform="rotate(-15 122.351 -73.936)" fill="#fff" stroke="#064DD6" stroke-width="2"/><path d="M50.392 52.567a6.316 6.316 0 1 0-3.27-12.202 6.316 6.316 0 0 0 3.27 12.202z" fill="#fff" stroke="#064DD6" stroke-width="2"/><path clip-rule="evenodd" d="M53.64 63.466c3.271-.877 5.812-2.047 7.625-3.493a2.526 2.526 0 0 0 .688-3.1l-1.646-3.31a1.895 1.895 0 0 0-2.493-.876c-1.735.803-3.888 1.548-6.462 2.238-2.742.734-5.186 1.2-7.336 1.392a1.895 1.895 0 0 0-1.722 2.005l.233 3.731a2.526 2.526 0 0 0 2.178 2.346c2.387.327 5.37.022 8.935-.933z" stroke="#064DD6" stroke-width="2"/><path d="M53 34v-6a2 2 0 1 1 4 0v5.5a4 4 0 0 1-8 0V18a4 4 0 0 1 8 0v3" stroke="#064DD6" stroke-width="2"/><path fill="#064DD6" d="M16.059 18.887l2.828-2.828 65.054 65.054-2.828 2.828z"/></svg><svg fill="none" height="100" width="100" viewBox="0 0 100 100" id="svg--p2p" x="295" xmlns="http://www.w3.org/2000/svg"><g clip-rule="evenodd" fill="#064dd6" fill-rule="evenodd"><path d="M51 17.938a8.094 8.094 0 0 1-2 0V31.34l-5.963-2.555 4.755-11.094a7.953 7.953 0 0 1-1.838-.788l-4.755 11.094-5.447-2.334 9.342-9.343a8.047 8.047 0 0 1-1.414-1.414l-9.908 9.908-6.08-2.606a7.953 7.953 0 0 1-.79 1.838l5.346 2.291L30 28.586l-3.68-3.68a8.049 8.049 0 0 1-1.414 1.414l3.68 3.68-2.249 2.248-2.29-5.345a7.96 7.96 0 0 1-1.839.788l2.606 6.08-9.908 9.91c.528.41 1.003.885 1.414 1.413l9.343-9.343 2.334 5.448-11.094 4.755c.335.57.602 1.187.788 1.837l11.094-4.754L31.341 49H17.938a8.081 8.081 0 0 1 0 2h13.403l-2.556 5.963-11.094-4.755a7.956 7.956 0 0 1-.788 1.838l11.094 4.755-2.334 5.447-9.343-9.342a8.049 8.049 0 0 1-1.414 1.414l9.908 9.908-2.606 6.08c.65.187 1.267.454 1.838.79l2.291-5.347L28.586 70l-3.68 3.68c.528.41 1.003.886 1.414 1.414l3.68-3.68 2.248 2.249-5.345 2.29c.335.572.602 1.188.788 1.839l6.08-2.606 9.91 9.908a8.048 8.048 0 0 1 1.413-1.414l-9.343-9.343 5.448-2.334 4.755 11.094a7.955 7.955 0 0 1 1.838-.788l-4.755-11.094L49 68.659v13.403a8.109 8.109 0 0 1 2 0V68.659l5.963 2.556-4.755 11.094c.65.186 1.267.453 1.838.788l4.755-11.094 5.448 2.334-9.343 9.343a8.05 8.05 0 0 1 1.414 1.414l9.908-9.908 6.08 2.606c.187-.65.454-1.267.79-1.838l-5.346-2.291L70 71.414l3.68 3.68a8.054 8.054 0 0 1 1.414-1.414L71.414 70l2.249-2.249 2.29 5.346a7.955 7.955 0 0 1 1.839-.788l-2.606-6.08 9.908-9.91a8.049 8.049 0 0 1-1.414-1.413l-9.343 9.342-2.334-5.447 11.094-4.755a7.957 7.957 0 0 1-.788-1.838l-11.094 4.755L68.659 51h13.403a8.088 8.088 0 0 1 0-2H68.659l2.556-5.963 11.094 4.755c.186-.65.453-1.267.788-1.838l-11.094-4.755 2.334-5.447 9.343 9.342a8.054 8.054 0 0 1 1.414-1.414l-9.908-9.908 2.606-6.08a7.946 7.946 0 0 1-1.838-.79l-2.291 5.347L71.414 30l3.68-3.68a8.049 8.049 0 0 1-1.414-1.414L70 28.586l-2.248-2.249 5.345-2.29a7.95 7.95 0 0 1-.788-1.839l-6.08 2.606-9.91-9.908a8.044 8.044 0 0 1-1.413 1.414l9.342 9.343-5.447 2.334-4.755-11.094a7.953 7.953 0 0 1-1.838.788l4.755 11.094L51 31.34zm35.54 24.847a7.943 7.943 0 0 1 1.898-.633L83.46 27.216c-.595.286-1.231.5-1.897.632zm1.898 15.063a7.944 7.944 0 0 1-1.897-.632l-4.98 14.936a7.942 7.942 0 0 1 1.898.632zM57.215 86.54l14.937-4.98c.132.667.347 1.303.633 1.898l-14.937 4.98a7.94 7.94 0 0 0-.633-1.898zm14.937-68.103a7.94 7.94 0 0 1 .632-1.897l-14.936-4.98a7.94 7.94 0 0 1-.633 1.898zM27.848 81.562l14.936 4.979a7.944 7.944 0 0 0-.632 1.897L27.215 83.46c.286-.595.5-1.231.633-1.897zm14.937-68.103a7.936 7.936 0 0 1-.633-1.897L27.216 16.54c.285.595.5 1.231.632 1.897zM11.562 57.848a7.944 7.944 0 0 0 1.897-.632l4.98 14.936a7.944 7.944 0 0 0-1.898.632zm1.897-15.063a7.944 7.944 0 0 0-1.897-.633l4.979-14.936c.595.286 1.231.5 1.897.632zm53.684 9.754l2.234 5.212-5.473 2.345zm3.021 7.05l-6.412 2.748L70 68.586l2.814-2.814zM51 52.414l9.248 9.249L51 65.626zm9.096 11.49l-7.557 3.239 5.212 2.233zm-20.192 0l7.557 3.239-5.212 2.233zm-2.241-.152l2.748 6.412-6.183 2.65L31.414 70zm-7.827-4.163l-2.65 6.183L30 68.585l6.248-6.249zm6.26.507l-5.473-2.345 2.234-5.212zM49 65.626l-9.248-3.963L49 52.414zm16.772 7.188l-6.183-2.65 2.748-6.412L68.586 70zm0-45.628l-6.183 2.65 2.748 6.412L68.586 30zm-8.021 3.437l-5.212 2.234 7.557 3.239zm-15.502 0l5.212 2.234-7.557 3.239zM49 34.373l-9.248 3.964L49 47.586zm-19-2.959l6.248 6.249-6.412 2.748-2.65-6.183zm6.096 8.49l-5.473 2.345 2.234 5.212zm-1.868-12.718L31.414 30l6.249 6.248 2.748-6.412zM51 34.374v13.212l9.248-9.249zm12.904 5.53l3.239 7.557 2.234-5.212zm6.26.507l-6.412-2.748L70 31.414l2.814 2.814zM52.414 49l9.249-9.248L65.626 49zm0 2h13.212l-3.963 9.249zM38.337 39.752L34.374 49h13.212zm0 20.497L34.374 51h13.212z"/><path d="M20 14a6 6 0 1 0 0 12 6 6 0 0 0 0-12zm-10 6c0-5.523 4.477-10 10-10s10 4.477 10 10-4.477 10-10 10-10-4.477-10-10zM20 74a6 6 0 1 0 0 12 6 6 0 0 0 0-12zm-10 6c0-5.523 4.477-10 10-10s10 4.477 10 10-4.477 10-10 10-10-4.477-10-10zM10 44a6 6 0 1 0 0 12 6 6 0 0 0 0-12zM0 50c0-5.523 4.477-10 10-10s10 4.477 10 10-4.477 10-10 10S0 55.523 0 50zM50 4a6 6 0 1 0 0 12 6 6 0 0 0 0-12zm-10 6c0-5.523 4.477-10 10-10s10 4.477 10 10-4.477 10-10 10-10-4.477-10-10zM50 84a6 6 0 1 0 0 12 6 6 0 0 0 0-12zm-10 6c0-5.523 4.477-10 10-10s10 4.477 10 10-4.477 10-10 10-10-4.477-10-10zM80 14a6 6 0 1 0 0 12 6 6 0 0 0 0-12zm-10 6c0-5.523 4.477-10 10-10s10 4.477 10 10-4.477 10-10 10-10-4.477-10-10zM80 74a6 6 0 1 0 0 12 6 6 0 0 0 0-12zm-10 6c0-5.523 4.477-10 10-10s10 4.477 10 10-4.477 10-10 10-10-4.477-10-10zM90 44a6 6 0 1 0 0 12 6 6 0 0 0 0-12zm-10 6c0-5.523 4.477-10 10-10s10 4.477 10 10-4.477 10-10 10-10-4.477-10-10z"/></g></svg><svg width="96" height="96" fill="none" viewBox="0 0 96 96" id="svg--protect" y="234" xmlns="http://www.w3.org/2000/svg"><path d="M94 48C94 22.595 73.405 2 48 2S2 22.595 2 48s20.595 46 46 46 46-20.595 46-46z" stroke="#fff" stroke-width="4"/><mask id="qa" maskUnits="userSpaceOnUse" x="4" y="4" width="88" height="88"><path d="M88 44C88 19.7 68.3 0 44 0S0 19.7 0 44s19.7 44 44 44 44-19.7 44-44z" transform="translate(4 4)" fill="#fff"/></mask><g mask="url(#qa)"><path d="M63 37a2 2 0 1 0 0-4 2 2 0 0 0 0 4z" fill="#fff"/><path d="M19 7c17 0 35 14.5 44 28M63 35l8 15c2.017 3.19 4.017 4.19 6 3 1.983-1.19 1.816-3.69-.5-7.5" stroke="#fff" stroke-width="2" stroke-linecap="square"/><path fill-rule="evenodd" clip-rule="evenodd" d="M74.5 40.5L78 46l-4 2 .5-7.5z" fill="#fff"/><path clip-rule="evenodd" d="M4 47c10.15 0 36 3 45 15-1.895 1.263-7.379 4.62-16.453 10.071a.5.5 0 0 0 .257.929H48c-6 9-22.525 14-31.5 14C.037 87-16 69-16 66s3.469-19 20-19z" stroke="#fff" stroke-width="4" stroke-linecap="round" stroke-linejoin="round"/><path d="M85.136 83.136L14.694 12.694" stroke="#fff" stroke-width="4" stroke-linecap="square"/><path d="M26 65a5 5 0 1 0 0-10 5 5 0 0 0 0 10z" fill="#fff"/></g></svg><svg width="24" height="24" fill="none" viewBox="0 0 24 24" id="svg--reddit-logo" x="353" y="148" xmlns="http://www.w3.org/2000/svg"><path d="M3.02 13.081a3.655 3.655 0 0 0-.083.777c0 3.155 4.035 5.727 8.996 5.727 4.959 0 8.994-2.57 8.994-5.728 0-.25-.027-.5-.076-.741l-.013-.03a.417.417 0 0 1-.027-.15c-.277-1.078-1.024-2.055-2.105-2.845a.388.388 0 0 1-.115-.064c-.024-.018-.041-.039-.061-.059-1.643-1.13-3.993-1.84-6.597-1.84-2.58 0-4.907.695-6.55 1.806a.364.364 0 0 1-.164.114c-1.105.79-1.872 1.776-2.158 2.863a.416.416 0 0 1-.033.156l-.008.014zm8.958 4.988c-1.644 0-2.802-.357-3.54-1.098a.412.412 0 0 1 0-.579.43.43 0 0 1 .582 0c.577.577 1.544.864 2.958.864 1.414 0 2.375-.275 2.951-.851a.425.425 0 0 1 .577 0 .442.442 0 0 1 0 .591c-.742.74-1.893 1.098-3.54 1.098l.012-.026zm-3.305-6.942c-.838 0-1.537.701-1.537 1.537 0 .834.7 1.513 1.537 1.513.838 0 1.513-.679 1.513-1.513 0-.836-.677-1.537-1.513-1.537zm6.63 0c-.838 0-1.538.701-1.538 1.537 0 .834.7 1.513 1.538 1.513.838 0 1.513-.679 1.513-1.513 0-.836-.677-1.537-1.513-1.537zm4.169-1.462c.95.763 1.65 1.669 2.006 2.662a1.667 1.667 0 1 0-2.006-2.66v-.002zm-15.987-.33a1.667 1.667 0 0 0-1.075 2.94c.367-.989 1.074-1.881 2.028-2.636a1.669 1.669 0 0 0-.952-.301v-.002h-.001zm8.449 11.073c-5.414 0-9.817-2.938-9.817-6.547 0-.252.021-.498.063-.741A2.496 2.496 0 0 1 1 10.999a2.498 2.498 0 0 1 2.498-2.487c.618 0 1.194.225 1.647.625 1.701-1.092 3.994-1.78 6.52-1.826l1.66-5.064.37.088.015.001 3.87.91a2.05 2.05 0 0 1 3.938.801 2.05 2.05 0 0 1-2.044 2.049A2.05 2.05 0 0 1 17.43 4.05l-3.53-.836-1.345 4.104c2.43.096 4.626.783 6.273 1.853a2.44 2.44 0 0 1 1.68-.66A2.49 2.49 0 0 1 23 10.999c0 .904-.495 1.728-1.263 2.168.027.233.054.452.054.686-.014 3.61-4.405 6.548-9.826 6.548l-.031.008zM19.43 2.82a1.227 1.227 0 1 0 0 2.455c.67 0 1.219-.55 1.219-1.223 0-.672-.548-1.22-1.235-1.22l.016-.012z" fill="#fff"/></svg><svg width="58" height="96" fill="none" viewBox="0 0 58 96" id="svg--safe" x="295" y="100" xmlns="http://www.w3.org/2000/svg"><path d="M49 2H9a7 7 0 0 0-7 7v78a7 7 0 0 0 7 7h40a7 7 0 0 0 7-7V9a7 7 0 0 0-7-7z" stroke="#fff" stroke-width="4"/><path d="M29 65c9.389 0 17-7.611 17-17s-7.611-17-17-17-17 7.611-17 17 7.611 17 17 17z" stroke="#fff" stroke-width="4"/><path d="M29 56a8 8 0 1 0 0-16 8 8 0 0 0 0 16z" stroke="#fff" stroke-width="2"/><path fill-rule="evenodd" clip-rule="evenodd" d="M29 30a1 1 0 0 1 1 1v5a1 1 0 1 1-2 0v-5a1 1 0 0 1 1-1zm9 2.412a1 1 0 0 1 .366 1.366l-2.5 4.33a1 1 0 1 1-1.732-1l2.5-4.33A1 1 0 0 1 38 32.412zM44.589 39a1 1 0 0 1-.367 1.366l-4.33 2.5a1 1 0 1 1-1-1.732l4.33-2.5A1 1 0 0 1 44.59 39zM47 48a1 1 0 0 1-1 1h-5a1 1 0 1 1 0-2h5a1 1 0 0 1 1 1zm-2.411 9a1 1 0 0 1-1.367.366l-4.33-2.5a1 1 0 1 1 1-1.732l4.33 2.5A1 1 0 0 1 44.59 57zM38 63.589a1 1 0 0 1-1.366-.367l-2.5-4.33a1 1 0 1 1 1.732-1l2.5 4.33A1 1 0 0 1 38 63.59zM29 66a1 1 0 0 1-1-1v-5a1 1 0 1 1 2 0v5a1 1 0 0 1-1 1zm-9-2.411a1 1 0 0 1-.366-1.367l2.5-4.33a1 1 0 1 1 1.732 1l-2.5 4.33A1 1 0 0 1 20 63.59zM13.412 57a1 1 0 0 1 .366-1.366l4.33-2.5a1 1 0 1 1 1 1.732l-4.33 2.5A1 1 0 0 1 13.412 57zM11 48a1 1 0 0 1 1-1h5a1 1 0 1 1 0 2h-5a1 1 0 0 1-1-1zm2.412-9a1 1 0 0 1 1.366-.366l4.33 2.5a1 1 0 1 1-1 1.732l-4.33-2.5A1 1 0 0 1 13.412 39zM20 32.412a1 1 0 0 1 1.366.366l2.5 4.33a1 1 0 1 1-1.732 1l-2.5-4.33A1 1 0 0 1 20 32.412zM14 1h29v3h-2a2 2 0 0 0-2 2 2 2 0 0 1-2 2H21a2 2 0 0 1-2-2 2 2 0 0 0-2-2h-3V1z" fill="#fff"/></svg><svg width="64" height="86" fill="none" viewBox="0 0 64 86" id="svg--secure" x="200" y="134" xmlns="http://www.w3.org/2000/svg"><path clip-rule="evenodd" d="M16 38h32V18.681c0-3.642-.642-6.641-1.9-9.133-1.209-2.392-2.97-4.256-5.228-5.536C38.518 2.68 35.685 2 32.245 2h-.49c-3.44 0-6.273.68-8.627 2.012-2.258 1.28-4.02 3.144-5.227 5.536C16.642 12.04 16 15.039 16 18.68V38z" stroke="#06C0A5" stroke-width="4"/><path d="M52 38H12C6.477 38 2 42.477 2 48v26c0 5.523 4.477 10 10 10h40c5.523 0 10-4.477 10-10V48c0-5.523-4.477-10-10-10z" stroke="#06C0A5" stroke-width="4"/><path d="M24 62a5 5 0 1 0 0-10 5 5 0 0 0 0 10z" fill="#06C0A5"/><path fill-rule="evenodd" clip-rule="evenodd" d="M23.522 58h.956a2 2 0 0 1 1.987 2.225l-1.006 8.887a1 1 0 0 1-.994.888h-.93a1 1 0 0 1-.994-.887l-1.006-8.888A2 2 0 0 1 23.522 58z" fill="#06C0A5"/><path d="M39 60a5 5 0 1 0 0 10 5 5 0 0 0 0-10z" fill="#06C0A5"/><path fill-rule="evenodd" clip-rule="evenodd" d="M39.478 64h-.956a2 2 0 0 1-1.987-2.225l1.006-8.887a1 1 0 0 1 .994-.888h.93a1 1 0 0 1 .994.887l1.006 8.888A2 2 0 0 1 39.478 64z" fill="#06C0A5"/></svg><svg width="24" height="24" fill="none" viewBox="0 0 24 24" id="svg--twitter-logo" x="353" y="100" xmlns="http://www.w3.org/2000/svg"><path d="M22.957 5.144a9.12 9.12 0 0 1-2.59.715 4.57 4.57 0 0 0 1.983-2.513 9.277 9.277 0 0 1-2.866 1.093A4.477 4.477 0 0 0 16.192 3c-2.49 0-4.51 2.033-4.51 4.537 0 .36.042.706.117 1.037-3.75-.178-7.072-1.99-9.296-4.73a4.472 4.472 0 0 0-.61 2.284c0 1.578.797 2.965 2.005 3.78a4.473 4.473 0 0 1-2.042-.569v.057c0 2.2 1.552 4.036 3.617 4.454a4.548 4.548 0 0 1-2.027.078 4.529 4.529 0 0 0 4.22 3.153 9.007 9.007 0 0 1-5.594 1.942A9.51 9.51 0 0 1 1 18.962 12.767 12.767 0 0 0 7.927 21c8.3 0 12.832-6.917 12.832-12.906 0-.192 0-.387-.014-.58A9.141 9.141 0 0 0 23 5.161l-.043-.018z" fill="#fff"/></svg></svg>