<svg xmlns="http://www.w3.org/2000/svg" width="120" height="120" viewBox="0 0 120 120">
    <g fill="none" fill-rule="evenodd">
        <path fill="#F8F8F8" d="M-1071-265l1440 85.617V718h-1440z"/>
        <g fill-rule="nonzero">
            <path fill="#1C8B98" d="M91.298 25.378H49.095c-1.073 0-2.146-1.001-2.146-1.001l-2.79-2.146s-1.644-1.144-2.36-1.144H30.927c-2.647 0-4.864 2.145-4.864 4.864v20.386c0 2.646 2.145 4.864 4.864 4.864h60.442c2.647 0 4.864-2.146 4.864-4.864V30.17a4.917 4.917 0 0 0-4.935-4.793z"/>
            <path fill="#C9C9C9" d="M23.058 31.673h76.108v16.881H23.058V31.673z"/>
            <path fill="#DCDCDC" d="M20.197 35.393h81.616V52.56l-81.616-.072V35.393z"/>
            <path fill="#1A96A4" d="M19.625 38.97H102.6a4.304 4.304 0 0 1 4.291 4.29v52.933a4.304 4.304 0 0 1-4.291 4.292H19.625a4.305 4.305 0 0 1-4.292-4.292V43.26a4.304 4.304 0 0 1 4.292-4.292z"/>
            <path fill="#FFF" d="M61.112 49.699c-10.658 0-19.313 8.655-19.313 19.312 0 10.658 8.655 19.313 19.313 19.313s19.313-8.655 19.313-19.313c0-10.657-8.655-19.312-19.313-19.312zm0 35.049c-8.655 0-15.736-7.01-15.736-15.737 0-8.655 7.01-15.736 15.736-15.736 8.655 0 15.737 7.01 15.737 15.736 0 8.727-7.082 15.737-15.737 15.737zm1.145-22.89c-.644-1.001-1.574-1.001-2.218 0l-6.509 6.796c-.644 1.001-.143 1.788 1.145 1.788h2.86v5.293c0 .644.502 1.145 1.146 1.145h4.935c.644 0 1.145-.501 1.145-1.145v-5.293h2.932c1.216 0 1.717-.787 1.145-1.788l-6.581-6.796z"/>
        </g>
    </g>
</svg>
