<svg xmlns="http://www.w3.org/2000/svg" width="120" height="120" viewBox="0 0 120 120">
    <g fill="none" fill-rule="evenodd">
        <path fill="#F8F8F8" d="M-232-265l1440 85.617V718H-232z"/>
        <path fill="#59C3CF" fill-rule="nonzero" d="M9.708 45.17c3.532.589 11.92 1.398 22.295-1.398 10.375-2.796 17.292-7.653 20.015-9.934 3.9-3.237 5.592-5.445 7.21-2.06 1.472 3.017 3.385 7.873 5.225 14.716 3.973 14.79 6.917 45.99-17.586 52.538-24.576 6.549-37.6-21.927-41.574-36.717-1.84-6.844-2.649-11.994-2.87-15.305-.294-3.827 2.282-2.723 7.285-1.84zm49.3 12.288s-3.9-6.107-10.522-4.194c-6.622 1.913-7.138 9.198-7.138 9.198l17.66-5.004zm-16.04 26.858c11.551-3.385 13.317-12.583 13.317-12.583l-30.978 8.61c0 .073 6.255 7.284 17.66 3.973zM31.782 65.552s-3.753-6.034-10.081-4.194c-6.328 1.913-6.843 9.198-6.843 9.198l16.924-5.004z"/>
        <path fill="#F8F8F8" d="M47.99 35.06l-6.252 15.588 4.011 26.756 7.12 15.417 14.081.99 14.584-25-2.667-23.307-24.636-14.07z"/>
        <path fill="#1A96A4" fill-rule="nonzero" d="M108.422 32.966c-4.436.739-14.972 1.756-28.004-1.756-13.031-3.513-21.72-9.612-25.139-12.477-4.898-4.067-7.024-6.84-9.057-2.588-1.849 3.789-4.252 9.889-6.562 18.484-4.991 18.577-8.688 57.764 22.089 65.99 30.869 8.225 47.228-27.542 52.219-46.12 2.31-8.594 3.327-15.064 3.604-19.223.37-4.806-2.865-3.42-9.15-2.31zM46.5 48.4s4.898-7.671 13.216-5.268c8.318 2.403 8.965 11.553 8.965 11.553L46.5 48.4zm20.148 33.734C52.137 77.883 49.92 66.33 49.92 66.33l38.91 10.813c0 .093-7.856 9.15-22.182 4.991zm14.048-23.568s4.714-7.578 12.662-5.268c7.949 2.403 8.596 11.553 8.596 11.553l-21.258-6.285z"/>
    </g>
</svg>
