<svg xmlns="http://www.w3.org/2000/svg" width="120" height="120" viewBox="0 0 120 120">
    <g fill="none" fill-rule="evenodd">
        <path fill="#F8F8F8" d="M-660-592l1440 85.617V391H-660z"/>
        <g fill-rule="nonzero">
            <path fill="#1A96A4" d="M16.5 12h87c2.475 0 4.5 2.025 4.5 4.5v87c0 2.475-2.025 4.5-4.5 4.5h-87a4.514 4.514 0 0 1-4.5-4.5v-87c0-2.475 2.025-4.5 4.5-4.5z"/>
            <path fill="#2B414D" d="M20.943 29.814h78.114a3.016 3.016 0 0 1 3.005 3.01v66.228a3.016 3.016 0 0 1-3.005 3.01H20.943a3.016 3.016 0 0 1-3.005-3.01V32.825a3.016 3.016 0 0 1 3.005-3.01z"/>
            <path fill="#E4E7E7" d="M33.294 43.67H76.81c.825 0 1.5.742 1.5 1.65v1.65c0 .906-.675 1.649-1.5 1.649H33.294c-.825 0-1.5-.743-1.5-1.65v-1.65c0-.907.675-1.649 1.5-1.649z"/>
            <path fill="#E35E53" d="M51.093 53.567H33.278c-.816 0-1.484.681-1.484 1.514v1.513c0 .833.668 1.514 1.484 1.514h17.815c.816 0 1.484-.681 1.484-1.514v-1.513c0-.833-.668-1.514-1.484-1.514zm-4.454 21.191H33.28c-.817 0-1.485.681-1.485 1.514v1.513c0 .833.668 1.514 1.484 1.514H46.64c.817 0 1.485-.681 1.485-1.514v-1.513c0-.833-.668-1.514-1.485-1.514zm40.083 0h-8.908c-.816 0-1.484.681-1.484 1.514v1.513c0 .833.668 1.514 1.484 1.514h8.908c.816 0 1.484-.681 1.484-1.514v-1.513c0-.833-.668-1.514-1.484-1.514z"/>
            <path fill="#26A6D1" d="M86.721 53.567H60c-.816 0-1.485.668-1.485 1.485v1.484c0 .817.669 1.485 1.485 1.485h26.722c.816 0 1.484-.668 1.484-1.485v-1.484a1.49 1.49 0 0 0-1.485-1.485zm0 31.175H33.278c-.816 0-1.484.668-1.484 1.485v1.484c0 .817.668 1.485 1.484 1.485h53.443c.817 0 1.485-.668 1.485-1.485v-1.484c0-.817-.668-1.485-1.485-1.485z"/>
            <path fill="#49B8A4" d="M68.907 64.454H33.278c-.816 0-1.484.668-1.484 1.484v1.485c0 .816.668 1.484 1.484 1.484h35.63c.816 0 1.484-.668 1.484-1.484v-1.485c0-.816-.668-1.484-1.485-1.484zm0 10.391h-13.36c-.817 0-1.485.668-1.485 1.485v1.484c0 .817.668 1.485 1.484 1.485h13.361c.817 0 1.485-.668 1.485-1.485V76.33c0-.817-.668-1.485-1.485-1.485z"/>
            <path fill="#FFF" d="M20.907 17.938a2.978 2.978 0 0 0-2.969 2.97 2.978 2.978 0 0 0 2.97 2.968 2.978 2.978 0 0 0 2.968-2.969 2.978 2.978 0 0 0-2.969-2.969zm8.907 0a2.978 2.978 0 0 0-2.969 2.97 2.978 2.978 0 0 0 2.97 2.968 2.978 2.978 0 0 0 2.968-2.969 2.978 2.978 0 0 0-2.969-2.969zm8.908 0a2.978 2.978 0 0 0-2.97 2.97 2.978 2.978 0 0 0 2.97 2.968 2.978 2.978 0 0 0 2.969-2.969 2.978 2.978 0 0 0-2.97-2.969z"/>
        </g>
    </g>
</svg>
