<svg xmlns="http://www.w3.org/2000/svg" width="120" height="120" viewBox="0 0 120 120">
    <g fill="none" fill-rule="evenodd">
        <path fill="#F8F8F8" d="M-1069-593l1440 85.617V390h-1440z"/>
        <path fill="#1A96A4" fill-rule="nonzero" d="M104.977 31.784l-32.406.378H14v65.985c0 4.918 8.27 8.853 18.496 8.853h51.202c11.805 0 21.354-4.616 21.354-10.215V32.238c-.05 0-.075-.152-.075-.454z"/>
        <path fill="#DADFE1" fill-rule="nonzero" d="M83.64 86.756H32.48c-10.216 0-18.48-3.973-18.48-8.772v-16.57 36.814C14 103.1 22.264 107 32.48 107h51.16c11.796 0 21.336-4.574 21.336-10.122V59.09v17.544c0 5.549-9.54 10.122-21.335 10.122zm21.337-32.614c0 5.623-9.992 10.121-22.237 10.121H31.73c-9.767 0-17.655-3.898-17.655-8.772v-4.723 24.967c0 4.873 8.264 8.772 18.48 8.772h51.161c11.795 0 21.336-4.573 21.336-10.122V50.768c-.075 1.2-.075 2.324-.075 3.374zM31.73 62.014h51.01c12.32 0 22.237-4.499 22.237-10.122V32.773H14.075v20.469c0 4.873 7.888 8.772 17.655 8.772z"/>
        <path fill="#9BCDC6" fill-rule="nonzero" d="M63.98 54.996c1.401 0 2.474-.955 2.474-2.204 0-1.25-1.073-2.204-2.475-2.204-1.402 0-2.474.955-2.474 2.204s1.072 2.204 2.474 2.204zm0 17.635c-1.403 0-2.475.955-2.475 2.204s1.072 2.204 2.474 2.204c1.402 0 2.475-.955 2.475-2.204 0-1.25-1.073-2.204-2.475-2.204zm0 22.043c-1.403 0-2.475.955-2.475 2.204 0 1.25 1.072 2.204 2.474 2.204 1.402 0 2.475-.955 2.475-2.204 0-1.175-1.073-2.204-2.475-2.204z"/>
        <path fill="#1A96A4" fill-rule="nonzero" d="M71.835 50.588c-1.367 0-2.412.955-2.412 2.204s1.045 2.204 2.412 2.204 2.412-.955 2.412-2.204c0-1.25-1.045-2.204-2.412-2.204zm8.041 4.408c1.367 0 2.413-.955 2.413-2.204s-1.046-2.204-2.413-2.204c-1.367 0-2.412.955-2.412 2.204 0 1.25 1.045 2.204 2.412 2.204zm-8.041 17.635c-1.367 0-2.412.955-2.412 2.204 0 1.25 1.045 2.204 2.412 2.204s2.412-.955 2.412-2.204-1.045-2.204-2.412-2.204zm8.041 0c-1.367 0-2.412.955-2.412 2.204 0 1.25 1.045 2.204 2.412 2.204s2.413-.955 2.413-2.204-1.046-2.204-2.413-2.204zm-8.041 22.043c-1.367 0-2.412.955-2.412 2.204 0 1.25 1.045 2.204 2.412 2.204s2.412-.955 2.412-2.204c0-1.175-1.045-2.204-2.412-2.204zm8.041 0c-1.367 0-2.412.955-2.412 2.204 0 1.25 1.045 2.204 2.412 2.204s2.413-.955 2.413-2.204c0-1.175-1.046-2.204-2.413-2.204z"/>
        <path fill="#BCC1C7" fill-rule="nonzero" d="M51.856 47.619h-19.3c-.445 0-.742.298-.742.745v2.237c0 .447.297.746.743.746h19.299c.445 0 .742-.299.742-.746v-2.237a.745.745 0 0 0-.742-.745zm0 5.965h-19.3c-.445 0-.742.298-.742.745v2.237c0 .448.297.746.743.746h19.299c.445 0 .742-.298.742-.746V54.33a.745.745 0 0 0-.742-.745zm0 16.404h-19.3c-.445 0-.742.298-.742.746v2.237c0 .447.297.745.743.745h19.299c.445 0 .742-.298.742-.745v-2.237a.745.745 0 0 0-.742-.746zm0 5.966h-19.3c-.445 0-.742.298-.742.745v2.237c0 .448.297.746.743.746h19.299c.445 0 .742-.298.742-.746V76.7a.745.745 0 0 0-.742-.745zm0 16.404h-19.3c-.445 0-.742.298-.742.746v2.237c0 .447.297.745.743.745h19.299c.445 0 .742-.298.742-.745v-2.237a.745.745 0 0 0-.742-.746zm0 5.965h-19.3c-.445 0-.742.299-.742.746v2.237c0 .447.297.746.743.746h19.299c.445 0 .742-.299.742-.746v-2.237a.745.745 0 0 0-.742-.746z"/>
        <path fill="#E1E5E7" fill-rule="nonzero" d="M93.012 85.236v20.323c7.148-1.656 12.04-5.119 12.04-9.183V58.44v17.613c0 3.99-4.892 7.527-12.04 9.183zm-66.972.452C19.042 84.408 14 81.17 14 77.408V60.773v36.958c0 3.763 5.042 7 12.04 8.28V85.687zm0-22.506C19.042 61.978 14 58.742 14 54.827v-4.742V75.15c0 3.763 5.042 7 12.04 8.28V63.182zm79.012-9.71c0 3.914-4.892 7.377-12.04 9.033v20.473c7.148-1.656 12.04-5.118 12.04-9.183V50.16v3.312zM26.04 35.032H14v17.537c0 3.914 5.042 7.15 12.04 8.355V35.03zm66.972-2.259v27.474c7.148-1.656 12.04-5.119 12.04-9.033v-18.44h-12.04z"/>
        <path fill="#1A96A4" fill-rule="nonzero" d="M87.608 22.209C86.33 15.965 75.578 11 62.27 11c-10.3 0-19.097 2.708-23.158 6.92-1.203-.15-2.48-.3-3.834-.3-7.068 0-12.782 3.084-12.782 6.47 0 .676.15 1.73.602 2.331-5.49 1.58-9.098 3.987-9.098 7.297 0 4.965 8.27 8.952 18.496 8.952h51.202c11.805 0 21.354-4.589 21.354-10.306-.15-5.115-7.594-9.253-17.444-10.155z"/>
        <path fill="#FFF" fill-rule="nonzero" d="M59.526 19.907c-7.114 0-12.866 2.573-12.866 6.433s5.752 6.433 12.866 6.433 12.866-2.876 12.866-6.433-5.752-6.433-12.866-6.433z"/>
        <path fill="#E35E53" d="M53 24h13v3H53z"/>
    </g>
</svg>
