<svg xmlns="http://www.w3.org/2000/svg" width="120" height="120" viewBox="0 0 120 120">
    <g fill="none" fill-rule="evenodd">
        <path fill="#F8F8F8" d="M-238-593l1440 85.617V390H-238z"/>
        <g fill-rule="nonzero">
            <path fill="#59C3CF" d="M96.827 29.375c.072 0-36.478-14.016-37.414-14.375-.72.287-37.485 14.375-37.413 14.375v26.45C22 74.153 27.252 98.088 59.413 107c32.09-8.913 37.342-33.278 37.342-51.175.072-9.056.072-26.45.072-26.45z"/>
            <path fill="#1A96A4" d="M90.026 34.453c.072 0-29.539-11.807-30.333-12.093-.65.215-30.405 11.592-30.333 11.52v22.111c0 15.313 3.034 36.207 30.333 43.649 27.227-7.442 30.333-28.694 30.333-43.649.072-7.585.072-21.538 0-21.538z"/>
            <path fill="#F9F9F9" d="M74.002 54.113c-.217-.724-.867-1.231-1.661-1.376L64.83 51.65l-3.25-6.664a2.082 2.082 0 0 0-1.878-1.16c-.794 0-1.517.435-1.878 1.16l-3.25 6.664-7.51 1.087c-.795.145-1.445.652-1.662 1.376-.216.725-.072 1.522.506 2.029l5.489 5.433-1.3 7.534c-.145.724.216 1.52.866 1.956.361.217.795.362 1.228.362a2.3 2.3 0 0 0 1.011-.218l6.572-3.477 6.572 3.477a2.3 2.3 0 0 0 1.012.218 2.43 2.43 0 0 0 1.227-.362c.65-.435 1.011-1.232.867-1.956l-1.3-7.534 5.489-5.433c.433-.58.65-1.304.36-2.029z"/>
        </g>
    </g>
</svg>
