<svg xmlns="http://www.w3.org/2000/svg" width="120" height="120" viewBox="0 0 120 120">
    <g fill="none" fill-rule="evenodd">
        <path fill="#F8F8F8" d="M-660-261l1440 85.617V722H-660z"/>
        <g transform="translate(24 10)">
            <path fill="#DCDCDC" fill-rule="nonzero" d="M66 12H6a6.01 6.01 0 0 0-6 6v72c0 3.366 2.634 6 6 6h60c3.366 0 6-2.634 6-6V18c0-3.366-2.634-6-6-6z"/>
            <path fill="#455A64" fill-rule="nonzero" d="M51 6h-6.516C43.248 2.508 39.912 0 36 0s-7.248 2.508-8.49 6H21c-1.656 0-3 1.344-3 3v12c0 1.656 1.344 3 3 3h30c1.656 0 3-1.344 3-3V9c0-1.656-1.344-3-3-3z"/>
            <circle cx="36" cy="8" r="4" fill="#F8F8F8" stroke="#90A4AE" stroke-width="2"/>
            <g fill="#1A96A4" fill-rule="nonzero">
                <path d="M21 54a3.013 3.013 0 0 1-2.124-.876l-6-6a3.002 3.002 0 0 1 0-4.242 3.002 3.002 0 0 1 4.242 0L21 46.758l9.876-9.876a3.002 3.002 0 0 1 4.242 0 3.002 3.002 0 0 1 0 4.242l-12 12A2.99 2.99 0 0 1 21 54zM21 78a3.013 3.013 0 0 1-2.124-.876l-6-6a3.002 3.002 0 0 1 0-4.242 3.002 3.002 0 0 1 4.242 0L21 70.758l9.876-9.876a3.002 3.002 0 0 1 4.242 0 3.002 3.002 0 0 1 0 4.242l-12 12A2.99 2.99 0 0 1 21 78z"/>
            </g>
            <g fill="#90A4AE" fill-rule="nonzero">
                <path d="M57 48H45a3.001 3.001 0 0 1 0-6h12a3.001 3.001 0 0 1 0 6zM57 72H45a3.001 3.001 0 0 1 0-6h12a3.001 3.001 0 0 1 0 6z"/>
            </g>
        </g>
    </g>
</svg>
