<?xml version="1.0" encoding="UTF-8"?>
<svg width="32px" height="32px" viewBox="0 0 32 32" version="1.1" xmlns="http://www.w3.org/2000/svg" xmlns:xlink="http://www.w3.org/1999/xlink">
    <!-- Generator: Sketch 64 (93537) - https://sketch.com -->
    <title>Icon</title>
    <desc>Created with Sketch.</desc>
    <g id="Pages" stroke="none" stroke-width="1" fill="none" fill-rule="evenodd">
        <g id="01.-Desktop-large---from-1208" transform="translate(-539.000000, -1112.000000)" fill="#FFFFFE">
            <g id="Group-12" transform="translate(0.000000, 992.000000)">
                <g id="Buttons/Regular-button" transform="translate(496.000000, 104.000000)">
                    <g id="Group" transform="translate(39.000000, 12.000000)">
                        <g id="Icons/Buttons/Github">
                            <g id="github.button">
                                <path d="M19.9985267,4 C11.1643697,4 4,11.2528644 4,20.2003511 C4,27.3577439 8.58405721,33.4291462 14.9420179,35.5712921 C15.7425335,35.7204666 16.0342552,35.2202347 16.0342552,34.7906121 C16.0342552,34.4057419 16.020504,33.3873773 16.0126462,32.0358563 C11.562172,33.0144411 10.6231622,29.8638755 10.6231622,29.8638755 C9.89533135,27.9922327 8.84631204,27.4939899 8.84631204,27.4939899 C7.3935971,26.4895482 8.95632156,26.5094382 8.95632156,26.5094382 C10.562264,26.6238053 11.40698,28.1791981 11.40698,28.1791981 C12.834157,30.6545004 15.1522146,29.9394573 16.063722,29.5247522 C16.2090917,28.4785416 16.6226097,27.764493 17.0793456,27.3597328 C13.5266276,26.9509947 9.7912152,25.5606883 9.7912152,19.35304 C9.7912152,17.5848248 10.4149299,16.1378322 11.4384112,15.0060949 C11.273397,14.5963623 10.7243316,12.9484813 11.5955677,10.7188197 C11.5955677,10.7188197 12.9382731,10.2832301 15.9949661,12.3796291 C17.27088,12.0196213 18.6401056,11.8406119 20.0004911,11.8336505 C21.3598944,11.8406119 22.7281378,12.0196213 24.0060161,12.3796291 C27.0607447,10.2832301 28.4014856,10.7188197 28.4014856,10.7188197 C29.2746861,12.9484813 28.7256208,14.5963623 28.5615888,15.0060949 C29.5870346,16.1378322 30.2058381,17.5848248 30.2058381,19.35304 C30.2058381,25.5766003 26.4645324,26.9460222 22.9010099,27.3468044 C23.4746309,27.8470362 23.9863716,28.8355659 23.9863716,30.3462064 C23.9863716,32.5122202 23.966727,34.2595509 23.966727,34.7906121 C23.966727,35.2242127 24.255502,35.7284225 25.0668222,35.5702976 C31.4198717,33.4231792 36,27.3557549 36,20.2003511 C36,11.2528644 28.8356303,4 19.9985267,4" id="Fill-51"></path>
                            </g>
                        </g>
                    </g>
                </g>
            </g>
        </g>
    </g>
</svg>