<?xml version="1.0" encoding="UTF-8"?>
<svg width="16px" height="16px" viewBox="0 0 16 16" version="1.1" xmlns="http://www.w3.org/2000/svg" xmlns:xlink="http://www.w3.org/1999/xlink">
    <!-- Generator: Sketch 64 (93537) - https://sketch.com -->
    <title>Icon</title>
    <desc>Created with Sketch.</desc>
    <g id="Sources" stroke="none" stroke-width="1" fill="none" fill-rule="evenodd">
        <g id="Hovers" transform="translate(-284.000000, -133.000000)" fill="#05C0A5">
            <g id="Buttons/Icon/Text" transform="translate(282.000000, 131.000000)">
                <g id="Icons/Buttons/Github">
                    <g id="github.button">
                        <path d="M9.99926333,2 C5.58218484,2 2,5.6264322 2,10.1001756 C2,13.6788719 4.29202861,16.7145731 7.47100893,17.785646 C7.87126677,17.8602333 8.0171276,17.6101174 8.0171276,17.3953061 C8.0171276,17.202871 8.010252,16.6936887 8.00632309,16.0179282 C5.78108598,16.5072205 5.31158108,14.9319378 5.31158108,14.9319378 C4.94766567,13.9961164 4.42315602,13.746995 4.42315602,13.746995 C3.69679855,13.2447741 4.47816078,13.2547191 4.47816078,13.2547191 C5.28113202,13.3119026 5.70348998,14.0895991 5.70348998,14.0895991 C6.41707849,15.3272502 7.57610731,14.9697286 8.03186101,14.7623761 C8.10454587,14.2392708 8.31130483,13.8822465 8.5396728,13.6798664 C6.76331379,13.4754974 4.8956076,12.7803442 4.8956076,9.67651998 C4.8956076,8.79241242 5.20746493,8.06891608 5.71920562,7.50304746 C5.63669849,7.29818114 5.36216581,6.47424063 5.79778385,5.35940983 C5.79778385,5.35940983 6.46913656,5.14161506 7.99748304,6.18981457 C8.63544001,6.00981067 9.32005279,5.92030597 10.0002456,5.91682523 C10.6799472,5.92030597 11.3640689,6.00981067 12.0030081,6.18981457 C13.5303723,5.14161506 14.2007428,5.35940983 14.2007428,5.35940983 C14.6373431,6.47424063 14.3628104,7.29818114 14.2807944,7.50304746 C14.7935173,8.06891608 15.1029191,8.79241242 15.1029191,9.67651998 C15.1029191,12.7883001 13.2322662,13.4730111 11.4505049,13.6734022 C11.7373154,13.9235181 11.9931858,14.417783 11.9931858,15.1731032 C11.9931858,16.2561101 11.9833635,17.1297755 11.9833635,17.3953061 C11.9833635,17.6121064 12.127751,17.8642113 12.5334111,17.7851488 C15.7099358,16.7115896 18,13.6778774 18,10.1001756 C18,5.6264322 14.4178152,2 9.99926333,2" id="Fill-51"></path>
                    </g>
                </g>
            </g>
        </g>
    </g>
</svg>