<?xml version="1.0" encoding="UTF-8"?>
<svg width="20px" height="20px" viewBox="0 0 20 20" version="1.1" xmlns="http://www.w3.org/2000/svg" xmlns:xlink="http://www.w3.org/1999/xlink">
    <!-- Generator: Sketch 61.2 (89653) - https://sketch.com -->
    <title>github</title>
    <desc>Created with Sketch.</desc>
    <g id="Home" stroke="none" stroke-width="1" fill="none" fill-rule="evenodd">
        <g id="Desktop" transform="translate(-700.000000, -7956.000000)" fill="#FFFFFF">
            <g id="footer" transform="translate(0.000000, 7873.000000)">
                <g id="social" transform="translate(522.000000, 83.000000)">
                    <path d="M188,-6.4659389e-13 C182.475,-6.4659389e-13 178,4.4775 178,10 C178,14.4192 180.865,18.1667 184.838,19.4875 C185.338,19.5817 185.521,19.2725 185.521,19.0067 C185.521,18.7692 185.513,18.14 185.508,17.3067 C182.727,17.91 182.14,15.965 182.14,15.965 C181.685,14.8108 181.027,14.5025 181.027,14.5025 C180.122,13.8825 181.098,13.895 181.098,13.895 C182.102,13.965 182.629,14.925 182.629,14.925 C183.521,16.4542 184.97,16.0125 185.542,15.7567 C185.632,15.11 185.889,14.6692 186.175,14.4192 C183.954,14.1692 181.62,13.3092 181.62,9.4775 C181.62,8.3858 182.008,7.49417 182.649,6.79417 C182.537,6.54167 182.199,5.525 182.737,4.1475 C182.737,4.1475 183.574,3.87917 185.487,5.1725 C186.287,4.95 187.137,4.84 187.987,4.835 C188.837,4.84 189.687,4.95 190.487,5.1725 C192.387,3.87917 193.224,4.1475 193.224,4.1475 C193.762,5.525 193.424,6.54167 193.324,6.79417 C193.962,7.49417 194.349,8.3858 194.349,9.4775 C194.349,13.3192 192.012,14.165 189.787,14.4108 C190.137,14.7108 190.462,15.3242 190.462,16.2608 C190.462,17.5992 190.449,18.6742 190.449,18.9992 C190.449,19.2617 190.624,19.5742 191.137,19.4742 C195.138,18.1625 198,14.4125 198,10 C198,4.4775 193.523,-6.4659389e-13 188,-6.4659389e-13 Z" id="github"></path>
                </g>
            </g>
        </g>
    </g>
</svg>