<?xml version="1.0" encoding="UTF-8"?>
<svg width="70px" height="72px" viewBox="0 0 70 72" version="1.1" xmlns="http://www.w3.org/2000/svg" xmlns:xlink="http://www.w3.org/1999/xlink">
    <!-- Generator: Sketch 64 (93537) - https://sketch.com -->
    <title>Icons/How it works/Integrate in minutes</title>
    <desc>Created with Sketch.</desc>
    <g id="Pages" stroke="none" stroke-width="1" fill="none" fill-rule="evenodd">
        <g id="01.-Desktop-large---from-1208" transform="translate(-140.000000, -1944.000000)">
            <g id="Group-2" transform="translate(100.000000, 1392.000000)">
                <g id="Group-3" transform="translate(0.000000, 512.000000)">
                    <g id="Icons/How-it-works/Like" transform="translate(40.000000, 40.000000)">
                        <g id="like.icon" transform="translate(0.000000, -0.625000)">
                            <rect id="bounds" x="0" y="0.625" width="80" height="80"></rect>
                            <g id="Group" transform="translate(1.250000, 2.500000)">
                                <path d="M56.875,67.5 L34.1796479,67.4988135 C30.111177,67.4818159 23.9626348,67.2213048 19.261734,63.2286205 C18.7423799,62.7875099 14.68367,63.9059735 11.25,63.125 C7.43716443,62.2577869 4.22036074,59.4765964 3.75,58.75 C-1.2456309,51.0329285 2.5,38.125 6.25,34.375 C6.77534466,33.8496553 16.9989976,32.6792974 17.4247086,32.0862132 C18.6359885,30.3987047 20.1303848,28.9781653 21.8645667,27.7629371 C28.9055979,22.8289336 31.4946858,18.9027161 35.9559179,10.4932886 L36.875,8.75 C39.1539353,4.406739 38.8451593,0.625 43.75,0.625 C46.7358953,0.625 50.4956071,9.18554298 49.375,11.875 C47.2916667,16.875 47.0833333,17.2916667 45,25.625 C44.4612069,27.2413793 45.3158442,27.4643282 46.7630899,27.4950797 L47.5,27.5 L61.875,27.5 C64.6364237,27.5 66.875,29.7385763 66.875,32.5 C66.875,33.5088974 66.0764936,35.5446221 64.4794809,38.6071738 C63.8874973,39.7424062 65.1864212,43.5825852 64.375,45 C63.7931098,46.0164632 62.1264431,46.8497965 59.375,47.5 C62.0527442,47.5 64.2388486,49.6049606 64.3688809,52.2504496 L64.375,52.5 C64.375,55.1777442 62.2700394,57.3638486 59.6245504,57.4938809 L59.375,57.5 L55.3121176,57.5 L55.4158676,58.61125 L56.875,57.5 C59.5527442,57.5 61.7388486,59.6049606 61.8688809,62.2504496 L61.875,62.5 C61.875,65.2614237 59.6364237,67.5 56.875,67.5 Z" id="Shape" fill-opacity="0.10033326" fill="#05C0A5"></path>
                                <path d="M20,63.75 L13.6150114,63.75 C6.711452,63.75 1.11501138,58.1535594 1.11501138,51.25 C1.11501138,51.0898176 1.11809038,50.92965 1.12424669,50.769586 L1.41270823,43.269586 C1.67084961,36.5579102 7.18683476,31.25 13.9034729,31.25 L18.125,31.25 L18.125,31.25" id="Path" stroke="#05C0A5" stroke-width="3.75" stroke-linecap="round"></path>
                                <path d="M41.25,68.125 C36.3496965,68.125 21.25,67.5 16.2543691,59.7829285 C11.2587382,52.0658569 14.6202401,37.0226271 16.2543691,33.9670715 C17.6151792,31.4225779 19.5208969,29.4052641 21.8645667,27.7629371 C29.375,22.5 31.8201111,18.3836995 36.875,8.75 C39.1539353,4.406739 39.375,0.625 43.75,0.625 C47.5,0.625 50,4.375 50,9.375 C50,15.625 45,20.625 45,25 C45,26.875 45.625,27.5 48.125,27.5 C51.0416667,27.0833333 53.5416667,26.875 55.625,26.875" id="Path" stroke="#05C0A5" stroke-width="3.75" stroke-linejoin="round"></path>
                                <path d="M58.75,37.5 L61.875,37.5 C64.6364237,37.5 66.875,35.2614237 66.875,32.5 C66.875,28.75 62.9166667,26.875 55,26.875" id="Path" stroke="#05C0A5" stroke-width="3.75" stroke-linecap="round" stroke-linejoin="round"></path>
                                <path d="M58.125,47.5 L60.625,47.5 C63.3864237,47.5 65.625,45.2614237 65.625,42.5 C65.625,39.7385763 63.3864237,37.5 60.625,37.5" id="Path" stroke="#05C0A5" stroke-width="3.75" stroke-linecap="round" stroke-linejoin="round"></path>
                                <path d="M56.875,57.5 L59.375,57.5 C62.1364237,57.5 64.375,55.2614237 64.375,52.5 C64.375,49.7385763 62.1364237,47.5 59.375,47.5" id="Path" stroke="#05C0A5" stroke-width="3.75" stroke-linecap="round" stroke-linejoin="round"></path>
                                <path d="M41.25,68.125 C56.25,68.125 61.875,66.875 61.875,62.5 C61.875,59.7385763 59.6364237,57.5 56.875,57.5" id="Path" stroke="#05C0A5" stroke-width="3.75" stroke-linecap="round" stroke-linejoin="round"></path>
                            </g>
                            <g id="Group" transform="translate(13.750000, 2.500000)"></g>
                        </g>
                    </g>
                </g>
            </g>
        </g>
    </g>
</svg>