<?xml version="1.0" encoding="UTF-8"?>
<svg width="20px" height="20px" viewBox="0 0 20 20" version="1.1" xmlns="http://www.w3.org/2000/svg" xmlns:xlink="http://www.w3.org/1999/xlink">
    <!-- Generator: Sketch 61.2 (89653) - https://sketch.com -->
    <title>instagram</title>
    <desc>Created with Sketch.</desc>
    <g id="Home" stroke="none" stroke-width="1" fill="none" fill-rule="evenodd">
        <g id="Desktop" transform="translate(-612.000000, -7956.000000)" fill="#FFFFFF">
            <g id="footer" transform="translate(0.000000, 7873.000000)">
                <g id="social" transform="translate(522.000000, 83.000000)">
                    <path d="M100,0 C97.2833,0 96.9442,0.0125 95.8775,0.06 C94.8125,0.11 94.0875,0.2775 93.45,0.525 C92.7925,0.78 92.2342,1.1225 91.6783,1.67833 C91.1225,2.23417 90.7792,2.79167 90.525,3.45 C90.2775,4.0875 90.1092,4.8125 90.06,5.8775 C90.01,6.94417 90,7.28333 90,10 C90,12.7167 90.0125,13.0558 90.06,14.1225 C90.11,15.1867 90.2775,15.9125 90.525,16.55 C90.78,17.2067 91.1225,17.7658 91.6783,18.3217 C92.2342,18.8767 92.7917,19.2208 93.45,19.475 C94.0883,19.7217 94.8133,19.8908 95.8775,19.94 C96.9442,19.99 97.2833,20 100,20 C102.717,20 103.056,19.9875 104.123,19.94 C105.187,19.89 105.913,19.7217 106.55,19.475 C107.207,19.22 107.766,18.8767 108.322,18.3217 C108.877,17.7658 109.221,17.2092 109.475,16.55 C109.722,15.9125 109.891,15.1867 109.94,14.1225 C109.99,13.0558 110,12.7167 110,10 C110,7.28333 109.987,6.94417 109.94,5.8775 C109.89,4.81333 109.722,4.08667 109.475,3.45 C109.22,2.7925 108.877,2.23417 108.322,1.67833 C107.766,1.1225 107.209,0.77917 106.55,0.525 C105.913,0.2775 105.187,0.10917 104.123,0.06 C103.056,0.01 102.717,0 100,0 Z M100,1.8 C102.669,1.8 102.988,1.81333 104.042,1.85917 C105.017,1.905 105.546,2.06667 105.898,2.205 C106.366,2.38583 106.698,2.6025 107.049,2.95167 C107.398,3.30167 107.615,3.63417 107.796,4.1025 C107.932,4.45417 108.096,4.98333 108.14,5.95833 C108.188,7.01333 108.198,7.33 108.198,10 C108.198,12.67 108.186,12.9875 108.137,14.0417 C108.086,15.0167 107.923,15.5458 107.786,15.8975 C107.599,16.3658 107.387,16.6975 107.037,17.0492 C106.688,17.3983 106.35,17.615 105.887,17.7958 C105.537,17.9325 104.999,18.0958 104.024,18.14 C102.963,18.1875 102.65,18.1983 99.975,18.1983 C97.2992,18.1983 96.9867,18.1858 95.9258,18.1367 C94.95,18.0858 94.4125,17.9233 94.0625,17.7858 C93.5883,17.5992 93.2625,17.3867 92.9133,17.0367 C92.5625,16.6875 92.3383,16.35 92.1633,15.8867 C92.0258,15.5367 91.8642,14.9992 91.8133,14.0242 C91.7758,12.9742 91.7625,12.65 91.7625,9.9875 C91.7625,7.32417 91.7758,6.99917 91.8133,5.93667 C91.8642,4.96167 92.0258,4.425 92.1633,4.075 C92.3383,3.6 92.5625,3.275 92.9133,2.92417 C93.2625,2.575 93.5883,2.35 94.0625,2.17583 C94.4125,2.0375 94.9383,1.875 95.9133,1.825 C96.9758,1.7875 97.2883,1.775 99.9625,1.775 L100,1.8 Z M100,4.865 C97.1625,4.865 94.865,7.165 94.865,10 C94.865,12.8375 97.165,15.135 100,15.135 C102.837,15.135 105.135,12.835 105.135,10 C105.135,7.1625 102.835,4.865 100,4.865 Z M100,13.3333 C98.1583,13.3333 96.6667,11.8417 96.6667,10 C96.6667,8.1583 98.1583,6.66667 100,6.66667 C101.842,6.66667 103.333,8.1583 103.333,10 C103.333,11.8417 101.842,13.3333 100,13.3333 Z M106.538,4.6625 C106.538,5.325 106,5.8625 105.338,5.8625 C104.676,5.8625 104.138,5.32417 104.138,4.6625 C104.138,4.00083 104.677,3.46332904 105.338,3.46332904 C105.999,3.4625 106.538,4.00083 106.538,4.6625 Z" id="instagram"></path>
                </g>
            </g>
        </g>
    </g>
</svg>