<?xml version="1.0" encoding="UTF-8"?>
<svg width="20px" height="20px" viewBox="0 0 20 20" version="1.1" xmlns="http://www.w3.org/2000/svg" xmlns:xlink="http://www.w3.org/1999/xlink">
    <!-- Generator: Sketch 61.2 (89653) - https://sketch.com -->
    <title>linkedin</title>
    <desc>Created with Sketch.</desc>
    <g id="Home" stroke="none" stroke-width="1" fill="none" fill-rule="evenodd">
        <g id="Desktop" transform="translate(-656.000000, -7956.000000)" fill="#FFFFFF">
            <g id="footer" transform="translate(0.000000, 7873.000000)">
                <g id="social" transform="translate(522.000000, 83.000000)">
                    <path d="M151.039,17.0433 L148.077,17.0433 L148.077,12.4025 C148.077,11.2958 148.055,9.8717 146.534,9.8717 C144.99,9.8717 144.754,11.0758 144.754,12.3208 L144.754,17.0433 L141.793,17.0433 L141.793,7.5 L144.638,7.5 L144.638,8.8008 L144.676,8.8008 C145.073,8.0508 146.04,7.25917 147.484,7.25917 C150.485,7.25917 151.04,9.2342 151.04,11.805 L151.04,17.0433 L151.039,17.0433 Z M138.447,6.19417 C137.494,6.19417 136.728,5.4225 136.728,4.47333 C136.728,3.525 137.495,2.75417 138.447,2.75417 C139.398,2.75417 140.168,3.525 140.168,4.47333 C140.168,5.4225 139.397,6.19417 138.447,6.19417 Z M139.932,17.0433 L136.963,17.0433 L136.963,7.5 L139.932,7.5 L139.932,17.0433 Z M152.521,0 L135.476,0 C134.66,0 134,0.645 134,1.44083 L134,18.5592 C134,19.3558 134.66,20 135.476,20 L152.518,20 C153.333,20 154,19.3558 154,18.5592 L154,1.44083 C154,0.645 153.333,0 152.518,0 L152.521,0 Z" id="linkedin"></path>
                </g>
            </g>
        </g>
    </g>
</svg>