<?xml version="1.0" encoding="UTF-8"?>
<svg width="282px" height="48px" viewBox="0 0 282 48" version="1.1" xmlns="http://www.w3.org/2000/svg" xmlns:xlink="http://www.w3.org/1999/xlink">
    <!-- Generator: Sketch 64 (93537) - https://sketch.com -->
    <title>mewconnectprotocol.logo</title>
    <desc>Created with Sketch.</desc>
    <g id="Pages" stroke="none" stroke-width="1" fill="none" fill-rule="evenodd">
        <g id="01.-Desktop-large---from-1208" transform="translate(-98.000000, -42.000000)">
            <g id="Top-menu">
                <g id="logo-frame" transform="translate(100.000000, 32.000000)">
                    <g id="mewconnectprotocol.logo">
                        <rect id="bounds" x="0" y="0" width="288" height="68"></rect>
                        <g id="Group" transform="translate(64.000000, 11.000000)" fill="#000000" fill-rule="nonzero">
                            <path d="M3.94000065,21 L3.94000065,12.3999986 L8.12000133,21 L9.08000149,21 L13.2600022,12.3999986 L13.2600022,21 L15.8000026,21 L15.8000026,6.59999764 L13.3600022,6.59999764 L8.60000141,16.1599992 L3.84000063,6.59999764 L1.40000023,6.59999764 L1.40000023,21 L3.94000065,21 Z M28.0000018,21 L28.0000018,18.4599996 L21.3200007,18.4599996 L21.3200007,14.759999 L26.8000016,14.759999 L26.8000016,12.2199986 L21.3200007,12.2199986 L21.3200007,9.13999806 L28.0000018,9.13999806 L28.0000018,6.59999764 L18.6000002,6.59999764 L18.6000002,21 L28.0000018,21 Z M36.1000012,21 L38.8900016,11.2799984 L41.6800021,21 L44.3600025,21 L48.5800032,6.59999764 L45.7200027,6.59999764 L43.0200023,16.4999993 L40.3200019,6.59999764 L37.4600014,6.61999764 L34.7600009,16.4999993 L32.0600005,6.59999764 L29.2,6.59999764 L33.4200007,21 L36.1000012,21 Z M53.740001,21.3 C56.2400014,21.3 58.0200017,20.0199998 58.6400018,17.7199995 L55.8600014,17.1399994 C55.5400013,18.1799995 54.9600012,18.7599996 53.740001,18.7599996 C52.1000007,18.7599996 51.2600006,17.4799994 51.2600006,15.5999991 C51.2600006,13.7999988 52.0200007,12.4399986 53.740001,12.4399986 C54.7400012,12.4399986 55.6000013,13.0999987 55.9200014,14.2199989 L58.6400018,13.4999988 C58.1600017,11.2799984 56.3200014,9.89999818 53.780001,9.89999818 C50.4800005,9.89999818 48.3800001,12.3199986 48.3800001,15.5999991 C48.3800001,18.8399996 50.3800001,21.3 53.740001,21.3 Z M65.200001,21.3 C68.4400016,21.3 70.6800019,18.9599997 70.6800019,15.5999991 C70.6800019,12.2599986 68.4600016,9.89999818 65.200001,9.89999818 C62.0000005,9.89999818 59.7400001,12.2199986 59.7400001,15.5999991 C59.7400001,18.9399997 61.9400005,21.3 65.200001,21.3 Z M65.200001,18.7599996 C63.5000007,18.7599996 62.6200006,17.5399994 62.6200006,15.5999991 C62.6200006,13.7199988 63.4200007,12.4399986 65.200001,12.4399986 C66.9200013,12.4399986 67.8000015,13.6799988 67.8000015,15.5999991 C67.8000015,17.4599994 66.9400013,18.7599996 65.200001,18.7599996 Z M75.6200007,21 L75.6200007,15.5199991 C75.6200007,12.8399987 76.9800009,12.4399986 77.9200011,12.4399986 C80.2400014,12.4399986 80.2400014,14.919999 80.2400014,15.8999992 L80.2400014,21 L83.0000019,21 L83.0000019,14.939999 C83.0000019,14.0399989 83.0000019,9.87999818 78.7800012,9.87999818 C77.2300009,9.87999818 76.0600008,10.4399983 75.2800006,11.3099984 L75.2800006,10.1999982 L72.8600002,10.1999982 L72.8600002,21 L75.6200007,21 Z M88.3400007,21 L88.3400007,15.5199991 C88.3400007,12.8399987 89.7000009,12.4399986 90.6400011,12.4399986 C92.9600014,12.4399986 92.9600014,14.919999 92.9600014,15.8999992 L92.9600014,21 L95.7200019,21 L95.7200019,14.939999 C95.7200019,14.0399989 95.7200019,9.87999818 91.5000012,9.87999818 C89.9500009,9.87999818 88.7800008,10.4399983 88.0000006,11.3099984 L88.0000006,10.1999982 L85.5800002,10.1999982 L85.5800002,21 L88.3400007,21 Z M103.140001,21.3 C105.220001,21.3 107.120002,20.1599999 107.940002,18.1799995 L105.220001,17.3999982 C104.820001,18.2799996 104.040001,18.7599996 102.980001,18.7599996 C101.510001,18.7599996 100.650001,17.8999982 100.450001,16.3599992 L108.030002,16.3599992 C108.360002,12.4399986 106.380002,9.89999818 102.980001,9.89999818 C99.7800005,9.89999818 97.5200001,12.1999986 97.5200001,15.7399991 C97.5200001,18.9799997 99.8200005,21.3 103.140001,21.3 Z M105.280001,14.3399989 L100.520001,14.3399989 C100.800001,12.9699987 101.640001,12.2599986 103.100001,12.2599986 C104.410001,12.2599986 105.090001,12.8799987 105.280001,14.3399989 Z M115.040001,21.3 C117.540001,21.3 119.320002,20.0199998 119.940002,17.7199995 L117.160001,17.1399994 C116.840001,18.1799995 116.260001,18.7599996 115.040001,18.7599996 C113.400001,18.7599996 112.560001,17.4799994 112.560001,15.5999991 C112.560001,13.7999988 113.320001,12.4399986 115.040001,12.4399986 C116.040001,12.4399986 116.900001,13.0999987 117.220001,14.2199989 L119.940002,13.4999988 C119.460002,11.2799984 117.620001,9.89999818 115.080001,9.89999818 C111.78,9.89999818 109.68,12.3199986 109.68,15.5999991 C109.68,18.8399996 111.68,21.3 115.040001,21.3 Z M128.420001,21 L128.420001,18.7399996 C127.140001,18.9199997 126.000001,18.9599997 125.520001,18.1999977 C125.260001,17.7999995 125.300001,17.0999994 125.300001,16.2599992 L125.300001,12.2999986 L128.420001,12.2999986 L128.420001,10.1999977 L125.300001,10.1999977 L125.300001,7.19999774 L122.58,7.19999774 L122.58,10.1999977 L120.74,10.1999977 L120.74,12.2999986 L122.58,12.2999986 L122.58,16.4199992 C122.58,17.7199995 122.48,18.6799996 123.02,19.6599998 C123.900001,21.24 126.180001,21.4200001 128.420001,21 Z M137.540001,25.8000008 L137.540001,20.6099999 C138.240001,21.05 139.100001,21.3 140.120001,21.3 C143.100002,21.3 145.100002,18.8399996 145.100002,15.5999991 C145.100002,12.2999986 143.080002,9.89999818 139.980001,9.89999818 C138.860001,9.89999818 137.930001,10.2299982 137.200001,10.7999983 L137.200001,10.1999982 L134.8,10.1999982 L134.8,25.8000008 L137.540001,25.8000008 Z M139.680001,18.8799997 C137.860001,18.8799997 137.200001,17.5599994 137.200001,15.5999991 C137.200001,13.6399988 137.880001,12.3199986 139.580001,12.3199986 C141.400001,12.3199986 142.220001,13.7999988 142.220001,15.5999991 C142.220001,17.4199994 141.440001,18.8799997 139.680001,18.8799997 Z M150.040001,21 L150.040001,15.4799991 C150.040001,14.2399989 150.560001,13.3599987 151.520001,12.9199987 C152.160001,12.6199986 153.040001,12.5599986 153.640001,12.7399986 L153.640001,10.1999982 C152.660001,10.0799982 151.640001,10.2399982 150.860001,10.7199983 C150.360001,11.0099984 149.980001,11.4399984 149.700001,11.9399985 L149.700001,10.1999982 L147.3,10.1999982 L147.3,21 L150.040001,21 Z M160.200001,21.3 C163.440002,21.3 165.680002,18.9599997 165.680002,15.5999991 C165.680002,12.2599986 163.460002,9.89999818 160.200001,9.89999818 C157.000001,9.89999818 154.74,12.2199986 154.74,15.5999991 C154.74,18.9399997 156.94,21.3 160.200001,21.3 Z M160.200001,18.7599996 C158.500001,18.7599996 157.620001,17.5399994 157.620001,15.5999991 C157.620001,13.7199988 158.420001,12.4399986 160.200001,12.4399986 C161.920001,12.4399986 162.800001,13.6799988 162.800001,15.5999991 C162.800001,17.4599994 161.940001,18.7599996 160.200001,18.7599996 Z M174.360001,21 L174.360001,18.7399996 C173.080001,18.9199997 171.940001,18.9599997 171.460001,18.1999977 C171.200001,17.7999995 171.240001,17.0999994 171.240001,16.2599992 L171.240001,12.2999986 L174.360001,12.2999986 L174.360001,10.1999977 L171.240001,10.1999977 L171.240001,7.19999774 L168.52,7.19999774 L168.52,10.1999977 L166.68,10.1999977 L166.68,12.2999986 L168.52,12.2999986 L168.52,16.4199992 C168.52,17.7199995 168.42,18.6799996 168.96,19.6599998 C169.840001,21.24 172.120001,21.4200001 174.360001,21 Z M181.020001,21.3 C184.260002,21.3 186.500002,18.9599997 186.500002,15.5999991 C186.500002,12.2599986 184.280002,9.89999818 181.020001,9.89999818 C177.820001,9.89999818 175.56,12.2199986 175.56,15.5999991 C175.56,18.9399997 177.76,21.3 181.020001,21.3 Z M181.020001,18.7599996 C179.320001,18.7599996 178.440001,17.5399994 178.440001,15.5999991 C178.440001,13.7199988 179.240001,12.4399986 181.020001,12.4399986 C182.740001,12.4399986 183.620001,13.6799988 183.620001,15.5999991 C183.620001,17.4599994 182.760001,18.7599996 181.020001,18.7599996 Z M193.460001,21.3 C195.960001,21.3 197.740002,20.0199998 198.360002,17.7199995 L195.580001,17.1399994 C195.260001,18.1799995 194.680001,18.7599996 193.460001,18.7599996 C191.820001,18.7599996 190.980001,17.4799994 190.980001,15.5999991 C190.980001,13.7999988 191.740001,12.4399986 193.460001,12.4399986 C194.460001,12.4399986 195.320001,13.0999987 195.640001,14.2199989 L198.360002,13.4999988 C197.880002,11.2799984 196.040001,9.89999818 193.500001,9.89999818 C190.2,9.89999818 188.1,12.3199986 188.1,15.5999991 C188.1,18.8399996 190.1,21.3 193.460001,21.3 Z M204.920001,21.3 C208.160002,21.3 210.400002,18.9599997 210.400002,15.5999991 C210.400002,12.2599986 208.180002,9.89999818 204.920001,9.89999818 C201.720001,9.89999818 199.46,12.2199986 199.46,15.5999991 C199.46,18.9399997 201.66,21.3 204.920001,21.3 Z M204.920001,18.7599996 C203.220001,18.7599996 202.340001,17.5399994 202.340001,15.5999991 C202.340001,13.7199988 203.140001,12.4399986 204.920001,12.4399986 C206.640001,12.4399986 207.520001,13.6799988 207.520001,15.5999991 C207.520001,17.4599994 206.660001,18.7599996 204.920001,18.7599996 Z M215.520001,21 L215.520001,6.29999759 L212.8,6.29999759 L212.8,21 L215.520001,21 Z" id="MEWconnectprotocol"></path>
                            <path d="M4.77000078,41.225 C7.03500115,41.225 8.40000138,39.3724997 8.40000138,36.9424993 C8.40000138,34.5124989 7.02750115,32.6749986 4.77750078,32.6749986 C3.76500062,32.6749986 2.96250049,33.0274987 2.38500039,33.6349988 L2.38500039,30.1999982 L1.04250017,30.1999982 L1.04250017,41 L2.23500037,41 L2.23500037,40.0849999 C2.82750046,40.7975 3.6750006,41.225 4.77000078,41.225 Z M4.60500075,40.0024998 C2.97000049,40.0024998 2.23500037,38.7199996 2.23500037,36.9424993 C2.23500037,35.149999 2.98500049,33.8974988 4.56750075,33.8974988 C6.21750102,33.8974988 6.98250114,35.2324991 6.98250114,36.9424993 C6.98250114,38.6674996 6.20250102,40.0024998 4.60500075,40.0024998 Z M12.0225006,44.6000006 L16.4325013,32.8999987 L15.0750011,32.8999987 L12.7050007,39.2749997 L10.1775003,32.8999987 L8.77500004,32.8999987 L12.0600006,40.97 L10.7250004,44.6000006 L12.0225006,44.6000006 Z M21.9375004,41 L21.9375004,33.1324987 L25.605001,41 L26.3175011,41 L29.9850017,33.1324987 L29.9850017,40.9925 L31.2525019,40.9925 L31.2525019,30.1999982 L30.0225017,30.1999982 L25.965001,38.8024996 L21.8850004,30.1999982 L20.6700002,30.1999982 L20.6700002,41 L21.9375004,41 Z M35.7750006,44.6000006 L40.1850013,32.8999987 L38.8275011,32.8999987 L36.4575007,39.2749997 L33.9300003,32.8999987 L32.5275,32.8999987 L35.8125006,40.97 L34.4775004,44.6000006 L35.7750006,44.6000006 Z M48.2475013,41 L48.2475013,39.7324998 L42.7575004,39.7324998 L42.7575004,36.1174992 L47.3475011,36.1174992 L47.3475011,34.849999 L42.7575004,34.849999 L42.7575004,31.4674984 L48.2475013,31.4674984 L48.2475013,30.1999982 L41.4225002,30.1999982 L41.4225002,41 L48.2475013,41 Z M54.5700009,41 L54.5700009,39.8524998 C53.4600007,40.0249998 52.6500006,39.9799998 52.2900005,39.3349997 C52.0950005,38.9974997 52.1250005,38.5474996 52.1250005,37.8799995 L52.1250005,34.0024989 L54.5700009,34.0024989 L54.5700009,32.8999987 L52.1250005,32.8999987 L52.1250005,30.6499983 L50.7900003,30.6499983 L50.7900003,32.8999987 L49.1475,32.8999987 L49.1475,34.0024989 L50.7900003,34.0024989 L50.7900003,37.9399995 C50.7900003,38.7799996 50.7450003,39.3949997 51.0675003,40.0249998 C51.6300004,41.1275613 53.1225007,41.2925 54.5700009,41 Z M57.5625004,41 L57.5625004,36.7324993 C57.5625004,34.857499 58.4475005,33.9574988 59.7900008,33.9574988 C61.500001,33.9574988 61.9875011,35.4199991 61.9875011,36.9424993 L61.9875011,41 L63.3375013,41 L63.3375013,36.5224993 C63.3375013,34.984999 62.7225012,32.6899986 60.1125008,32.6899986 C58.9425006,32.6899986 58.0125005,33.1399987 57.4125004,33.9424988 L57.4125004,30.1999982 L56.2125002,30.1999982 L56.2125002,41 L57.5625004,41 Z M68.7975007,41.225 C70.365001,41.225 71.7075012,40.4074999 72.3450013,38.9749997 L71.0625011,38.5324996 C70.612501,39.4549997 69.8025009,39.9574998 68.7375007,39.9574998 C67.2450005,39.9574998 66.3750004,39.0049997 66.2700003,37.3249994 L72.4800014,37.3249994 C72.6000014,34.4449989 71.1750011,32.6749986 68.7375007,32.6749986 C66.3825004,32.6749986 64.8375001,34.3474989 64.8375001,37.0024993 C64.8375001,39.5374998 66.4050004,41.225 68.7975007,41.225 Z M71.0925011,36.2524992 L66.2925003,36.2524992 C66.4800004,34.714999 67.3275005,33.8749988 68.7825007,33.8749988 C70.155001,33.8749988 70.9275011,34.662499 71.0925011,36.2524992 Z M75.4875004,41 L75.4875004,36.9349993 C75.4875004,35.9749992 75.6825004,35.022499 76.4700006,34.4599989 C77.0325006,34.0474989 77.7600008,34.0099989 78.3225009,34.1524989 L78.3225009,32.8999987 C77.6025007,32.7424986 76.6500006,32.8924987 76.0275005,33.3949988 C75.7575004,33.5899988 75.5175004,33.8674988 75.3375004,34.1824989 L75.3375004,32.8999987 L74.1450002,32.8999987 L74.1450002,41 L75.4875004,41 Z M83.3850008,41 L85.8150012,32.5324986 L88.2450016,41 L89.5800018,41 L92.7075023,30.1999982 L91.3050021,30.1999982 L88.9125017,38.7424996 L86.5125013,30.1999982 L85.1100011,30.2074982 L82.7175007,38.7424996 L80.3175003,30.1999982 L78.9225,30.1999982 L82.0500005,41 L83.3850008,41 Z M95.6100005,41.225 C96.9600008,41.225 97.9650009,40.73 98.610001,39.7399998 L98.610001,41 L99.7950012,41 L99.7950012,35.9899992 C99.7950012,35.3524991 99.7575012,34.759999 99.5325012,34.2574989 C99.0675011,33.1999987 97.9650009,32.6749986 96.5025007,32.6749986 C94.6725004,32.6749986 93.5400002,33.5374988 93.1575001,34.954999 L94.4250004,35.3374991 C94.7175004,34.3474989 95.5050005,33.9199988 96.4875007,33.9199988 C97.8900009,33.9199988 98.445001,34.5349989 98.482501,35.8249992 C97.2825008,35.9899992 95.8575001,36.1624992 94.8450004,36.4324993 C93.6150002,36.7924993 92.8575001,37.5349994 92.8575001,38.8099996 C92.8575001,40.1149999 93.7950003,41.225 95.6100005,41.225 Z M95.8125006,40.1074999 C94.6575004,40.1074999 94.1850003,39.4699997 94.1850003,38.8024996 C94.1850003,38.0449995 94.7775004,37.6774995 95.4450005,37.4674994 C96.2325007,37.2424994 97.3275008,37.1149994 98.467501,36.9649993 C98.460001,37.3324994 98.445001,37.8499995 98.332501,38.2399995 C98.137501,39.2449997 97.2525008,40.1074999 95.8125006,40.1074999 Z M103.23,41 L103.23,29.9749982 L101.895,29.9749982 L101.895,41 L103.23,41 Z M106.965,41 L106.965,29.9749982 L105.63,29.9749982 L105.63,41 L106.965,41 Z M112.725001,41.225 C114.292501,41.225 115.635001,40.4074999 116.272501,38.9749997 L114.990001,38.5324996 C114.540001,39.4549997 113.730001,39.9574998 112.665001,39.9574998 C111.1725,39.9574998 110.3025,39.0049997 110.1975,37.3249994 L116.407501,37.3249994 C116.527501,34.4449989 115.102501,32.6749986 112.665001,32.6749986 C110.31,32.6749986 108.765,34.3474989 108.765,37.0024993 C108.765,39.5374998 110.3325,41.225 112.725001,41.225 Z M115.020001,36.2524992 L110.22,36.2524992 C110.4075,34.714999 111.255001,33.8749988 112.710001,33.8749988 C114.082501,33.8749988 114.855001,34.662499 115.020001,36.2524992 Z M122.595001,41 L122.595001,39.8524998 C121.485001,40.0249998 120.675001,39.9799998 120.315001,39.3349997 C120.120001,38.9974997 120.150001,38.5474996 120.150001,37.8799995 L120.150001,34.0024989 L122.595001,34.0024989 L122.595001,32.8999987 L120.150001,32.8999987 L120.150001,30.6499983 L118.815,30.6499983 L118.815,32.8999987 L117.1725,32.8999987 L117.1725,34.0024989 L118.815,34.0024989 L118.815,37.9399995 C118.815,38.7799996 118.77,39.3949997 119.0925,40.0249998 C119.655,41.1275613 121.147501,41.2925 122.595001,41 Z" id="byMyEtherWallet" opacity="0.621651786"></path>
                        </g>
                        <g id="Logo/MEWconnect" transform="translate(0.000000, 10.000000)" fill="#05C0A5">
                            <g id="Group-2" transform="translate(-1.818182, 0.000000)">
                                <path d="M25.8181818,0 C39.0741295,0 49.8181818,10.7456209 49.8181818,24 C49.8181818,26.1185396 49.5436543,28.1729858 49.0282344,30.1297035 L48.9441438,30.0902141 C50.7858831,30.8910251 51.6297221,33.0332354 50.8289111,34.8749746 C50.0400762,36.6891707 47.9496632,37.5350906 46.1269761,36.7945689 C41.8770716,43.5269039 34.369789,48 25.8181818,48 C12.5638027,48 1.81818182,37.2543791 1.81818182,24 C1.81818182,21.8814604 2.09268264,19.8270142 2.60806194,17.8702965 L2.69221981,17.9097859 C0.850480559,17.1089749 0.00664149944,14.9667646 0.807452517,13.1250254 C1.59628744,11.3108293 3.68670048,10.4649094 5.50938755,11.2054311 C9.75955437,4.47265451 17.2663221,0 25.8181818,0 Z M4.02367387,18.2104238 L4.01623977,18.2360526 C3.53112661,20.0758928 3.27272727,22.0077717 3.27272727,24 C3.27272727,36.4510558 13.367126,46.5454545 25.8181818,46.5454545 C33.863512,46.5454545 40.924895,42.3308596 44.9148269,35.9891737 C44.0608764,35.1299222 43.678362,33.8805107 43.93613,32.670758 L18.1797018,21.4736487 C18.179157,21.5859545 18.1760677,21.6770604 18.1674629,21.7155556 C17.973761,22.3470748 17.8597617,23.0003311 17.8281165,23.6601307 C17.8141317,23.7908757 17.8092398,23.9224337 17.8134759,24.0538562 C17.8134759,24.084183 17.8176589,24.1139869 17.8192276,24.1443137 C17.8482925,26.5554702 18.9697306,28.8232296 20.8682115,30.3099341 C22.7666924,31.7966387 26.3794612,32.1861829 28.7272727,31.6363636 L32,37.8181818 C29.8181818,38.9090909 27.6835983,39.0857705 25.8181818,39.0834674 C17.7047178,39.0834674 10.7483779,32.5061438 10.7483779,24.3905882 C10.7483779,22.6253338 10.9437312,20.2356668 11.4976224,18.5652801 L7.11977879,16.6636734 C6.41023298,17.6774543 5.23470844,18.2495598 4.02367387,18.2104238 Z M45.4932889,32.55498 C45.0128023,33.6600236 45.5191057,34.9453497 46.6241492,35.4258363 C47.7291928,35.9063229 49.0145189,35.4000195 49.4950056,34.294976 C49.9754922,33.1899324 49.4691887,31.9046063 48.3641452,31.4241196 C47.2591016,30.943633 45.9737755,31.4499365 45.4932889,32.55498 Z M25.8181818,1.45454545 C17.7722534,1.45454545 10.7108753,5.66915545 6.72113158,12.0110455 C7.5754872,12.8700778 7.95800162,14.1194893 7.70023366,15.329242 L25.3349297,22.997 L33.8322995,22.96 C33.4537374,19.136732 29.5243256,16.0287582 25.8187047,16.0287582 C24.9783568,16.0280314 22.9764123,16.4537672 22.1818182,16.7272727 L18.9090909,10.1818182 C20.8285088,9.30240587 23.708466,8.91569987 25.8197504,8.9186417 C33.9332145,8.9186417 41.0909091,15.5228996 41.0909091,23.6363636 C41.0895596,25.5192973 40.6490739,27.6255808 39.9797219,29.365532 L44.5165849,31.3363266 C45.2263262,30.3222664 46.4023031,29.7501249 47.6136909,29.7896087 C48.1026782,27.9429593 48.3636364,26.0019416 48.3636364,24 C48.3636364,11.5483877 38.2702498,1.45454545 25.8181818,1.45454545 Z M2.14135808,13.705024 C1.66087147,14.8100676 2.16717491,16.0953937 3.27221846,16.5758804 C4.37726201,17.056367 5.66258816,16.5500635 6.14307477,15.44502 C6.62356138,14.3399764 6.11725794,13.0546503 5.01221439,12.5741637 C3.90717084,12.0936771 2.62184469,12.5999805 2.14135808,13.705024 Z" id="logo" fill-rule="nonzero"></path>
                            </g>
                        </g>
                    </g>
                </g>
            </g>
        </g>
    </g>
</svg>