<?xml version="1.0" encoding="UTF-8"?>
<svg width="20px" height="16px" viewBox="0 0 20 16" version="1.1" xmlns="http://www.w3.org/2000/svg" xmlns:xlink="http://www.w3.org/1999/xlink">
    <!-- Generator: Sketch 61.2 (89653) - https://sketch.com -->
    <title>medium</title>
    <desc>Created with Sketch.</desc>
    <g id="Home" stroke="none" stroke-width="1" fill="none" fill-rule="evenodd">
        <g id="Desktop" transform="translate(-790.000000, -7958.000000)" fill="#FFFFFF">
            <g id="footer" transform="translate(0.000000, 7873.000000)">
                <g id="social" transform="translate(522.000000, 83.000000)">
                    <path d="M270.372,5.23917 C270.397,4.99333 270.303,4.75083 270.119,4.58583 L268.252,2.33583 L268.252,2 L274.05,2 L278.532,11.8292 L282.472,2 L288,2 L288,2.33583 L286.403,3.86667 C286.265,3.97167 286.197,4.14417 286.225,4.315 L286.225,15.565 C286.197,15.735 286.265,15.9067 286.403,16.0125 L287.961,17.5433 L287.961,17.8792 L280.119,17.8792 L280.119,17.5433 L281.733,15.975 C281.892,15.8167 281.892,15.77 281.892,15.5267 L281.892,6.43417 L277.4,17.8408 L276.794,17.8408 L271.565,6.43417 L271.565,14.0792 C271.522,14.4008 271.628,14.7242 271.854,14.9567 L273.954,17.5067 L273.954,17.8417 L268,17.8417 L268,17.5058 L270.1,14.9558 C270.325,14.7242 270.425,14.3975 270.372,14.0792 L270.372,5.23917 Z" id="medium"></path>
                </g>
            </g>
        </g>
    </g>
</svg>