<?xml version="1.0" encoding="UTF-8"?>
<svg width="167px" height="24px" viewBox="0 0 167 24" version="1.1" xmlns="http://www.w3.org/2000/svg" xmlns:xlink="http://www.w3.org/1999/xlink">
    <!-- Generator: Sketch 64 (93537) - https://sketch.com -->
    <title>Logo/Powered by MEW</title>
    <desc>Created with Sketch.</desc>
    <g id="Pages" stroke="none" stroke-width="1" fill="none" fill-rule="evenodd">
        <g id="01.-Desktop-large---from-1208" transform="translate(-140.000000, -5472.000000)">
            <g id="footer" transform="translate(0.000000, 5384.000000)">
                <g id="Logo/Powered-by-MEW" transform="translate(140.000000, 88.000000)">
                    <g id="poweredbymew.logo">
                        <g id="Group" transform="translate(111.000000, 4.000000)" fill="#FFFFFF" fill-rule="nonzero">
                            <path d="M3.76446081,0.0175417559 L8.0551743,8.27269208 L12.3844797,0.0175417559 L16.0998236,0.0175417559 L16.0998236,15.9419478 L12.4406133,15.9419478 L12.4406133,6.94302698 L9.07961285,13.366818 L7.04827752,13.366818 L3.68727709,6.93951863 L3.68727709,15.9419478 L0.0280668094,15.9419478 L0.0280668094,0.0175417559 L3.76446081,0.0175417559 Z M29.7227512,0.0175417559 L29.7227512,3.31539186 L22.3025884,3.31539186 L22.3025884,6.27994861 L28.712346,6.27994861 L28.712346,9.38133105 L22.3025884,9.38133105 L22.3025884,12.647606 L29.9122021,12.647606 L29.9122021,15.9419478 L18.6433782,15.9419478 L18.6433782,0.0175417559 L29.7227512,0.0175417559 Z M35.5922227,0.0175417559 L39.6864685,11.2056737 L41.1880428,7.33245396 L38.5076625,0.05964197 L41.9844385,0.05964197 L43.447421,4.36088051 L44.9104034,0.05964197 L48.4117379,0.05964197 L45.6927657,7.33245396 L47.2329319,11.2161987 L51.309636,0.0175417559 L55.2916146,0.0175417559 L48.8116899,15.9419478 L45.8541499,15.9419478 L43.4509293,10.1215931 L41.0477088,15.9419478 L38.0901687,15.9419478 L31.6523443,0.0175417559 L35.5922227,0.0175417559 Z" id="Combined-Shape"></path>
                        </g>
                        <g id="Group-6" transform="translate(83.000000, 0.000000)" fill-rule="nonzero">
                            <path d="M12,0 C5.37268446,0 0,5.37352803 0,11.9981159 C0,18.626472 5.37268446,24 12,24 C18.6273155,24 24,18.626472 24,11.9981159 C24,5.37352803 18.6273155,0 12,0 Z" id="Shape" fill="#1B96A4"></path>
                            <path d="M5.01025513,9.32638021 L8.23311656,10.6978516 C8.22186093,10.7428179 8.2106053,10.8027729 8.1955978,10.8664751 C8.1018009,11.1737447 8.04177089,11.4997502 8.02676338,11.8332501 C8.01925963,11.9081939 8.01550775,11.9756433 8.01925963,12.0281039 C8.01925963,12.0430927 8.02301151,12.0580814 8.02301151,12.0730702 C8.04927464,14.2351986 9.80890445,15.9776418 11.9774887,15.9776418 C12.2888944,15.9776418 12.5927964,15.9401699 12.8816908,15.8727205 L14.7126063,18.9791406 C13.875938,19.3163877 12.9604802,19.5 12.0037519,19.5 C7.96298149,19.5 4.5,16.2287035 4.5,12.1967275 C4.5,11.2486885 4.68009005,10.1545091 5.01025513,9.32638021 Z M12.0075038,4.5 C16.0482741,4.5 19.5,7.83125156 19.5,11.8632276 C19.4924962,12.9536598 19.3536768,14.0403447 18.925963,14.9659006 L10.7468734,11.5034974 L15.9957479,11.4810142 C15.8081541,9.58118911 13.8496748,8.0335998 12.0075038,8.0335998 C11.576038,8.0335998 11.1633317,8.1047964 10.7768884,8.23969523 L8.96098049,5.15950537 C9.88769385,4.73607295 10.9194597,4.5 12.0075038,4.5 Z" id="Combined-Shape" fill="#FFFFFF"></path>
                        </g>
                        <path d="M1.4599989,15.84 L1.4599989,13.2373333 L3.26352695,13.2373333 C3.40308567,13.2373333 3.70367368,13.2266667 3.90764411,13.1946667 C5.28176072,12.9813333 5.90440731,11.9893333 5.90440731,10.6986667 C5.90440731,9.408 5.29249601,8.416 3.90764411,8.20266667 C3.70367368,8.17066667 3.41382095,8.16 3.26352695,8.16 L0,8.16 L0,15.84 L1.4599989,15.84 Z M3.19911523,11.8826667 L1.4599989,11.8826667 L1.4599989,9.51466667 L3.19911523,9.51466667 C3.34940924,9.51466667 3.54264439,9.52533333 3.69293839,9.568 C4.28337912,9.728 4.43367313,10.2826667 4.43367313,10.6986667 C4.43367313,11.1146667 4.28337912,11.6693333 3.69293839,11.8293333 C3.54264439,11.872 3.34940924,11.8826667 3.19911523,11.8826667 Z M11.1209292,16 C13.439751,16 14.8675441,14.3893333 14.8675441,12 C14.8675441,9.61066667 13.439751,8 11.1209292,8 C8.80210747,8 7.37431443,9.61066667 7.37431443,12 C7.37431443,14.3893333 8.80210747,16 11.1209292,16 Z M11.1209292,14.6346667 C9.65019506,14.6133333 8.92019561,13.6 8.92019561,12 C8.92019561,10.4 9.65019506,9.344 11.1209292,9.36533333 C12.5916634,9.38666667 13.3216629,10.4 13.3216629,12 C13.3216629,13.6 12.5916634,14.656 11.1209292,14.6346667 Z M19.5043604,15.84 L21.0019328,10.656 L22.4995052,15.84 L23.9380335,15.84 L26.2031789,8.16 L24.668033,8.16 L23.2187694,13.44 L21.7695058,8.16 L20.2343599,8.17066667 L18.7850963,13.44 L17.3358326,8.16 L15.8006867,8.16 L18.0658321,15.84 L19.5043604,15.84 Z M32.9333756,15.84 L32.9333756,14.4853333 L29.34779,14.4853333 L29.34779,12.512 L32.2892584,12.512 L32.2892584,11.1573333 L29.34779,11.1573333 L29.34779,9.51466667 L32.9333756,9.51466667 L32.9333756,8.16 L27.8877911,8.16 L27.8877911,15.84 L32.9333756,15.84 Z M36.5073988,15.84 L36.5073988,13.2373333 L38.1337947,13.2373333 L39.4059261,15.84 L41.0591601,15.84 L39.6635729,12.992 C40.5438664,12.592 40.9518073,11.744 40.9518073,10.6986667 C40.9518073,9.408 40.339896,8.416 38.9550441,8.20266667 C38.7510736,8.17066667 38.4612209,8.16 38.3109269,8.16 L35.0473999,8.16 L35.0473999,15.84 L36.5073988,15.84 Z M38.2465152,11.8826667 L36.5073988,11.8826667 L36.5073988,9.51466667 L38.2465152,9.51466667 C38.3968092,9.51466667 38.5900443,9.52533333 38.7403383,9.568 C39.3307791,9.728 39.4810731,10.2826667 39.4810731,10.6986667 C39.4810731,11.1146667 39.3307791,11.6693333 38.7403383,11.8293333 C38.5900443,11.872 38.3968092,11.8826667 38.2465152,11.8826667 Z M48.1114159,15.84 L48.1114159,14.4853333 L44.5258304,14.4853333 L44.5258304,12.512 L47.4672988,12.512 L47.4672988,11.1573333 L44.5258304,11.1573333 L44.5258304,9.51466667 L48.1114159,9.51466667 L48.1114159,8.16 L43.0658315,8.16 L43.0658315,15.84 L48.1114159,15.84 Z M53.6499966,15.7973333 C55.5179363,15.5733333 56.5592591,13.952 56.5592591,12 C56.5592591,10.048 55.5179363,8.42666667 53.6499966,8.20266667 C53.2957321,8.16 52.8448501,8.16 52.726762,8.16 L50.2254403,8.16 L50.2254403,15.84 L52.8500778,15.8395318 C53.0404709,15.837893 53.3744575,15.8305185 53.6499966,15.7973333 Z M52.8372459,14.4744198 L51.7069098,14.4746667 L51.7069098,9.52533333 L52.726762,9.52533333 C52.9199971,9.52533333 53.2957321,9.52533333 53.5641143,9.57866667 C54.5410253,9.77066667 55.0133779,10.848 55.0133779,12 C55.0133779,13.0986667 54.5732312,14.2186667 53.5641143,14.4213333 C53.3404625,14.4657778 53.0422601,14.4731852 52.8372459,14.4744198 Z M65.0706874,15.84 C66.6487745,15.84 67.4109798,14.8906667 67.4109798,13.5146667 C67.4109798,12.7786667 67.0513477,12.1013333 66.3267159,11.8026667 C66.7829655,11.5253333 67.0567153,11.0133333 67.0567153,10.3146667 C67.0567153,9.30133333 66.3911276,8.16 64.7378936,8.16 L61.6461312,8.16 L61.6461312,15.84 L65.0706874,15.84 Z M64.716423,11.1573333 L63.1276007,11.1573333 L63.1276007,9.51466667 L64.716423,9.51466667 C65.2746579,9.51466667 65.5752459,9.87733333 65.5752459,10.3466667 C65.5752459,10.912 65.2102461,11.1573333 64.716423,11.1573333 Z M64.9203934,14.4746667 L63.1276007,14.4746667 L63.1276007,12.512 L64.9203934,12.512 C65.5967164,12.512 65.9402456,12.9173333 65.9402456,13.4613333 C65.9402456,14.08 65.5108342,14.4746667 64.9203934,14.4746667 Z M72.3591196,15.84 L72.3591196,12.7146667 L75,8.16 L73.2930895,8.16 L71.6183849,11.0506667 L69.9436803,8.16 L68.2367698,8.16 L70.8776502,12.7146667 L70.8776502,15.84 L72.3591196,15.84 Z" id="POWEREDBY" fill="#FFFFFF" fill-rule="nonzero" opacity="0.699999988"></path>
                    </g>
                </g>
            </g>
        </g>
    </g>
</svg>