<?xml version="1.0" encoding="UTF-8"?>
<svg width="22px" height="19px" viewBox="0 0 22 19" version="1.1" xmlns="http://www.w3.org/2000/svg" xmlns:xlink="http://www.w3.org/1999/xlink">
    <!-- Generator: Sketch 61.2 (89653) - https://sketch.com -->
    <title>reddit</title>
    <desc>Created with Sketch.</desc>
    <g id="Home" stroke="none" stroke-width="1" fill="none" fill-rule="evenodd">
        <g id="Desktop" transform="translate(-744.000000, -7956.000000)" fill="#FFFFFF">
            <g id="footer" transform="translate(0.000000, 7873.000000)">
                <g id="social" transform="translate(522.000000, 83.000000)">
                    <path d="M224.02,11.0811 C223.965,11.3341 223.937,11.5944 223.937,11.8575 C223.937,15.0135 227.972,17.5855 232.933,17.5855 C237.892,17.5855 241.927,15.0153 241.927,11.8575 C241.927,11.6064 241.9,11.357 241.851,11.116 L241.838,11.0866 C241.818,11.0362 241.811,10.9858 241.811,10.9354 C241.534,9.8583 240.787,8.8812 239.707,8.0911 C239.665,8.0764 239.626,8.0553 239.591,8.0269 C239.567,8.0086 239.55,7.98842 239.53,7.96825 C237.887,6.83713 235.537,6.12766 232.934,6.12766 C230.353,6.12766 228.026,6.82338 226.383,7.93434 C226.37,7.95084 226.357,7.96459 226.338,7.97925 C226.303,8.0095 226.261,8.0342 226.219,8.048 C225.114,8.8381 224.347,9.8235 224.061,10.9106 C224.061,10.9638 224.049,11.0151 224.028,11.0674 L224.02,11.0811 Z M232.978,16.0685 C231.334,16.0685 230.176,15.7119 229.438,14.9713 C229.279,14.8118 229.279,14.5524 229.438,14.392 C229.599,14.2407 229.859,14.2407 230.02,14.392 C230.597,14.9685 231.564,15.2564 232.978,15.2564 C234.392,15.2564 235.353,14.9814 235.929,14.4048 C236.08,14.2545 236.342,14.2545 236.506,14.4048 C236.657,14.5698 236.657,14.8311 236.506,14.996 C235.764,15.7367 234.613,16.0942 232.966,16.0942 L232.978,16.0685 Z M229.673,9.1269 C228.835,9.1269 228.136,9.8281 228.136,10.6641 C228.136,11.4982 228.835,12.1765 229.673,12.1765 C230.511,12.1765 231.186,11.4982 231.186,10.6641 C231.186,9.8281 230.509,9.1269 229.673,9.1269 Z M236.303,9.1269 C235.465,9.1269 234.765,9.8281 234.765,10.6641 C234.765,11.4982 235.465,12.1765 236.303,12.1765 C237.141,12.1765 237.816,11.4982 237.816,10.6641 C237.816,9.8281 237.139,9.1269 236.303,9.1269 Z M240.472,7.66485 C241.422,8.4284 242.122,9.334 242.478,10.3267 C242.891,10.0188 243.137,9.5348 243.137,8.9985 C243.137,8.0801 242.39,7.33395 241.471,7.33395 C241.105,7.33395 240.758,7.45219 240.472,7.66668 L240.472,7.66485 Z M224.485,7.33578 C223.566,7.33578 222.819,8.0837 222.819,9.0022 C222.819,9.4999 223.039,9.9628 223.41,10.2754 C223.777,9.2864 224.484,8.3936 225.438,7.63918 C225.161,7.44669 224.831,7.33761 224.486,7.33761 L224.486,7.33578 L224.485,7.33578 Z M232.934,18.4077 C227.52,18.4077 223.117,15.4699 223.117,11.8612 C223.117,11.6091 223.138,11.3625 223.18,11.1196 C222.453,10.6677 222,9.8712 222,8.9985 C222,7.62727 223.125,6.51173 224.498,6.51173 C225.116,6.51173 225.692,6.73722 226.145,7.13687 C227.846,6.04517 230.139,5.35769 232.664,5.31095 L234.325,0.24749 L234.695,0.33457 C234.695,0.33457 234.71,0.33457 234.71,0.3364 L238.581,1.24661 C238.896,0.51515 239.624,-1.24344979e-13 240.474,-1.24344979e-13 C241.6,-1.24344979e-13 242.519,0.92029 242.519,2.04775 C242.519,3.17703 241.599,4.0955 240.474,4.0955 C239.348,4.0955 238.43,3.1752 238.43,2.05141 L234.9,1.21545 L233.555,5.3192 C235.984,5.41544 238.181,6.102 239.828,7.1717 C240.281,6.74639 240.877,6.51265 241.509,6.51265 C242.882,6.51265 244,7.62452 244,8.9976 C244,9.9023 243.505,10.7264 242.737,11.1655 C242.763,11.3992 242.791,11.6183 242.791,11.852 C242.777,15.4617 238.386,18.3995 232.965,18.3995 L232.934,18.4077 Z M240.431,0.82038 C239.752,0.82038 239.202,1.36944 239.202,2.04683 C239.202,2.7233 239.752,3.27511 240.431,3.27511 C241.102,3.27511 241.65,2.72514 241.65,2.05233 C241.65,1.38044 241.102,0.83138 240.415,0.83138 L240.431,0.82038 Z" id="reddit"></path>
                </g>
            </g>
        </g>
    </g>
</svg>