<?xml version="1.0" encoding="UTF-8"?>
<svg width="65px" height="80px" viewBox="0 0 65 80" version="1.1" xmlns="http://www.w3.org/2000/svg" xmlns:xlink="http://www.w3.org/1999/xlink">
    <!-- Generator: Sketch 64 (93537) - https://sketch.com -->
    <title>Icons/How it works/Integrate in minutes</title>
    <desc>Created with Sketch.</desc>
    <g id="Pages" stroke="none" stroke-width="1" fill="none" fill-rule="evenodd">
        <g id="01.-Desktop-large---from-1208" transform="translate(-700.000000, -1432.000000)">
            <g id="Group-2" transform="translate(100.000000, 1392.000000)">
                <g id="Group-3" transform="translate(560.000000, 0.000000)">
                    <g id="Icons/How-it-works/Secure" transform="translate(40.000000, 40.000000)">
                        <g id="secure.icon">
                            <rect id="bounds" x="0" y="0" width="80" height="80"></rect>
                            <path d="M32.4999899,1.875 C31.6588622,1.875 30.7898433,2.12576231 29.7059131,2.40846321 C25.7619195,3.49962747 9.64702321,9.65544273 5.70326024,11.3420021 C4.40077322,11.8984692 3.30516702,12.3962858 2.62231863,13.3193022 C2.09785384,14.0282291 1.875,14.9864142 1.875,16.330649 L1.875,46.4871549 C1.875,52.9377917 3.44513799,57.5045323 7.28082377,61.7150478 C11.83398,66.7131461 19.3746377,71.2166216 30.7632153,77.6138465 C31.4663526,78.0045785 32.1100864,78.125 32.4999899,78.125 C32.88996,78.125 33.5336272,78.0045785 34.2442405,77.6096695 C45.6253461,71.2166194 53.1660106,66.7131428 57.7191718,61.7150425 C61.5548588,57.5045285 63.125,52.9377891 63.125,46.4871549 L63.125,16.330649 C63.125,14.9962302 62.9058468,14.0501621 62.3871607,13.349035 C61.6990408,12.4188779 60.5912004,11.9165124 59.2736282,11.3318984 C55.3244536,9.59332965 39.1853878,3.78371476 35.1911206,2.37666025 C34.3474191,2.09004227 33.4248919,1.875 32.4999899,1.875 Z" id="Shape" stroke="#05C0A5" stroke-width="3.75" fill-opacity="0.100087413" fill="#05C0A5"></path>
                        </g>
                    </g>
                </g>
            </g>
        </g>
    </g>
</svg>