<?xml version="1.0" encoding="UTF-8"?>
<svg width="24px" height="24px" viewBox="0 0 24 24" version="1.1" xmlns="http://www.w3.org/2000/svg" xmlns:xlink="http://www.w3.org/1999/xlink">
    <title>F6314D3D-B0E3-4982-BE67-625A873CD61F@1.00x</title>
    <g id="Symbols" stroke="none" stroke-width="1" fill="none" fill-rule="evenodd">
        <g id="telegram">
            <rect id="bounds" x="0" y="0" width="24" height="24"></rect>
            <path d="M2.34876414,10.8390542 L15.4534251,5.49634513 C16.7470182,4.93981294 21.1339863,3.15890992 21.1339863,3.15890992 C21.1339863,3.15890992 23.1587408,2.37976485 22.9900112,4.27197431 C22.933768,5.05111938 22.4838226,7.77812713 22.0338772,10.7277478 L20.6277977,19.4653032 C20.6277977,19.4653032 20.5153113,20.7453272 19.5591772,20.9679401 C18.6030432,21.190553 17.0282341,20.188795 16.7470182,19.9661822 C16.5220455,19.7992225 12.5287797,17.2948276 11.066457,16.0704568 C10.6727548,15.7365375 10.2228093,15.0686989 11.1227002,14.2895538 C13.1474547,12.4529976 15.5659114,10.1712156 17.0282341,8.72423186 C17.7031523,8.05639323 18.3780704,6.49810308 15.5659114,8.39031254 L7.63562306,13.6773684 C7.63562306,13.6773684 6.73573218,14.2339006 5.04843678,13.7330216 C3.36114138,13.2321426 1.39263008,12.564304 1.39263008,12.564304 C1.39263008,12.564304 0.0427937618,11.7295057 2.34876414,10.8390542 Z" id="Path" fill="#FFFFFF"></path>
        </g>
    </g>
</svg>