<?xml version="1.0" encoding="UTF-8"?>
<svg width="16px" height="16px" viewBox="0 0 16 16" version="1.1" xmlns="http://www.w3.org/2000/svg" xmlns:xlink="http://www.w3.org/1999/xlink">
    <!-- Generator: Sketch 64 (93537) - https://sketch.com -->
    <title>Icon</title>
    <desc>Created with Sketch.</desc>
    <g id="Pages" stroke="none" stroke-width="1" fill="none" fill-rule="evenodd">
        <g id="01.-Desktop-large---from-1208" transform="translate(-1044.000000, -58.000000)">
            <g id="Top-menu">
                <g id="mewtools.button" transform="translate(1034.000000, 48.000000)">
                    <g id="Button/Icon/Text" transform="translate(8.000000, 8.000000)">
                        <g id="Icons/Buttons/mewtools">
                            <g id="mewtools.button">
                                <rect id="bounds" x="0" y="0" width="20" height="20"></rect>
                                <path d="M4,14 C5.1045695,14 6,14.8954305 6,16 C6,17.1045695 5.1045695,18 4,18 C2.8954305,18 2,17.1045695 2,16 C2,14.8954305 2.8954305,14 4,14 Z M10,14 C11.1045695,14 12,14.8954305 12,16 C12,17.1045695 11.1045695,18 10,18 C8.8954305,18 8,17.1045695 8,16 C8,14.8954305 8.8954305,14 10,14 Z M16,14 C17.1045695,14 18,14.8954305 18,16 C18,17.1045695 17.1045695,18 16,18 C14.8954305,18 14,17.1045695 14,16 C14,14.8954305 14.8954305,14 16,14 Z M4,8 C5.1045695,8 6,8.8954305 6,10 C6,11.1045695 5.1045695,12 4,12 C2.8954305,12 2,11.1045695 2,10 C2,8.8954305 2.8954305,8 4,8 Z M10,8 C11.1045695,8 12,8.8954305 12,10 C12,11.1045695 11.1045695,12 10,12 C8.8954305,12 8,11.1045695 8,10 C8,8.8954305 8.8954305,8 10,8 Z M16,8 C17.1045695,8 18,8.8954305 18,10 C18,11.1045695 17.1045695,12 16,12 C14.8954305,12 14,11.1045695 14,10 C14,8.8954305 14.8954305,8 16,8 Z M4,2 C5.1045695,2 6,2.8954305 6,4 C6,5.1045695 5.1045695,6 4,6 C2.8954305,6 2,5.1045695 2,4 C2,2.8954305 2.8954305,2 4,2 Z M10,2 C11.1045695,2 12,2.8954305 12,4 C12,5.1045695 11.1045695,6 10,6 C8.8954305,6 8,5.1045695 8,4 C8,2.8954305 8.8954305,2 10,2 Z M16,2 C17.1045695,2 18,2.8954305 18,4 C18,5.1045695 17.1045695,6 16,6 C14.8954305,6 14,5.1045695 14,4 C14,2.8954305 14.8954305,2 16,2 Z" id="Combined-Shape" fill="#000000"></path>
                            </g>
                        </g>
                    </g>
                </g>
            </g>
        </g>
    </g>
</svg>