<?xml version="1.0" encoding="UTF-8"?>
<svg width="22px" height="18px" viewBox="0 0 22 18" version="1.1" xmlns="http://www.w3.org/2000/svg" xmlns:xlink="http://www.w3.org/1999/xlink">
    <!-- Generator: Sketch 61.2 (89653) - https://sketch.com -->
    <title>twitter</title>
    <desc>Created with Sketch.</desc>
    <g id="Home" stroke="none" stroke-width="1" fill="none" fill-rule="evenodd">
        <g id="Desktop" transform="translate(-566.000000, -7957.000000)" fill="#FFFFFF">
            <g id="footer" transform="translate(0.000000, 7873.000000)">
                <g id="social" transform="translate(522.000000, 83.000000)">
                    <path d="M65.9569,3.14354 C65.1457,3.50249 64.2795,3.74701 63.3674,3.85867 C64.2969,3.29487 65.0119,2.40626 65.3501,1.34603 C64.4784,1.85815 63.5123,2.23094 62.4838,2.43856 C61.6625,1.55365 60.492,1 59.1922,1 C56.7017,1 54.6824,3.03281 54.6824,5.53714 C54.6824,5.89701 54.7236,6.24304 54.7988,6.57431 C51.0498,6.39622 47.727,4.58394 45.5033,1.84431 C45.1119,2.51053 44.8928,3.28472 44.8928,4.12811 C44.8928,5.706 45.6903,7.09289 46.8984,7.90767 C46.1587,7.88368 45.4629,7.67883 44.8561,7.33926 L44.8561,7.39555 C44.8561,9.5963 46.408,11.4316 48.4731,11.8496 C48.0946,11.9521 47.6949,12.0074 47.2852,12.0074 C46.9974,12.0074 46.7215,11.9798 46.4456,11.9281 C47.024,13.7302 48.6867,15.0442 50.6657,15.0811 C49.1258,16.2982 47.1743,17.0235 45.0725,17.0235 C44.715,17.0235 44.3584,17.0023 44,16.9617 C46.0065,18.248 48.3705,19 50.927,19 C59.2261,19 63.7588,12.0831 63.7588,6.09448 C63.7588,5.90163 63.7588,5.70693 63.7451,5.51315 C64.626,4.87738 65.395,4.07367 66,3.16199 L65.9569,3.14354 Z" id="twitter"></path>
                </g>
            </g>
        </g>
    </g>
</svg>