<?xml version="1.0" encoding="UTF-8"?>
<svg width="27px" height="16px" viewBox="0 0 27 16" version="1.1" xmlns="http://www.w3.org/2000/svg" xmlns:xlink="http://www.w3.org/1999/xlink">
    <!-- Generator: Sketch 61.2 (89653) - https://sketch.com -->
    <title>Path</title>
    <desc>Created with Sketch.</desc>
    <g id="Home" stroke="none" stroke-width="1" fill="none" fill-rule="evenodd">
        <g id="Desktop" transform="translate(-834.000000, -8062.000000)" fill="#FFFFFF">
            <g id="footer" transform="translate(0.000000, 7977.000000)">
                <g id="social" transform="translate(522.000000, 83.000000)">
                    <path d="M338.38044,3.08341496 C338.568126,2.45889934 338.38044,2 337.487176,2 L334.533365,2 C333.782309,2 333.436061,2.39642179 333.24827,2.83355674 C333.24827,2.83355674 331.746157,6.48693416 329.618215,8.86004156 C328.929772,9.54698275 328.616806,9.76555023 328.241277,9.76555023 C328.053539,9.76555023 327.77188,9.54698275 327.77188,8.92251911 L327.77188,3.08341496 C327.77188,2.33399622 327.563785,2 326.937852,2 L322.29615,2 C321.826805,2 321.544537,2.34782237 321.544537,2.67746681 C321.544537,3.38790207 322.608456,3.55173672 322.718123,5.55018671 L322.718123,9.89050533 C322.718123,10.8421053 322.545894,11.0146334 322.170365,11.0146334 C321.169008,11.0146334 318.733205,7.34493495 317.288548,3.14584054 C317.00543,2.32968205 316.721468,2 315.966556,2 L313.012745,2 C312.168799,2 312,2.39642179 312,2.83355674 C312,3.61421427 313.001409,7.48615916 316.66272,12.6070834 C319.103576,16.1042669 322.542582,18 325.671934,18 C327.549523,18 327.781798,17.5789474 327.781798,16.8536856 L327.781798,14.2105263 C327.781798,13.3684211 327.95967,13.2003602 328.554244,13.2003602 C328.992334,13.2003602 329.743391,13.4189277 331.495857,15.1050938 C333.498623,17.1034919 333.828805,18 334.955338,18 L337.909149,18 C338.753095,18 339.175068,17.5789474 338.931638,16.7480236 C338.665253,15.919876 337.70904,14.7183441 336.440236,13.2940245 C335.751741,12.4821802 334.719077,11.6079103 334.406111,11.1706714 C333.96802,10.6086853 334.093196,10.3588271 334.406111,9.85926656 C334.406111,9.85926656 338.004911,4.80076797 338.38044,3.08341496 L338.38044,3.08341496 Z" id="Path"></path>
                </g>
            </g>
        </g>
    </g>
</svg>