<?xml version="1.0" encoding="UTF-8"?><svg width="292" height="264" viewBox="0 0 292 264" xmlns="http://www.w3.org/2000/svg" xmlns:xlink="http://www.w3.org/1999/xlink"><svg width="22" height="21" viewBox="-5 -5 22 21" id="svg--arrow-button-green" x="270" y="58" xmlns="http://www.w3.org/2000/svg"><g fill="none" fill-rule="evenodd"><path d="M-5-4h20v20H-5z"/><path stroke="#05C0A5" stroke-width="2" stroke-linecap="round" stroke-linejoin="round" d="M4.5 1H11v6.5M10.5 1.5L1 10"/></g></svg><svg width="20" height="16" viewBox="-5 -5 20 16" id="svg--arrow-min-down" x="260" y="144" xmlns="http://www.w3.org/2000/svg"><g fill="none" fill-rule="evenodd"><path d="M-5-7h20v20H-5z"/><path stroke="#000" stroke-width="1.5" stroke-linecap="round" stroke-linejoin="round" d="M8.5 1.5L5 5 1.5 1.5"/></g></svg><svg width="90" height="82" viewBox="-5 -5 90 82" id="svg--decentralized" y="92" xmlns="http://www.w3.org/2000/svg"><g stroke-width="3.75" transform="translate(0 -4)" fill="#05C0A5" stroke="#05C0A5" fill-rule="evenodd" fill-opacity=".099"><circle cx="40" cy="40" r="8.125"/><g transform="translate(0 30)"><circle cx="10" cy="10" r="8.125"/><circle cx="70" cy="10" r="8.125"/></g><g transform="rotate(60 14.02 25)"><circle cx="10" cy="10" r="8.125"/><circle cx="70" cy="10" r="8.125"/></g><g transform="rotate(120 31.34 25)"><circle cx="10" cy="10" r="8.125"/><circle cx="70" cy="10" r="8.125"/></g></g></svg><svg width="30" height="30" viewBox="-5 -5 30 30" id="svg--facebook" x="165" y="174" xmlns="http://www.w3.org/2000/svg"><path d="M18.897 0H1.103C.494 0 0 .494 0 1.103v17.794C0 19.507.494 20 1.103 20h9.579v-7.745H8.074V9.237h2.608V7.009c0-2.582 1.578-3.987 3.882-3.987 1.104 0 2.053.08 2.33.117v2.7h-1.6c-1.25 0-1.494.601-1.494 1.476V9.24h2.987l-.388 3.025H13.8V20h5.096c.61 0 1.104-.493 1.104-1.103V1.103C20 .494 19.507 0 18.897 0z" fill="#FFF" fill-rule="evenodd"/></svg><svg width="30" height="30" viewBox="-5 -5 30 30" id="svg--github" x="195" y="174" xmlns="http://www.w3.org/2000/svg"><path d="M10 0C4.475 0 0 4.478 0 10a9.998 9.998 0 006.838 9.488c.5.094.683-.215.683-.481 0-.238-.008-.867-.013-1.7-2.781.603-3.368-1.342-3.368-1.342-.455-1.154-1.113-1.463-1.113-1.463-.905-.62.071-.607.071-.607 1.004.07 1.531 1.03 1.531 1.03.892 1.53 2.341 1.087 2.913.832.09-.647.347-1.088.633-1.338-2.221-.25-4.555-1.11-4.555-4.942 0-1.091.388-1.983 1.029-2.683-.112-.252-.45-1.269.088-2.646 0 0 .837-.269 2.75 1.025.8-.223 1.65-.333 2.5-.338.85.005 1.7.115 2.5.338 1.9-1.294 2.737-1.026 2.737-1.026.538 1.378.2 2.395.1 2.647.638.7 1.025 1.592 1.025 2.683 0 3.842-2.337 4.688-4.562 4.934.35.3.675.913.675 1.85 0 1.338-.013 2.413-.013 2.738 0 .263.175.575.688.475A9.965 9.965 0 0020 10c0-5.522-4.477-10-10-10z" fill="#FFF" fill-rule="evenodd"/></svg><svg width="42" height="42" viewBox="-5 -5 42 42" id="svg--github-middle-white" x="232" y="92" xmlns="http://www.w3.org/2000/svg"><path d="M15.999 0C7.164 0 0 7.253 0 16.2c0 7.158 4.584 13.23 10.942 15.371.8.15 1.092-.35 1.092-.78 0-.385-.013-1.404-.021-2.755-4.45.978-5.39-2.172-5.39-2.172-.728-1.872-1.777-2.37-1.777-2.37-1.452-1.004.11-.985.11-.985 1.606.115 2.451 1.67 2.451 1.67 1.427 2.476 3.745 1.76 4.657 1.346.145-1.046.559-1.76 1.015-2.165-3.552-.409-7.288-1.8-7.288-8.007 0-1.768.624-3.215 1.647-4.347-.165-.41-.714-2.058.158-4.287 0 0 1.342-.436 4.399 1.66A15.148 15.148 0 0116 7.835c1.36.007 2.728.186 4.006.546 3.055-2.097 4.395-1.661 4.395-1.661.874 2.23.325 3.877.16 4.287 1.026 1.132 1.645 2.579 1.645 4.347 0 6.224-3.741 7.593-7.305 7.994.574.5 1.085 1.489 1.085 3 0 2.165-.02 3.913-.02 4.444 0 .433.29.937 1.1.78C27.42 29.422 32 23.355 32 16.2 32 7.252 24.836 0 15.999 0" fill="#FFFFFE" fill-rule="evenodd"/></svg><svg width="26" height="26" viewBox="-5 -5 26 26" id="svg--github-min-black" x="244" y="58" xmlns="http://www.w3.org/2000/svg"><path d="M8 0C3.581 0 0 3.626 0 8.1c0 3.579 2.292 6.615 5.471 7.686.4.074.546-.176.546-.39 0-.193-.007-.702-.01-1.378-2.226.49-2.695-1.086-2.695-1.086-.364-.936-.889-1.185-.889-1.185-.726-.502.055-.492.055-.492.803.057 1.225.835 1.225.835.714 1.237 1.873.88 2.329.672.073-.523.28-.88.508-1.082-1.777-.205-3.644-.9-3.644-4.003 0-.885.311-1.608.823-2.174-.082-.205-.357-1.029.079-2.144 0 0 .671-.217 2.2.83A7.574 7.574 0 018 3.918c.68.003 1.364.093 2.003.273 1.527-1.048 2.198-.83 2.198-.83.436 1.114.162 1.938.08 2.143.513.566.822 1.29.822 2.174 0 3.111-1.87 3.796-3.652 3.996.286.25.542.745.542 1.5 0 1.083-.01 1.957-.01 2.222 0 .217.145.47.55.39C13.71 14.712 16 11.678 16 8.1 16 3.626 12.418 0 8 0" fill="#000" fill-rule="evenodd"/></svg><svg width="80" height="82" viewBox="-5 -5 80 82" id="svg--improve" x="90" y="92" xmlns="http://www.w3.org/2000/svg"><g fill="none" fill-rule="evenodd"><path d="M0 0h80v80H0z"/><path d="M58.125 69.375l-22.695-.001c-4.069-.017-10.217-.278-14.918-4.27-.52-.441-4.578.677-8.012-.104-3.813-.867-7.03-3.648-7.5-4.375C.004 52.908 3.75 40 7.5 36.25c.525-.525 10.749-1.696 11.175-2.289 1.211-1.687 2.705-3.108 4.44-4.323 7.04-4.934 9.63-8.86 14.09-17.27l.92-1.743C40.404 6.282 40.095 2.5 45 2.5c2.986 0 6.746 8.56 5.625 11.25-2.083 5-2.292 5.417-4.375 13.75-.539 1.616.316 1.84 1.763 1.87l.737.005h14.375a5 5 0 015 5c0 1.009-.799 3.045-2.396 6.107-.592 1.135.707 4.976-.104 6.393-.582 1.016-2.249 1.85-5 2.5a5 5 0 014.994 4.75l.006.25a5 5 0 01-4.75 4.994l-.25.006h-4.063l.104 1.111 1.459-1.111a5 5 0 014.994 4.75l.006.25a5 5 0 01-5 5z" fill-opacity=".1" fill="#05C0A5"/><path d="M21.25 65.625h-6.385c-6.904 0-12.5-5.596-12.5-12.5 0-.16.003-.32.01-.48l.288-7.5c.258-6.712 5.774-12.02 12.49-12.02h4.222" stroke="#05C0A5" stroke-width="3.75" stroke-linecap="round"/><path d="M42.5 70c-4.9 0-20-.625-24.996-8.342-4.995-7.717-1.634-22.76 0-25.816 1.361-2.544 3.267-4.562 5.61-6.204 7.511-5.263 9.956-9.38 15.011-19.013C40.404 6.282 40.625 2.5 45 2.5c3.75 0 6.25 3.75 6.25 8.75 0 6.25-5 11.25-5 15.625 0 1.875.625 2.5 3.125 2.5 2.917-.417 5.417-.625 7.5-.625" stroke="#05C0A5" stroke-width="3.75" stroke-linejoin="round"/><path d="M60 39.375h3.125a5 5 0 005-5c0-3.75-3.958-5.625-11.875-5.625M59.375 49.375h2.5a5 5 0 000-10M58.125 59.375h2.5a5 5 0 000-10M42.5 70c15 0 20.625-1.25 20.625-5.625a5 5 0 00-5-5" stroke="#05C0A5" stroke-width="3.75" stroke-linecap="round" stroke-linejoin="round"/></g></svg><svg width="30" height="30" viewBox="-5 -5 30 30" id="svg--instagram" x="225" y="174" xmlns="http://www.w3.org/2000/svg"><path d="M10 0C7.283 0 6.944.013 5.877.06 4.813.11 4.087.278 3.45.525a4.898 4.898 0 00-1.772 1.153A4.88 4.88 0 00.525 3.45C.278 4.088.109 4.812.06 5.878.01 6.944 0 7.283 0 10c0 2.717.013 3.056.06 4.123.05 1.064.218 1.79.465 2.427a4.905 4.905 0 001.153 1.772c.556.555 1.114.899 1.772 1.153.638.247 1.363.416 2.427.465 1.067.05 1.406.06 4.123.06 2.717 0 3.056-.012 4.123-.06 1.064-.05 1.79-.218 2.427-.465a4.915 4.915 0 001.772-1.153 4.88 4.88 0 001.153-1.772c.247-.638.416-1.363.465-2.428.05-1.066.06-1.405.06-4.122 0-2.717-.013-3.056-.06-4.122-.05-1.065-.218-1.791-.465-2.428a4.907 4.907 0 00-1.153-1.772A4.876 4.876 0 0016.55.525C15.913.278 15.187.109 14.123.06 13.056.01 12.717 0 10 0zm0 1.8c2.669 0 2.988.013 4.042.06.975.045 1.504.207 1.856.345.468.18.8.397 1.151.747.349.35.566.682.747 1.15.136.352.3.881.344 1.856.048 1.055.058 1.372.058 4.042s-.012 2.988-.061 4.042c-.051.975-.214 1.504-.351 1.856a3.18 3.18 0 01-.749 1.151c-.349.35-.687.566-1.15.747-.35.137-.888.3-1.863.344-1.061.047-1.374.058-4.049.058-2.676 0-2.988-.012-4.05-.061-.975-.051-1.513-.214-1.862-.351-.475-.187-.8-.4-1.15-.75a3.037 3.037 0 01-.75-1.15c-.137-.35-.299-.887-.35-1.862-.037-1.05-.05-1.374-.05-4.036 0-2.664.013-2.989.05-4.051.051-.975.213-1.512.35-1.862.175-.475.4-.8.75-1.15.35-.35.675-.575 1.15-.75.35-.137.875-.3 1.85-.35 1.063-.037 1.375-.05 4.05-.05L10 1.8zm0 3.065a5.135 5.135 0 100 10.27 5.135 5.135 0 000-10.27zm0 8.468A3.332 3.332 0 016.667 10a3.332 3.332 0 116.666 0A3.332 3.332 0 0110 13.333zm6.538-8.67a1.2 1.2 0 01-2.4 0 1.201 1.201 0 012.4 0z" fill="#FFF" fill-rule="evenodd"/></svg><svg width="90" height="90" viewBox="-5 -5 90 90" id="svg--integrate-in-minutes" y="174" xmlns="http://www.w3.org/2000/svg"><g fill="none" fill-rule="evenodd"><circle stroke="#05C0A5" stroke-width="3.75" fill-opacity=".053" fill="#05C0A5" cx="40" cy="40" r="38.125"/><circle fill="#05C0A5" cx="40" cy="40" r="5"/><path d="M62.981 20.716L32.34 46.428" stroke="#05C0A5" stroke-linecap="round" stroke-linejoin="round" stroke-width="3.75"/><g stroke="#05C0A5" stroke-linecap="round" stroke-linejoin="round" stroke-width="2.5"><path d="M40 10v3.75M40 66.25V70M55 14.02l-1.875 3.247M26.875 62.733L25 65.981M65.98 25l-3.247 1.875M17.266 53.125L14.02 55M70 40h-3.75M13.75 40H10M55 65.981l-1.875-3.248M26.875 17.267L25 14.02M65.98 55l-3.247-1.875M17.266 26.875L14.02 25"/></g></g></svg><svg width="30" height="30" viewBox="-5 -5 30 30" id="svg--linkedin" x="255" y="174" xmlns="http://www.w3.org/2000/svg"><path d="M17.039 17.043h-2.962v-4.64c0-1.107-.022-2.531-1.543-2.531-1.544 0-1.78 1.204-1.78 2.449v4.722H7.793V7.5h2.845v1.3h.038c.397-.75 1.364-1.54 2.808-1.54 3.001 0 3.556 1.974 3.556 4.545v5.238h-.001zM4.447 6.194a1.718 1.718 0 01-1.719-1.72 1.72 1.72 0 111.719 1.72zm1.485 10.85H2.963V7.5h2.969v9.543zM18.521 0H1.476C.66 0 0 .645 0 1.44v17.12C0 19.355.66 20 1.476 20h17.042c.815 0 1.482-.644 1.482-1.44V1.44C20 .646 19.333 0 18.518 0h.003z" fill="#FFF" fill-rule="evenodd"/></svg><svg width="292" height="58" viewBox="-5 -5 292 58" id="svg--logo" xmlns="http://www.w3.org/2000/svg"><g fill="none" fill-rule="evenodd"><g fill="#000"><text font-family="Manrope-ExtraBold, Manrope" font-size="20" font-weight="600" transform="translate(66 1)"><tspan x="0" y="20">MEWconnect protocol</tspan></text><text opacity=".622" font-family="Manrope-Medium, Manrope" font-size="15" font-weight="400" transform="translate(66 1)"><tspan x="0" y="40">by MyEtherWallet</tspan></text></g><path d="M26 .75A23.177 23.177 0 009.56 7.56 23.177 23.177 0 002.75 24c0 6.42 2.602 12.233 6.81 16.44A23.177 23.177 0 0026 47.25c6.42 0 12.233-2.602 16.44-6.81A23.177 23.177 0 0049.25 24c0-6.42-2.602-12.233-6.81-16.44A23.177 23.177 0 0026 .75z" stroke="#05C0A5" stroke-width="1.5"/><path d="M10.93 24.39c0-1.905.228-4.538.888-6.208l6.546 2.545c-.021.09.015.855-.015.989a7.926 7.926 0 00-.34 1.944c-.013.13-.018.262-.014.394 0 .03.004.06.006.09a7.953 7.953 0 003.049 6.166c1.899 1.487 5.511 1.876 7.86 1.326l3.272 6.182C30 38.91 27.865 39.086 26 39.083c-8.113 0-15.07-6.577-15.07-14.692zm12.543-1.384l10.541-.046c-.378-3.823-4.308-6.931-8.013-6.931-.84-.001-2.843.425-3.637.698l-3.273-6.545c1.92-.88 4.8-1.266 6.91-1.263 8.114 0 15.272 6.604 15.272 14.717-.002 2.19-.597 4.68-1.455 6.546l-16.345-7.176z" fill="#05C0A5"/><g transform="rotate(23.5 -24.424 12.144)" stroke="#05C0A5" stroke-width="1.5"><path stroke-linecap="square" d="M50.182 2.91H2.909"/><circle fill="#FFF" cx="50.182" cy="2.91" r="2.909"/><circle fill="#FFF" cx="2.909" cy="2.91" r="2.909"/></g></g></svg><svg width="30" height="26" viewBox="-5 -5 30 26" id="svg--medium" x="214" y="58" xmlns="http://www.w3.org/2000/svg"><path d="M2.372 3.24a.772.772 0 00-.253-.654L.252.336V0H6.05l4.482 9.83L14.472 0H20v.336l-1.597 1.53a.468.468 0 00-.178.449v11.25c-.028.17.04.342.178.447l1.558 1.531v.336h-7.842v-.336l1.614-1.568c.159-.158.159-.205.159-.448V4.434L9.4 15.841h-.606L3.565 4.434v7.645c-.043.322.063.645.289.878l2.1 2.55v.335H0v-.336l2.1-2.55c.225-.232.325-.558.272-.877V3.24z" fill="#FFF" fill-rule="evenodd"/></svg><svg width="177" height="34" viewBox="-5 -5 177 34" id="svg--poweredByMEW" y="58" xmlns="http://www.w3.org/2000/svg"><g fill-rule="nonzero" fill="none"><path d="M114.764 4.018l4.291 8.255 4.33-8.255h3.715v15.924h-3.66v-8.999l-3.36 6.424h-2.032l-3.36-6.427v9.002h-3.66V4.018h3.736zm25.959 0v3.297h-7.42v2.965h6.41v3.101h-6.41v3.267h7.61v3.294h-11.27V4.018h11.08zm5.87 0l4.093 11.188 1.502-3.874-2.68-7.272h3.476l1.463 4.3 1.463-4.3h3.502l-2.72 7.272 1.54 3.884 4.078-11.198h3.982l-6.48 15.924h-2.958l-2.403-5.82-2.403 5.82h-2.958l-6.438-15.924h3.94z" fill="#00537E"/><path d="M95 0c-6.627 0-12 5.374-12 11.998C83 18.626 88.373 24 95 24s12-5.374 12-12.002C107 5.374 101.627 0 95 0z" fill="#1B96A4"/><path d="M88.01 9.326l3.223 1.372c-.011.045-.022.105-.037.168a3.924 3.924 0 00-.17.967c-.007.075-.01.143-.007.195 0 .015.004.03.004.045a3.953 3.953 0 004.859 3.8l1.83 3.106a7.233 7.233 0 01-2.708.521c-4.041 0-7.504-3.271-7.504-7.303 0-.948.18-2.042.51-2.87zM95.008 4.5c4.04 0 7.492 3.331 7.492 7.363-.008 1.09-.146 2.177-.574 3.103l-8.18-3.463 5.25-.022c-.188-1.9-2.146-3.447-3.988-3.447a3.72 3.72 0 00-1.231.206L91.96 5.16a7.312 7.312 0 013.047-.66z" fill="#FFF"/><path d="M1.46 15.84v-2.603h1.804c.14 0 .44-.01.644-.042 1.374-.214 1.996-1.206 1.996-2.496 0-1.291-.612-2.283-1.996-2.496a4.879 4.879 0 00-.644-.043H0v7.68h1.46zm1.74-3.957H1.46V9.515H3.2c.15 0 .343.01.493.053.59.16.74.715.74 1.13 0 .417-.15.971-.74 1.131-.15.043-.344.054-.494.054zM11.12 16c2.32 0 3.748-1.61 3.748-4 0-2.39-1.428-4-3.747-4s-3.747 1.61-3.747 4c0 2.39 1.428 4 3.747 4zm0-1.365C9.65 14.613 8.92 13.6 8.92 12c0-1.6.73-2.656 2.2-2.635 1.472.022 2.202 1.035 2.202 2.635 0 1.6-.73 2.656-2.201 2.635zm8.384 1.205l1.498-5.184L22.5 15.84h1.438l2.265-7.68h-1.535l-1.45 5.28-1.448-5.28-1.536.01-1.449 5.27-1.45-5.28h-1.534l2.265 7.68h1.438zm13.43 0v-1.355h-3.586v-1.973h2.941v-1.355h-2.941V9.515h3.585V8.16h-5.045v7.68h5.045zm3.573 0v-2.603h1.627l1.272 2.603h1.653l-1.395-2.848c.88-.4 1.288-1.248 1.288-2.293 0-1.291-.612-2.283-1.997-2.496a4.879 4.879 0 00-.644-.043h-3.264v7.68h1.46zm1.74-3.957h-1.74V9.515h1.74c.15 0 .343.01.493.053.59.16.741.715.741 1.13 0 .417-.15.971-.74 1.131-.151.043-.344.054-.494.054zm9.864 3.957v-1.355h-3.585v-1.973h2.941v-1.355h-2.941V9.515h3.585V8.16h-5.045v7.68h5.045zm5.539-.043c1.868-.224 2.91-1.845 2.91-3.797 0-1.952-1.042-3.573-2.91-3.797-.354-.043-.805-.043-.923-.043h-2.502v7.68h2.625a7.87 7.87 0 00.8-.043zm-.813-1.323h-1.13V9.526h1.02c.193 0 .569 0 .837.054.977.192 1.45 1.269 1.45 2.421 0 1.099-.44 2.219-1.45 2.421a4.248 4.248 0 01-.727.053zm12.234 1.366c1.578 0 2.34-.95 2.34-2.325 0-.736-.36-1.414-1.084-1.712.456-.278.73-.79.73-1.488 0-1.014-.666-2.155-2.32-2.155h-3.09v7.68h3.424zm-.355-4.683h-1.588V9.515h1.588c.559 0 .86.362.86.832 0 .565-.366.81-.86.81zm.204 3.318h-1.792v-1.963h1.792c.677 0 1.02.405 1.02.95 0 .618-.43 1.013-1.02 1.013zm7.44 1.365v-3.125L75 8.16h-1.707l-1.675 2.89-1.674-2.89h-1.707l2.64 4.555v3.125h1.482z" fill="#FFF" opacity=".7"/></g></svg><svg width="32" height="29" viewBox="-5 -5 32 29" id="svg--reddit" x="170" y="144" xmlns="http://www.w3.org/2000/svg"><path d="M2.02 11.081a3.655 3.655 0 00-.083.777c0 3.155 4.035 5.727 8.996 5.727 4.959 0 8.994-2.57 8.994-5.728 0-.25-.027-.5-.076-.741l-.013-.03a.403.403 0 01-.027-.15c-.277-1.078-1.024-2.055-2.104-2.845a.384.384 0 01-.116-.064c-.024-.018-.041-.039-.061-.059-1.643-1.13-3.993-1.84-6.596-1.84-2.581 0-4.908.695-6.551 1.806a.358.358 0 01-.164.114c-1.105.79-1.872 1.775-2.158 2.863a.417.417 0 01-.033.156l-.008.014zm8.958 4.988c-1.644 0-2.802-.357-3.54-1.098a.411.411 0 010-.579.43.43 0 01.582 0c.577.577 1.544.864 2.958.864 1.414 0 2.375-.275 2.951-.851a.425.425 0 01.577 0 .442.442 0 010 .591c-.742.74-1.893 1.098-3.54 1.098l.012-.026zM7.673 9.127c-.838 0-1.537.701-1.537 1.537 0 .834.699 1.513 1.537 1.513s1.513-.679 1.513-1.513c0-.836-.677-1.537-1.513-1.537zm6.63 0c-.838 0-1.538.701-1.538 1.537 0 .834.7 1.513 1.538 1.513.838 0 1.513-.679 1.513-1.513 0-.836-.677-1.537-1.513-1.537zm4.169-1.462c.95.763 1.65 1.669 2.006 2.662.413-.308.659-.792.659-1.329a1.667 1.667 0 00-2.665-1.331v-.002zm-15.987-.33a1.668 1.668 0 00-1.075 2.94c.367-.989 1.074-1.881 2.028-2.636a1.667 1.667 0 00-.952-.301v-.002h-.001zm8.449 11.073c-5.414 0-9.817-2.938-9.817-6.547 0-.252.021-.498.063-.741A2.496 2.496 0 010 8.999a2.498 2.498 0 012.498-2.487c.618 0 1.194.225 1.647.625 1.701-1.092 3.994-1.78 6.519-1.826L12.325.247l.37.088.015.001 3.871.91a2.05 2.05 0 013.938.801 2.05 2.05 0 01-2.045 2.049A2.05 2.05 0 0116.43 2.05l-3.53-.836-1.345 4.104c2.429.096 4.626.783 6.273 1.853a2.442 2.442 0 011.681-.66A2.49 2.49 0 0122 8.999c0 .904-.495 1.728-1.263 2.168.026.233.054.452.054.686-.014 3.61-4.405 6.547-9.826 6.547l-.031.009zM18.431.82a1.228 1.228 0 100 2.455c.671 0 1.219-.55 1.219-1.223 0-.672-.548-1.22-1.235-1.22l.016-.012z" fill="#FFF" fill-rule="evenodd"/></svg><svg width="75" height="90" viewBox="-5 -5 75 90" id="svg--secure" x="90" y="174" xmlns="http://www.w3.org/2000/svg"><g fill="none" fill-rule="evenodd"><path d="M0 0h80v80H0z"/><path d="M32.5 1.875c-.841 0-1.71.25-2.794.533C25.762 3.5 9.647 9.655 5.703 11.342c-1.302.556-2.398 1.054-3.08 1.977-.525.71-.748 1.667-.748 3.012v30.156c0 6.45 1.57 11.018 5.406 15.228 4.553 4.998 12.094 9.502 23.482 15.899.703.39 1.347.511 1.737.511.39 0 1.034-.12 1.744-.515 11.381-6.393 18.922-10.897 23.475-15.895 3.836-4.21 5.406-8.777 5.406-15.228V16.331c0-1.335-.22-2.28-.738-2.982-.688-.93-1.796-1.432-3.113-2.017-3.95-1.739-20.089-7.548-24.083-8.955-.844-.287-1.766-.502-2.691-.502z" stroke="#05C0A5" stroke-width="3.75" fill-opacity=".1" fill="#05C0A5"/></g></svg><svg width="62" height="52" viewBox="-5 -5 62 52" id="svg--switch" x="170" y="92" xmlns="http://www.w3.org/2000/svg"><g fill="none" fill-rule="evenodd"><path d="M-10-15h72v72h-72z"/><g stroke="#5F6368" stroke-linecap="round" stroke-linejoin="round" stroke-width="2"><path d="M29.5 9H2M9 1L1 9l8 8"/></g><g stroke="#5F6368" stroke-linecap="round" stroke-linejoin="round" stroke-width="2"><path d="M22.5 33H49M43 25l8 8-8 8"/></g></g></svg><svg width="26" height="26" viewBox="-5 -5 26 26" id="svg--tools" x="234" y="144" xmlns="http://www.w3.org/2000/svg"><g fill="none" fill-rule="evenodd"><path d="M-2-2h20v20H-2z"/><path d="M2 12a2 2 0 110 4 2 2 0 010-4zm6 0a2 2 0 110 4 2 2 0 010-4zm6 0a2 2 0 110 4 2 2 0 010-4zM2 6a2 2 0 110 4 2 2 0 010-4zm6 0a2 2 0 110 4 2 2 0 010-4zm6 0a2 2 0 110 4 2 2 0 010-4zM2 0a2 2 0 110 4 2 2 0 010-4zm6 0a2 2 0 110 4 2 2 0 010-4zm6 0a2 2 0 110 4 2 2 0 010-4z" fill="#D8D8D8"/></g></svg><svg width="32" height="28" viewBox="-5 -5 32 28" id="svg--twitter" x="202" y="144" xmlns="http://www.w3.org/2000/svg"><path d="M21.957 2.144a9.12 9.12 0 01-2.59.715A4.57 4.57 0 0021.35.346a9.278 9.278 0 01-2.866 1.093A4.477 4.477 0 0015.192 0c-2.49 0-4.51 2.033-4.51 4.537 0 .36.042.706.117 1.037-3.75-.178-7.072-1.99-9.296-4.73a4.472 4.472 0 00-.61 2.284c0 1.578.797 2.965 2.005 3.78a4.473 4.473 0 01-2.042-.569v.057c0 2.2 1.552 4.036 3.617 4.454a4.547 4.547 0 01-2.027.078 4.529 4.529 0 004.22 3.153 9.007 9.007 0 01-5.594 1.942A9.51 9.51 0 010 15.962 12.767 12.767 0 006.927 18c8.3 0 12.832-6.917 12.832-12.906 0-.192 0-.387-.014-.58A9.141 9.141 0 0022 2.161l-.043-.018z" fill="#FFF" fill-rule="evenodd"/></svg><svg width="37" height="26" viewBox="-5 -5 37 26" id="svg--vk" x="177" y="58" xmlns="http://www.w3.org/2000/svg"><path d="M26.38 1.083C26.568.46 26.38 0 25.487 0h-2.954c-.75 0-1.097.396-1.285.834 0 0-1.502 3.653-3.63 6.026-.688.687-1.001.906-1.377.906-.187 0-.47-.219-.47-.843v-5.84c0-.749-.207-1.083-.833-1.083h-4.642c-.47 0-.751.348-.751.677 0 .71 1.063.875 1.173 2.873v4.34c0 .952-.172 1.125-.548 1.125-1.001 0-3.437-3.67-4.881-7.87C5.005.33 4.72 0 3.967 0H1.013C.169 0 0 .396 0 .834c0 .78 1.001 4.652 4.663 9.773C7.103 14.104 10.543 16 13.672 16c1.878 0 2.11-.421 2.11-1.146V12.21c0-.843.178-1.01.772-1.01.438 0 1.19.218 2.942 1.904C21.499 15.103 21.829 16 22.956 16h2.953c.844 0 1.266-.421 1.023-1.252-.267-.828-1.223-2.03-2.492-3.454-.688-.812-1.72-1.686-2.034-2.123-.438-.562-.313-.812 0-1.312 0 0 3.599-5.058 3.974-6.776z" fill="#FFF" fill-rule="evenodd"/></svg></svg>